<?xml version="1.0" encoding="UTF-8"?>
<svg id="Layer_1" data-name="Layer 1" xmlns="http://www.w3.org/2000/svg" viewBox="0 0 566.93 566.93">
  <defs>
    <style>
      .cls-1 {
        fill: #2b338b;
      }
    </style>
  </defs>
  <rect class="cls-1" x="325.04" y="196.16" width="21.83" height="21.83"/>
  <rect class="cls-1" x="325.04" y="217.98" width="21.83" height="21.83"/>
  <rect class="cls-1" x="346.87" y="196.16" width="21.83" height="21.83"/>
  <rect class="cls-1" x="346.87" y="217.98" width="21.83" height="21.83"/>
  <rect class="cls-1" x="303.21" y="217.98" width="21.83" height="21.83"/>
  <rect class="cls-1" x="303.21" y="239.81" width="21.83" height="21.83"/>
  <rect class="cls-1" x="325.04" y="239.81" width="21.83" height="21.83"/>
  <rect class="cls-1" x="281.39" y="239.81" width="21.83" height="21.83"/>
  <rect class="cls-1" x="281.39" y="261.64" width="21.83" height="21.83"/>
  <rect class="cls-1" x="303.21" y="261.64" width="21.83" height="21.83"/>
  <rect class="cls-1" x="259.56" y="261.64" width="21.83" height="21.83"/>
  <rect class="cls-1" x="259.56" y="283.46" width="21.83" height="21.83"/>
  <rect class="cls-1" x="281.39" y="283.46" width="21.83" height="21.83"/>
  <rect class="cls-1" x="237.73" y="283.46" width="21.83" height="21.83"/>
  <rect class="cls-1" x="215.91" y="283.46" width="21.83" height="21.83"/>
  <rect class="cls-1" x="215.91" y="261.64" width="21.83" height="21.83"/>
  <rect class="cls-1" x="237.73" y="305.29" width="21.83" height="21.83"/>
  <rect class="cls-1" x="215.91" y="327.12" width="21.83" height="21.83"/>
  <rect class="cls-1" x="194.08" y="348.94" width="21.83" height="21.83"/>
  <rect class="cls-1" x="259.56" y="305.29" width="21.83" height="21.83"/>
  <rect class="cls-1" x="259.56" y="327.12" width="21.83" height="21.83"/>
  <rect class="cls-1" x="281.39" y="327.12" width="21.83" height="21.83"/>
</svg>