<?xml version="1.0" encoding="UTF-8"?>
<svg id="Layer_1" data-name="Layer 1" xmlns="http://www.w3.org/2000/svg" viewBox="0 0 566.93 566.93">
  <defs>
    <style>
      .cls-1 {
        fill: #010101;
      }

      .cls-2 {
        fill: #a6cded;
      }

      .cls-3 {
        fill: #d3dbe3;
      }

      .cls-4 {
        fill: #fff;
      }

      .cls-5 {
        fill: #a2d4a2;
      }

      .cls-6 {
        fill: #564c9d;
      }

      .cls-7 {
        fill: #d798c3;
      }

      .cls-8 {
        fill: #fec056;
      }

      .cls-9 {
        fill: #9287c0;
      }

      .cls-10 {
        fill: #c8e0f5;
      }
    </style>
  </defs>
  <g id="_1avXgr.tif" data-name="1avXgr.tif">
    <g>
      <path class="cls-4" d="M244.48,169.51h-19.04v19.01h19.04v-19.01ZM206.45,226.48h-19.04v19.01h19.04v-19.01Z"/>
      <path class="cls-1" d="M457.47,74.56c6.32.03,12.7-.11,19.02,0s12.71-.08,19.03,0c-.33,25.29.41,50.69,0,75.97-6.32.11-12.7-.11-19.02,0-.03,6.31.11,12.68,0,18.99-6.32.11-12.7-.11-19.02,0-.11,6.31.11,12.68,0,18.99-6.32.11-12.7-.07-19.02,0-.11,6.31.11,12.68,0,18.99-6.32.11-12.7,0-19.02,0,0,6.31.11,12.68,0,18.99-6.32.11-12.7-.1-19.02,0-.07,6.31.11,12.68,0,18.99-6.95.12-13.97-.12-20.92,0-.11,6.31.11,12.68,0,18.99-6.32.1-12.7-.11-19.02,0-.11,6.31.11,12.68,0,18.99-6.32.11-12.7,0-19.02,0-.11,6.31.11,12.68,0,18.99-6.32.11-12.7-.11-19.02,0,0,6.31.11,12.68,0,18.99-6.32.11-12.7-.11-19.02,0-.11,6.31.11,12.68,0,18.99-6.32.11-12.7-.11-19.02,0-.11,6.31,0,12.68,0,18.99-6.32.11-12.7-.03-19.02,0-.11,6.3-.11,12.69,0,18.99,6.32.1,12.7-.11,19.02,0s12.7-.08,19.02,0v75.96h-38.04c-.05-6.31.06-12.68,0-18.99-6.95.1-13.98-.07-20.93,0-.04-6.31.07-12.69,0-19-6.32-.14-12.71.1-19.03,0-.04-6.31.07-12.69,0-19-6.31-.11-12.71-.11-19.02,0-.11,6.31.08,12.69,0,19-6.32.04-12.71-.07-19.03,0-.06,6.31.05,12.69,0,19-6.32.04-12.7-.07-19.03,0-.06,6.31.05,12.69,0,19-6.32.04-12.71-.07-19.03,0-.06,6.31.05,12.69,0,19-6.32.01-12.7-.04-19.03,0,.1-6.31-.08-12.69,0-19,6.32-.04,12.71.07,19.03,0,.06-6.31-.05-12.69,0-19,6.32-.04,12.7.07,19.03,0,.06-6.31-.05-12.69,0-19,6.32-.04,12.71.07,19.03,0,.06-6.31-.05-12.69,0-19,6.32-.07,12.71.12,19.03,0,.11-6.3.11-12.7,0-18.99h19.03c.04,6.3-.07,12.68,0,18.99,6.32.11,12.71-.08,19.03,0,.04,6.31-.07,12.69,0,19,6.95.15,13.98-.11,20.93,0,.04,6.31-.07,12.69,0,19,6.32-.09,12.7.06,19.02,0v-37.98h-19.03c-.07-6.3.12-12.68,0-18.99-6.95-.11-13.98.08-20.93,0v-19c6.96.12,13.98.03,20.93,0,.11-6.31-.08-12.69,0-19,6.32-.07,12.71.12,19.03,0,.11-6.31-.08-12.69,0-19,6.32-.07,12.71.12,19.03,0,.11-6.31-.08-12.69,0-19,6.32-.07,12.71.12,19.03,0,0-6.31.11-12.68,0-18.99,6.32.11,12.7,0,19.02,0,.11-6.31-.08-12.69,0-19,6.32-.07,12.71.12,19.03,0,.11-6.31-.08-12.69,0-19,6.32-.07,12.71.12,19.03,0,.11-6.31-.08-12.69,0-19,6.95-.07,13.98.12,20.93,0,.07-6.31-.11-12.68,0-18.99h19.02v-18.99c6.32-.11,12.7.07,19.02,0,.11-6.31-.08-12.69,0-19,6.32-.07,12.71.12,19.03,0,.11-6.31-.08-12.69,0-19,6.32-.07,12.71.12,19.03,0,.06-12.62.21-25.37,0-37.98-.1-6.31.08-12.69,0-19-18.99.08-38.07-.08-57.06,0-.11,6.31.08,12.69,0,19-6.32.07-12.71-.12-19.03,0-.11,6.31.08,12.69,0,19-6.95.07-13.98-.12-20.93,0-.11,6.31.08,12.69,0,19-6.32.07-12.71-.12-19.03,0-.11,6.31.08,12.69,0,19-6.32.07-12.71-.12-19.03,0,.02,6.32.02,12.68,0,18.99-6.32.03-12.69-.03-19.02,0-.11,6.31.08,12.69,0,19-6.32.07-12.71-.12-19.03,0-.11,6.31.08,12.69,0,19-6.32.07-12.71-.12-19.03,0-.11,6.31.08,12.69,0,19-6.32.07-12.71-.12-19.03,0-.11,6.31.08,12.69,0,19-6.95.07-13.98-.12-20.93,0-.11,6.31.08,12.69,0,19-6.32.07-12.71-.12-19.03,0-.11,6.31.08,12.69,0,19-6.32.07-12.71-.12-19.03,0,0,6.31-.11,12.68,0,18.99h-19.02c0-6.32.03-12.68,0-18.99-6.32-.11-12.71.08-19.03,0v-19s-38.03,0-38.03,0c0,6.31,0,12.68,0,18.99,6.32.14,12.71-.1,19.03,0,.04,6.31-.07,12.69,0,19,6.32.11,12.7,0,19.02,0v18.99c6.32,0,12.7,0,19.02,0-.03,6.31.11,12.68,0,18.99-6.3-.11-12.71-.11-19.02,0,0,6.31.11,12.68,0,18.99-6.32.11-12.7-.11-19.02,0-.11,6.31.11,12.68,0,18.99-6.32.11-12.7-.1-19.02,0-.11,6.31.11,12.68,0,18.99-6.95.12-13.97-.12-20.92,0-.11,6.31.03,12.68,0,18.99-6.32.1-12.7,0-19.02,0,0,6.31,0,12.68,0,18.99-2.64,0-19.02-.95-19.02,0v37.98h38.04c.08-6.31-.11-12.68,0-18.99,6.96-.02,13.96.03,20.92,0-.21,12.63.15,25.36,0,37.99H52.39v-75.97h38.04c0-6.31,0-12.69,0-19,6.32-.07,12.71.12,19.03,0,.11-6.31-.08-12.69,0-19,6.95-.07,13.98.12,20.93,0,.11-6.31-.08-12.69,0-19,6.32-.07,12.71.12,19.03,0,.11-6.31-.08-12.69,0-19,6.32-.07,12.71.12,19.03,0,0-6.32,0-12.68,0-18.99-6.32,0-12.71,0-19.03,0-.04-6.31.07-12.69,0-19-6.32-.11-12.71.08-19.03,0v-19c-6.94-.16-13.96.11-20.91,0v-37.98h77.97c.08,6.31-.11,12.68,0,18.99s-.03,12.68,0,18.99c6.31.11,12.71.11,19.02,0,0-6.31-.11-12.68,0-18.99,6.32,0,12.7.11,19.02,0,.11-6.31-.11-12.68,0-18.99,6.32-.11,12.7.1,19.02,0,.11-6.31-.11-12.68,0-18.99,6.95-.12,13.97.12,20.92,0,.11-6.31-.11-12.68,0-18.99,6.32-.1,12.7.11,19.02,0,.11-6.31-.11-12.68,0-18.99,6.32-.11,12.7.11,19.02,0,.11-6.31-.11-12.68,0-18.99,6.32-.11,12.7.03,19.02,0,.11-6.31-.11-12.68,0-18.99,6.32-.11,12.7.11,19.02,0-.02-6.32.03-12.68,0-18.99,6.32-.11,12.7.11,19.02,0,.11-6.31-.11-12.68,0-18.99,6.32.03,12.7.1,19.02,0,.11-6.31-.11-12.68,0-18.99,6.95-.12,13.97.12,20.92,0,.11-6.31-.11-12.68,0-18.99,6.32-.1,12.7.03,19.02,0,.11-6.31,0-12.68,0-18.99,12.63-.21,25.4-.07,38.04,0Z"/>
      <path class="cls-10" d="M514.53,55.57v94.96c-6.31.07-12.7-.12-19.02,0-.1,6.31.08,12.69,0,19-6.32.07-12.71-.12-19.03,0-.11,6.31.08,12.69,0,19-6.32.07-12.71-.12-19.03,0-.11,6.31.08,12.69,0,19-6.32.07-12.71-.12-19.03,0-.11,6.31.08,12.69,0,19-6.32.07-12.71-.12-19.03,0-.11,6.31.08,12.69,0,19-6.32.07-12.71-.12-19.03,0-.11,6.31.08,12.69,0,19-6.95.07-13.98-.12-20.93,0-.11,6.31.08,12.69,0,19-6.32.07-12.71-.12-19.03,0-.11,6.31.08,12.69,0,19-6.32.07-12.71-.12-19.03,0-.11,6.31.08,12.69,0,19-6.32.07-12.71-.12-19.03,0-.11,6.31.08,12.69,0,19-6.32.07-12.71-.12-19.03,0-.11,6.31.08,12.69,0,19-6.32.07-12.71-.12-19.03,0v18.99c-6.32-.11-12.7.1-19.02,0-.11-6.3-.11-12.69,0-18.99,6.32-.03,12.7.11,19.02,0,0-6.31-.11-12.68,0-18.99,6.32-.11,12.7.11,19.02,0,.11-6.31-.11-12.68,0-18.99,6.32-.11,12.7.11,19.02,0,.11-6.31,0-12.68,0-18.99,6.32-.11,12.7.11,19.02,0,.11-6.31-.11-12.68,0-18.99,6.32,0,12.7.11,19.02,0,.11-6.31-.11-12.68,0-18.99,6.32-.11,12.7.1,19.02,0,.11-6.31-.11-12.68,0-18.99,6.95-.12,13.97.12,20.92,0,.11-6.31-.07-12.68,0-18.99,6.32-.1,12.7.11,19.02,0,.11-6.31,0-12.68,0-18.99,6.32,0,12.7.11,19.02,0,.11-6.31-.11-12.68,0-18.99,6.32-.07,12.7.11,19.02,0,.11-6.31-.11-12.68,0-18.99,6.32-.11,12.7.11,19.02,0,.11-6.31-.03-12.68,0-18.99,6.32-.11,12.7.11,19.02,0,.42-25.28-.32-50.69,0-75.97-6.32-.07-12.71.12-19.03,0v-18.99h38.04Z"/>
      <path class="cls-10" d="M457.47,55.57v18.99c-12.64-.07-25.4-.21-38.04,0,0,6.31.11,12.68,0,18.99-6.32.03-12.7-.1-19.02,0-.11,6.31.11,12.68,0,18.99-6.95.12-13.97-.12-20.92,0-.11,6.31.11,12.68,0,18.99-6.32.1-12.7.03-19.02,0-.11,6.31.11,12.68,0,18.99-6.32.11-12.7-.11-19.02,0,.03,6.32-.02,12.68,0,18.99-6.32.11-12.7-.11-19.02,0-.11,6.31.11,12.68,0,18.99-6.32.03-12.7-.11-19.02,0-.11,6.31.11,12.68,0,18.99-6.32.11-12.7-.11-19.02,0-.11,6.31.11,12.68,0,18.99-6.32.11-12.7-.1-19.02,0-.11,6.31.11,12.68,0,18.99-6.95.12-13.97-.12-20.92,0-.11,6.31.11,12.68,0,18.99-6.32.1-12.7-.11-19.02,0-.11,6.31.11,12.68,0,18.99-6.32.11-12.7,0-19.02,0-.11,6.31,0,12.68,0,18.99-6.31.11-12.71.11-19.02,0-.03-6.31.11-12.68,0-18.99h19.02c.11-6.31-.08-12.69,0-19,6.32-.07,12.71.12,19.03,0,.11-6.31-.08-12.69,0-19,6.32-.07,12.71.12,19.03,0,.11-6.31-.08-12.69,0-19,6.95-.07,13.98.12,20.93,0,.11-6.31-.08-12.69,0-19,6.32-.07,12.71.12,19.03,0,.11-6.31-.08-12.69,0-19,6.32-.07,12.71.12,19.03,0,.11-6.31-.08-12.69,0-19,6.32-.07,12.71.12,19.03,0,.11-6.31-.08-12.69,0-19,6.32-.07,12.71.12,19.03,0-.03-6.31.11-12.68,0-18.99,6.32.11,12.7-.03,19.02,0,.11-6.31-.08-12.69,0-19,6.32-.07,12.71.12,19.03,0,.11-6.31-.08-12.69,0-19,6.95-.07,13.98.12,20.93,0,.11-6.31-.08-12.69,0-19,6.32-.07,12.71.11,19.03,0v-18.99h38.04Z"/>
      <path class="cls-7" d="M476.49,55.57v18.99c-6.32-.11-12.7.03-19.02,0v-18.99h19.02Z"/>
      <rect class="cls-5" x="341.45" y="359.41" width="19.04" height="19.01"/>
      <rect class="cls-7" x="457.46" y="245.47" width="19.04" height="19.01"/>
      <rect class="cls-8" x="187.41" y="226.48" width="19.04" height="19.01"/>
      <rect class="cls-5" x="225.45" y="169.51" width="19.04" height="19.01"/>
      <path class="cls-7" d="M341.46,131.53c-6.32-.11-12.71.08-19.03,0v-19.01s19.04,0,19.04,0c.07,6.31-.12,12.69,0,19Z"/>
      <path class="cls-6" d="M187.42,359.42c6.32.11,12.71-.08,19.03,0,.07,6.31-.12,12.69,0,19s.11,12.7,0,18.99c-6.32.11-12.71-.08-19.03,0-.04,6.31.07,12.69,0,19-6.32.06-12.71-.05-19.03,0-.04,6.31.07,12.69,0,19-6.32.06-12.71-.05-19.03,0-.04,6.31.07,12.69,0,19-6.32.06-12.71-.05-19.03,0-.07,6.31.11,12.69,0,19-6.96.03-13.96-.02-20.92,0,.11-6.31-.03-12.68,0-18.99s-.03-12.68,0-18.99c6.95-.11,13.98.08,20.93,0,.07-6.31-.12-12.69,0-19,6.32-.11,12.71.08,19.03,0,.07-6.31-.12-12.69,0-19,6.32-.11,12.71.08,19.03,0,.07-6.31-.12-12.69,0-19,6.32-.11,12.71.08,19.03,0,.07-6.31-.12-12.69,0-19Z"/>
      <path class="cls-3" d="M90.43,454.38h19.02c-.03,6.31.11,12.68,0,18.99-.11,6.31.08,12.68,0,18.99h-38.04v-37.98c0-.95,16.37,0,19.02,0Z"/>
      <path class="cls-9" d="M187.42,359.42c-.11,6.31.08,12.69,0,19-6.32.07-12.71-.12-19.03,0-.11,6.31.08,12.69,0,19-6.32.07-12.71-.12-19.03,0-.11,6.31.08,12.69,0,19-6.32.07-12.71-.12-19.03,0-.11,6.31.08,12.69,0,19-6.95.07-13.98-.12-20.93,0-.03,6.32.03,12.68,0,18.99h-19.02c0-6.31,0-12.68,0-18.99,6.32,0,12.7.1,19.02,0,.03-6.31-.11-12.68,0-18.99,6.95-.12,13.97.12,20.92,0,.11-6.31-.11-12.68,0-18.99,6.32-.1,12.7.11,19.02,0,.11-6.31-.11-12.68,0-18.99,6.32-.11,12.7.11,19.02,0,.11-6.31,0-12.68,0-18.99,6.3-.11,12.71-.11,19.02,0Z"/>
      <path class="cls-3" d="M130.37,302.45c0-6.31,0-12.68,0-18.99h38.04v19c6.31.07,12.7-.12,19.02,0,.03,6.31,0,12.68,0,18.99h19.02c.11,6.31-.08,12.69,0,19h19.03c0,6.31,0,12.68,0,18.99,6.32.07,12.71-.12,19.03,0v19c6.94.07,13.97-.12,20.92,0,.11,6.31-.08,12.69,0,19h19.03s0,37.97,0,37.97c-6.32.06-12.7-.09-19.02,0-.06-6.31.05-12.69,0-19-6.95-.1-13.98.16-20.93,0-.06-6.31.05-12.69,0-19-6.32-.07-12.71.12-19.03,0-.06-6.31.05-12.69,0-19h-19.03c-.11-6.3.08-12.68,0-18.99-6.32-.07-12.71.12-19.03,0,.11-6.31-.03-12.68,0-18.99s0-12.68,0-18.99c-6.32,0-12.7,0-19.02,0s-12.7.11-19.02,0c-.06-6.31.05-12.69,0-19-6.32-.09-12.71.15-19.03,0Z"/>
      <path class="cls-7" d="M187.42,321.44c0,6.32.03,12.68,0,18.99-6.32,0-12.7,0-19.02,0v-18.99c6.32,0,12.7,0,19.02,0Z"/>
      <path class="cls-2" d="M476.49,112.54c.21,12.62.06,25.36,0,37.98-6.32.11-12.71-.08-19.03,0-.07,6.31.12,12.69,0,19-6.32.11-12.71-.08-19.03,0-.07,6.31.12,12.69,0,19-6.32.07-12.7-.11-19.02,0s-12.71-.08-19.03,0c-.07,6.31.12,12.69,0,19s.07,12.68,0,18.99c-6.95.11-13.98-.08-20.93,0-.07,6.31.12,12.69,0,19-6.32.11-12.71-.08-19.03,0-.07,6.31.12,12.69,0,19-6.32.11-12.71-.08-19.03,0-.07,6.31.12,12.69,0,19-6.32,0-12.7.11-19.02,0-.11-6.31.08-12.69,0-19-6.32,0-12.7,0-19.03,0,0,6.31,0,12.69,0,19,6.32.07,12.71-.12,19.03,0,.11,6.31,0,12.68,0,18.99-6.32.11-12.71-.08-19.03,0-.07,6.31.12,12.69,0,19-6.32.11-12.71-.08-19.03,0-.07,6.31.12,12.69,0,19-6.32.11-12.71-.08-19.03,0-.07,6.31.12,12.69,0,19-6.95.03-13.97.12-20.92,0-6.32-.11-12.71.08-19.03,0,0-6.31,0-12.69,0-19,0-6.31,0-12.69,0-19,6.32-.09,12.71.15,19.03,0,6.95-.15,13.98.11,20.93,0,.04-6.31-.07-12.69,0-19s-.05-12.69,0-19l19.04.02-.02-19.01c6.32,0,12.7,0,19.03,0,0-6.31,0-12.69,0-19,6.32-.04,12.7.07,19.03,0s12.71.05,19.03,0c.07-6.31-.12-12.69,0-19,.11-6.31-.03-12.68,0-18.99h19.03s0-18.99,0-18.99c6.32-.11,12.71.08,19.03,0l-.02-19.01,20.94.02-.02-19.01,19.04.02-.02-19.01c6.32-.04,12.7.07,19.03,0s12.71.05,19.03,0v-19c6.32-.03,12.68.02,19.01,0Z"/>
      <path class="cls-4" d="M419.44,93.55c18.99-.09,38.07.07,57.06,0,.07,6.31-.11,12.69,0,19-6.32.02-12.69-.03-19.02,0s-12.7-.03-19.03,0v19c-6.31.06-12.7-.05-19.02,0l.02,19.01-19.04-.02.02,19.01-20.94-.02.02,19.01c-6.32.07-12.71-.12-19.03,0-6.32.11-12.7-.03-19.02,0-.02,6.32.03,12.68,0,18.99s.11,12.68,0,18.99h-19.03s0,18.99,0,18.99c-6.32.06-12.71-.05-19.03,0,0,6.31,0,12.69,0,19-6.32,0-12.71,0-19.03,0l.02,19.01-19.04-.02c-.04,6.31.07,12.69,0,19h-20.93s0,18.99,0,18.99c-6.32.14-12.71-.1-19.03,0,0,6.31,0,12.69,0,19h-19.03c-.07-6.3.12-12.68,0-18.99s0-12.68,0-18.99c6.32-.11,12.71.08,19.03,0,.07-6.31-.12-12.69,0-19,6.32-.11,12.71.08,19.03,0,.07-6.31-.12-12.69,0-19,6.95-.11,13.98.08,20.93,0,.07-6.31-.12-12.69,0-19,6.32-.11,12.71.08,19.03,0,.07-6.31-.12-12.69,0-19,6.32-.11,12.71.08,19.03,0,.07-6.31-.12-12.69,0-19,6.32-.11,12.71.08,19.03,0,.07-6.31-.12-12.69,0-19,6.32-.03,12.69.03,19.02,0,.02-6.32.02-12.68,0-18.99,6.32-.11,12.71.08,19.03,0,.07-6.31-.12-12.69,0-19,6.32-.11,12.71.08,19.03,0,.07-6.31-.12-12.69,0-19,6.95-.11,13.98.08,20.93,0,.07-6.31-.12-12.69,0-19,6.32-.11,12.71.08,19.03,0,.07-6.31-.12-12.69,0-19Z"/>
      <path class="cls-8" d="M419.44,188.51v18.99h-19.02c.11-6.31-.08-12.69,0-19,6.32-.07,12.71.12,19.03,0Z"/>
      <path class="cls-5" d="M360.48,188.51v19s-19.02,0-19.02,0c.03-6.32-.02-12.68,0-18.99,6.32-.03,12.7.11,19.02,0Z"/>
      <path class="cls-7" d="M341.46,226.49c-.11,6.31.08,12.69,0,19-6.32.04-12.7-.07-19.03,0v-19s19.02,0,19.02,0Z"/>
      <path class="cls-8" d="M303.43,264.47c6.32,0,12.71,0,19.03,0,.07,6.31-.12,12.69,0,19-6.32-.11-12.71.08-19.03,0,0-6.31,0-12.69,0-19Z"/>
      <path class="cls-5" d="M457.47,112.54v19c-6.31.04-12.7-.07-19.02,0v-19c6.31-.02,12.69.04,19.02,0Z"/>
      <path class="cls-5" d="M265.39,302.45c-.06,6.31.05,12.69,0,19-6.95.1-13.98-.16-20.93,0v-19s20.92,0,20.92,0Z"/>
    </g>
  </g>
</svg>