<?xml version="1.0" encoding="UTF-8"?>
<svg id="Layer_1" data-name="Layer 1" xmlns="http://www.w3.org/2000/svg" viewBox="0 0 566.93 566.93">
  <defs>
    <style>
      .cls-1 {
        fill: #010101;
      }

      .cls-2 {
        fill: #faee40;
      }

      .cls-3 {
        fill: #d4e6e9;
      }

      .cls-4 {
        fill: #c67d3a;
      }

      .cls-5 {
        fill: #835e25;
      }

      .cls-6 {
        fill: #fff;
      }
    </style>
  </defs>
  <g id="ThGpzF.tif">
    <g>
      <path class="cls-1" d="M427.07,83.76c-.06,6.32.05,12.71,0,19.03-6.32.04-12.71-.07-19.03,0-.06,6.32.05,12.71,0,19.03-6.32.04-12.71-.07-19.03,0-.06,6.32.05,12.71,0,19.03-6.32.04-12.71-.07-19.03,0-.06,6.32.05,12.71,0,19.03-6.32.04-12.71-.07-19.03,0-.06,6.32.05,12.71,0,19.03-6.32.04-12.71-.07-19.03,0-.06,6.32.05,12.71,0,19.03-6.32.04-12.71-.07-19.03,0-.06,6.32.05,12.71,0,19.03-6.32.04-12.71-.07-19.03,0-.06,6.32.05,12.71,0,19.03-6.32.04-12.71-.07-19.03,0-.06,6.32.05,12.71,0,19.03-6.32.04-12.71-.07-19.03,0-.06,6.32.05,12.71,0,19.03-6.32.04-12.71-.07-19.03,0-.06,6.32.05,12.71,0,19.03-6.32.07-12.71-.12-19.03,0-.11,6.31-.11,12.71,0,19.02h-19.03c-.07-6.31.11-12.7,0-19.02-6.32-.11-12.71.08-19.03,0v-19.03s-38.03,0-38.03,0c0,6.32,0,12.7,0,19.02,6.32.06,12.71-.05,19.03,0,.04,6.32-.07,12.71,0,19.03,6.32.06,12.71-.05,19.03,0,.07,6.32-.12,12.71,0,19.03,6.32.06,12.71-.05,19.03,0,0,6.32,0,12.71,0,19.03-6.31-.11-12.71-.11-19.02,0,0,6.32.11,12.7,0,19.02-6.32.11-12.7-.11-19.02,0-.11,6.32.11,12.7,0,19.02-6.32.11-12.7-.11-19.02,0-.11,6.32.11,12.7,0,19.02-6.32.11-12.7-.11-19.02,0-.11,6.32.03,12.7,0,19.02-6.32.11-12.7-.03-19.02,0,0,6.32,0,12.7,0,19.02-2.64,0-19.02-.95-19.02,0v38.04h38.04c.08-6.32-.11-12.7,0-19.02,6.32,0,12.7,0,19.02,0,.1-6.32-.08-12.71,0-19.03,6.32-.04,12.71.07,19.03,0,.06-6.32-.05-12.71,0-19.03,6.32-.04,12.71.07,19.03,0,.06-6.32-.05-12.71,0-19.03,6.32-.04,12.71.07,19.03,0,.06-6.32-.05-12.71,0-19.03,6.32-.07,12.71.12,19.03,0,.11-6.31.11-12.71,0-19.02h19.03c.04,6.31-.07,12.7,0,19.02,6.32.11,12.71-.08,19.03,0,.04,6.32-.07,12.71,0,19.03,6.32.06,12.71-.05,19.03,0,.04,6.32-.07,12.71,0,19.03,6.32,0,12.7,0,19.02,0v-38.04h-19.03c-.07-6.31.12-12.7,0-19.02-6.32-.1-12.71.08-19.03,0v-19.03c6.32.11,12.72.11,19.03,0,.11-6.32-.08-12.71,0-19.03,6.32-.04,12.71.07,19.03,0,.06-6.32-.05-12.71,0-19.03,6.32-.04,12.71.07,19.03,0,.06-6.32-.05-12.71,0-19.03,6.32-.04,12.71.07,19.03,0,.06-6.32-.05-12.71,0-19.03,6.32-.04,12.71.07,19.03,0,.06-6.32-.05-12.71,0-19.03,6.32-.04,12.71.07,19.03,0,.06-6.32-.05-12.71,0-19.03,6.32-.04,12.71.07,19.03,0,.06-6.32-.05-12.71,0-19.03,6.32-.04,12.71.07,19.03,0,.06-6.32-.05-12.71,0-19.03,6.32-.04,12.71.07,19.03,0,.06-6.32-.05-12.71,0-19.03,6.32-.04,12.71.07,19.03,0,.06-6.32-.05-12.71,0-19.03,6.32-.04,12.71.07,19.03,0,.06-6.32-.05-12.71,0-19.03,6.32-.02,12.71.04,19.03,0-.1,6.32.08,12.71,0,19.03-6.32.04-12.71-.07-19.03,0-.06,6.32.05,12.71,0,19.03-6.32.04-12.71-.07-19.03,0-.06,6.32.05,12.71,0,19.03-6.32.04-12.71-.07-19.03,0-.06,6.32.05,12.71,0,19.03-6.32.04-12.71-.07-19.03,0-.06,6.32.05,12.71,0,19.03-6.32.04-12.71-.07-19.03,0-.06,6.32.05,12.71,0,19.03-6.32.04-12.71-.07-19.03,0-.06,6.32.05,12.71,0,19.03-6.32.04-12.71-.07-19.03,0-.06,6.32.05,12.71,0,19.03-6.32.04-12.71-.07-19.03,0-.06,6.32.05,12.71,0,19.03-6.32.04-12.71-.07-19.03,0-.06,6.32.05,12.71,0,19.03-6.32.04-12.71-.07-19.03,0-.06,6.32.05,12.71,0,19.03-6.32.07-12.71-.12-19.03,0-.11,6.31-.11,12.71,0,19.02,12.65.21,25.39-.15,38.04,0v76.08h-38.04c-.05-6.32.06-12.7,0-19.02h-19.03c-.04-6.31.07-12.7,0-19.02-6.32-.06-12.71.05-19.03,0-.04-6.32.07-12.71,0-19.03-6.31-.11-12.71-.11-19.02,0-.11,6.32.08,12.71,0,19.03-6.32.04-12.71-.07-19.03,0-.06,6.32.05,12.71,0,19.03-6.32.04-12.71-.07-19.03,0-.06,6.32.05,12.71,0,19.03-6.32.04-12.71-.07-19.03,0-.06,6.32.05,12.71,0,19.03-6.32,0-12.71,0-19.03,0-.21,12.65.15,25.39,0,38.04h-76.08l-1.9-70.38v-3.8c12.37-3.46,26.94-1.84,39.94-1.9,0-6.32,0-12.71,0-19.03,6.32-.07,12.71.12,19.03,0,.11-6.32-.08-12.71,0-19.03,6.32-.07,12.71.12,19.03,0,.11-6.32-.08-12.71,0-19.03,6.32-.07,12.71.12,19.03,0,.11-6.32-.08-12.71,0-19.03,6.32-.07,12.71.12,19.03,0,0-6.32.11-12.7,0-19.02-6.32-.06-12.71.05-19.03,0-.04-6.32.07-12.71,0-19.03-6.32-.06-12.71.05-19.03,0v-19.03c-6.31-.06-12.69.05-19.01,0v-38.04h76.08c.15,12.65-.21,25.39,0,38.04,6.31.11,12.71.11,19.02,0,.11-6.32-.08-12.71,0-19.03,6.32-.04,12.71.07,19.03,0,.06-6.32-.05-12.71,0-19.03,6.32-.04,12.71.07,19.03,0,.06-6.32-.05-12.71,0-19.03,6.32-.04,12.71.07,19.03,0,.06-6.32-.05-12.71,0-19.03,6.32-.04,12.71.07,19.03,0,.06-6.32-.05-12.71,0-19.03,6.32-.04,12.71.07,19.03,0,.06-6.32-.05-12.71,0-19.03,6.32-.04,12.71.07,19.03,0,.06-6.32-.05-12.71,0-19.03,6.32-.04,12.71.07,19.03,0,.06-6.32-.05-12.71,0-19.03,6.32-.04,12.71.07,19.03,0,.06-6.32-.05-12.71,0-19.03,6.32-.04,12.71.07,19.03,0,.06-6.32-.05-12.71,0-19.03,6.32-.04,12.71.07,19.03,0,.06-6.32-.05-12.71,0-19.03,6.32-.07,12.71.11,19.03,0Z"/>
      <path class="cls-1" d="M503.15,64.74v76.08c-6.33.02-12.7-.03-19.02,0,.21-12.62.21-25.42,0-38.04-.1-6.32.08-12.71,0-19.03-18.99.25-38.09-.3-57.07,0,.06-6.32-.05-12.71,0-19.03h76.09Z"/>
      <polygon class="cls-6" points="65.68 502.2 63.78 502.2 63.78 431.83 65.68 502.2"/>
      <path class="cls-5" d="M198.82,350.04c6.32.11,12.71-.08,19.03,0,.07,6.32-.12,12.71,0,19.03s.11,12.71,0,19.02c-6.32.11-12.71-.08-19.03,0-.04,6.32.07,12.71,0,19.03-6.32.06-12.71-.05-19.03,0-.04,6.32.07,12.71,0,19.03-6.32.06-12.71-.05-19.03,0-.04,6.32.07,12.71,0,19.03-6.32.06-12.71-.05-19.03,0-.07,6.32.11,12.71,0,19.03-6.32,0-12.7,0-19.02,0,.11-6.32-.03-12.7,0-19.02s-.03-12.7,0-19.02c6.32-.11,12.71.08,19.03,0,.07-6.32-.12-12.71,0-19.03,6.32-.11,12.71.08,19.03,0,.07-6.32-.12-12.71,0-19.03,6.32-.11,12.71.08,19.03,0,.07-6.32-.12-12.71,0-19.03,6.32-.11,12.71.08,19.03,0,0-6.32,0-12.71,0-19.03Z"/>
      <path class="cls-2" d="M103.72,445.14h19.02c-.03,6.32.11,12.7,0,19.02s.08,12.7,0,19.02h-38.04v-38.04c0-.95,16.38,0,19.02,0Z"/>
      <path class="cls-4" d="M198.82,350.04c0,6.32,0,12.71,0,19.03-6.32.07-12.71-.12-19.03,0-.11,6.32.08,12.71,0,19.03-6.32.07-12.71-.12-19.03,0-.11,6.32.08,12.71,0,19.03-6.32.07-12.71-.12-19.03,0-.11,6.32.08,12.71,0,19.03-6.32.07-12.71-.12-19.03,0-.03,6.32.03,12.7,0,19.02h-19.02c0-6.32,0-12.7,0-19.02,6.32-.03,12.7.11,19.02,0,.03-6.32-.11-12.7,0-19.02,6.32-.11,12.7.11,19.02,0,.11-6.32-.11-12.7,0-19.02,6.32-.11,12.7.11,19.02,0,.11-6.32-.11-12.7,0-19.02,6.32-.11,12.7.11,19.02,0,.11-6.32,0-12.7,0-19.02,6.31-.11,12.71-.11,19.02,0Z"/>
      <path class="cls-3" d="M484.13,102.78c.21,12.62.21,25.42,0,38.04-6.32.03-12.71-.03-19.03,0-.04,6.32.07,12.71,0,19.03-6.32.06-12.71-.05-19.03,0-.04,6.32.07,12.71,0,19.03-6.32.06-12.71-.05-19.03,0-.04,6.32.07,12.71,0,19.03-6.32.06-12.71-.05-19.03,0-.04,6.32.07,12.71,0,19.03-6.32.06-12.71-.05-19.03,0-.04,6.32.07,12.71,0,19.03-6.32.06-12.71-.05-19.03,0-.04,6.32.07,12.71,0,19.03-6.32.06-12.71-.05-19.03,0-.04,6.32.07,12.71,0,19.03-6.32.06-12.71-.05-19.03,0-.04,6.32.07,12.71,0,19.03-6.32.06-12.71-.05-19.03,0-.04,6.32.07,12.71,0,19.03-6.32.06-12.71-.05-19.03,0-.04,6.32.07,12.71,0,19.03-6.32.06-12.71-.05-19.03,0-.07,6.32.12,12.71,0,19.03-6.31.11-12.71.11-19.02,0-6.32-.11-12.71.08-19.03,0,0-6.32,0-12.71,0-19.03s0-12.71,0-19.03l19.04.02-.02-19.04,19.04.02-.02-19.04,19.04.02-.02-19.04,19.04.02-.02-19.04,19.04.02-.02-19.04,19.04.02-.02-19.04,19.04.02-.02-19.04,19.04.02-.02-19.04,19.04.02-.02-19.04,19.04.02-.02-19.04,19.04.02-.02-19.04h38.05Z"/>
      <path class="cls-2" d="M141.76,292.98c0-6.32,0-12.7,0-19.02h38.04v19.03c6.31.07,12.7-.12,19.02,0,.1,6.32-.08,12.71,0,19.03h19.03c.11,6.31-.08,12.7,0,19.02h19.03c0,6.31,0,12.7,0,19.02,6.32.07,12.71-.12,19.03,0v19.03c6.31.07,12.7-.11,19.02,0,.11,6.32-.08,12.71,0,19.03h19.03s0,38.03,0,38.03c-6.32,0-12.7,0-19.02,0-.06-6.32.05-12.71,0-19.03-6.32-.04-12.71.07-19.03,0-.06-6.32.05-12.71,0-19.03-6.32-.07-12.71.12-19.03,0-.06-6.32.05-12.71,0-19.03h-19.03c-.11-6.31.08-12.7,0-19.02-6.32-.07-12.71.12-19.03,0,0-6.32,0-12.71,0-19.03-6.32-.04-12.71.07-19.03,0-.11-6.32.08-12.71,0-19.03-6.32-.04-12.71.07-19.03,0-.06-6.32.05-12.71,0-19.03-6.32-.04-12.71.07-19.03,0Z"/>
    </g>
  </g>
  <rect class="cls-6" x="217.84" y="312" width="19.02" height="19.02"/>
  <rect class="cls-6" x="217.84" y="292.97" width="19.02" height="19.02"/>
  <rect class="cls-6" x="236.85" y="292.97" width="19.02" height="19.02"/>
  <rect class="cls-6" x="236.86" y="273.95" width="19.02" height="19.02"/>
  <rect class="cls-6" x="255.87" y="273.95" width="19.02" height="19.02"/>
  <rect class="cls-6" x="255.88" y="254.93" width="19.02" height="19.02"/>
  <rect class="cls-6" x="274.89" y="254.93" width="19.02" height="19.02"/>
  <rect class="cls-6" x="274.89" y="235.92" width="19.02" height="19.02"/>
  <rect class="cls-6" x="293.9" y="235.92" width="19.02" height="19.02"/>
  <rect class="cls-6" x="293.92" y="216.89" width="19.02" height="19.02"/>
  <rect class="cls-6" x="312.93" y="216.89" width="19.02" height="19.02"/>
  <rect class="cls-6" x="312.93" y="197.88" width="19.02" height="19.02"/>
  <rect class="cls-6" x="331.94" y="197.88" width="19.02" height="19.02"/>
  <rect class="cls-6" x="331.95" y="178.86" width="19.02" height="19.02"/>
  <rect class="cls-6" x="350.96" y="178.86" width="19.02" height="19.02"/>
  <rect class="cls-6" x="350.97" y="159.84" width="19.02" height="19.02"/>
  <rect class="cls-6" x="369.98" y="159.84" width="19.02" height="19.02"/>
  <rect class="cls-6" x="370.01" y="140.8" width="19.02" height="19.02"/>
  <rect class="cls-6" x="389.02" y="140.8" width="19.02" height="19.02"/>
  <rect class="cls-6" x="389.02" y="121.79" width="19.02" height="19.02"/>
  <rect class="cls-6" x="408.03" y="121.79" width="19.02" height="19.02"/>
  <rect class="cls-6" x="408.04" y="102.77" width="19.02" height="19.02"/>
  <rect class="cls-6" x="427.06" y="102.77" width="19.02" height="19.02"/>
  <rect class="cls-6" x="427.06" y="83.75" width="19.02" height="19.02"/>
  <rect class="cls-6" x="446.07" y="83.75" width="19.02" height="19.02"/>
  <rect class="cls-6" x="465.1" y="83.75" width="19.02" height="19.02"/>
</svg>