<?xml version="1.0" encoding="UTF-8"?>
<svg id="Layer_1" data-name="Layer 1" xmlns="http://www.w3.org/2000/svg" viewBox="0 0 566.93 566.93">
  <defs>
    <style>
      .cls-1 {
        fill: #cf9051;
      }

      .cls-2 {
        fill: #010101;
      }

      .cls-3 {
        fill: #d6ac82;
      }

      .cls-4 {
        fill: #d2a787;
      }
    </style>
  </defs>
  <g id="uTS6pT.tif">
    <g>
      <path class="cls-2" d="M426.12,83.76c-.11,6.32.11,12.7,0,19.02-6.32,0-12.7-.11-19.02,0-.11,6.32.11,12.7,0,19.02-6.32.11-12.7-.11-19.02,0-.11,6.32.11,12.7,0,19.02-6.32.11-12.7-.11-19.02,0-.11,6.32.11,12.7,0,19.02-6.32.11-12.7-.11-19.02,0-.11,6.32.11,12.7,0,19.02-6.32.11-12.7-.11-19.02,0-.11,6.32.11,12.7,0,19.02-6.32.11-12.7-.11-19.02,0-.11,6.32.11,12.7,0,19.02-6.32.11-12.7-.11-19.02,0-.11,6.32.11,12.7,0,19.02-6.32.11-12.7-.11-19.02,0-.11,6.32.11,12.7,0,19.02-6.32.11-12.7-.11-19.02,0-.11,6.32.11,12.7,0,19.02-6.32.11-12.7-.11-19.02,0-.11,6.32.11,12.7,0,19.02-6.32.11-12.7-.03-19.02,0-.11,6.32.03,12.7,0,19.02-6.32.11-12.7-.03-19.02,0-.03-6.32.11-12.7,0-19.02-6.32.02-12.7.02-19.02,0-.03-6.32.11-12.7,0-19.02-6.31-.11-12.71-.11-19.02,0s-12.71-.08-19.03,0c0,6.32,0,12.71,0,19.03,6.32.11,12.7-.03,19.02,0,0,6.32-.11,12.7,0,19.02,6.32.11,12.7-.03,19.02,0,0,6.32.03,12.7,0,19.02,6.32,0,12.7,0,19.02,0,.02,6.32,0,12.7,0,19.02-6.32.07-12.7-.11-19.02,0-.11,6.32.08,12.71,0,19.03-6.32.04-12.71-.07-19.03,0-.06,6.32.05,12.71,0,19.03-6.32.04-12.71-.07-19.03,0-.06,6.32.05,12.71,0,19.03-6.32.04-12.71-.07-19.03,0-.11,6.32.11,12.7,0,19.02-6.32.02-12.7-.03-19.02,0-.11,6.32.11,12.7,0,19.02-6.32.06-12.71-.05-19.03,0v19.03c.01,6.32,0,12.7,0,19.02h38.04v-19.03c6.31-.04,12.7.07,19.02,0,.1-6.32-.08-12.71,0-19.03,6.32-.04,12.71.07,19.03,0,.11-6.32-.11-12.7,0-19.02,6.32-.03,12.7.11,19.02,0,.11-6.32-.11-12.7,0-19.02,6.32-.11,12.7.11,19.02,0,.11-6.32-.03-12.7,0-19.02,6.32-.11,12.7.03,19.02,0,.11-6.32-.03-12.7,0-19.02,6.32,0,12.7,0,19.02,0,0,6.32,0,12.7,0,19.02,6.32-.02,12.7-.02,19.02,0,.03,6.32-.11,12.7,0,19.02,6.32.06,12.71-.05,19.03,0,.04,6.32-.07,12.71,0,19.03,6.32,0,12.71,0,19.03,0-.17-12.65.2-25.4,0-38.05-6.32-.11-12.7.03-19.02,0v-19.02c-6.32-.11-12.7.03-19.02,0,0-6.33-.03-12.7,0-19.02,6.33-.02,12.7.03,19.02,0,0-6.32-.03-12.7,0-19.02,6.32-.07,12.7.11,19.02,0,.11-6.32-.07-12.7,0-19.02,6.32-.07,12.7.11,19.02,0,.11-6.32-.07-12.7,0-19.02,6.32-.07,12.7.11,19.02,0,.11-6.32-.07-12.7,0-19.02,6.32-.07,12.7.11,19.02,0,.11-6.32-.07-12.7,0-19.02,6.32-.07,12.7.11,19.02,0,.11-6.32-.07-12.7,0-19.02,6.32-.07,12.7.11,19.02,0,.11-6.32-.07-12.7,0-19.02,6.32-.07,12.7.11,19.02,0,.11-6.32,0-12.7,0-19.02,6.32-.07,12.7.11,19.02,0,.11-6.32-.11-12.7,0-19.02,6.32-.07,12.7.11,19.02,0,.11-6.32-.07-12.7,0-19.02,6.32-.11,12.7.11,19.02,0,.11-6.32-.03-12.7,0-19.02h19.02c-.1,6.32.08,12.71,0,19.03-6.32.07-12.71-.12-19.03,0-.11,6.32.08,12.71,0,19.03-6.32.07-12.71-.12-19.03,0-.11,6.32.08,12.71,0,19.03-6.32.07-12.71-.12-19.03,0-.11,6.32.08,12.71,0,19.03-6.32.07-12.71-.12-19.03,0-.11,6.32.08,12.71,0,19.03-6.32.07-12.71-.12-19.03,0-.11,6.32.08,12.71,0,19.03-6.32.07-12.71-.12-19.03,0-.11,6.32.08,12.71,0,19.03-6.32.07-12.71-.12-19.03,0-.11,6.32.08,12.71,0,19.03-6.32.07-12.71-.12-19.03,0-.11,6.32.08,12.71,0,19.03-6.32.07-12.71-.12-19.03,0-.11,6.32.08,12.71,0,19.03-6.32.07-12.71-.12-19.03,0-.11,6.32.08,12.71,0,19.03-6.32.02-12.71-.04-19.03,0,0,6.32,0,12.7,0,19.02,6.32.11,12.71-.08,19.03,0,.07,6.32-.11,12.71,0,19.03,6.32.11,12.7-.08,19.02,0v57.06h-38.04c-.05-6.32.06-12.7,0-19.02-6.32,0-12.71,0-19.03,0-.07-6.32.12-12.71,0-19.03-6.32-.06-12.71.05-19.03,0,0-6.32,0-12.71,0-19.03-6.33.02-12.7-.03-19.02,0-.11,6.32.08,12.71,0,19.03-6.32.07-12.71-.12-19.03,0-.11,6.32.08,12.71,0,19.03-6.32.07-12.71-.12-19.03,0-.11,6.32.08,12.71,0,19.03-6.32.04-12.71-.07-19.03,0-.11,6.32.08,12.71,0,19.03-6.32.04-12.71-.07-19.03,0-.21,12.65.15,25.39,0,38.04h-76.08v-76.09c12.65-.03,25.38.08,38.04,0,.11-6.32-.08-12.71,0-19.03,6.32-.04,12.71.07,19.03,0,.11-6.32-.08-12.71,0-19.03,6.32-.04,12.71.07,19.03,0,.06-6.32-.05-12.71,0-19.03,6.32-.04,12.71.07,19.03,0,.06-6.32-.05-12.71,0-19.03,6.32-.07,12.71.12,19.03,0,.11-6.32-.03-12.7,0-19.02-6.32,0-12.71,0-19.03,0-.07-6.32.12-12.71,0-19.03-6.32-.11-12.71.08-19.03,0,0-6.32,0-12.71,0-19.03-6.32-.11-12.7.08-19.02,0v-38.04h57.06c.08,6.32-.11,12.7,0,19.02,6.32.11,12.71-.08,19.03,0,.07,6.32-.12,12.71,0,19.03,6.32-.02,12.7.03,19.02,0,.11-6.32-.08-12.71,0-19.03,6.32-.07,12.71.12,19.03,0,.11-6.32-.08-12.71,0-19.03,6.32-.07,12.71.12,19.03,0,.11-6.32-.08-12.71,0-19.03,6.32-.07,12.71.12,19.03,0,.11-6.32-.08-12.71,0-19.03,6.32-.07,12.71.12,19.03,0,.11-6.32-.08-12.71,0-19.03,6.32-.07,12.71.12,19.03,0,.11-6.32-.08-12.71,0-19.03,6.32-.07,12.71.12,19.03,0,.11-6.32-.08-12.71,0-19.03,6.32-.07,12.71.12,19.03,0,.11-6.32-.08-12.71,0-19.03,6.32-.07,12.71.12,19.03,0,.11-6.32-.08-12.71,0-19.03,6.32-.07,12.71.12,19.03,0,.11-6.32-.08-12.71,0-19.03,6.32-.07,12.71.12,19.03,0,.11-6.32-.08-12.71,0-19.03,6.32-.07,12.71.11,19.03,0Z"/>
      <path class="cls-2" d="M502.2,64.74v76.08h-19.02c.31-18.99-.24-38.08,0-57.07-6.32-.07-12.71.11-19.03,0-12.62-.21-25.42-.21-38.04,0,.11-6.32-.08-12.71,0-19.03h76.09Z"/>
      <path class="cls-1" d="M216.9,369.06c-.03,6.32.11,12.7,0,19.02-6.32.03-12.7-.11-19.02,0-.03,6.32.11,12.7,0,19.02-6.32.11-12.7-.11-19.02,0-.11,6.32.11,12.7,0,19.02-6.32.11-12.7-.03-19.02,0-.11,6.32.11,12.7,0,19.02-6.32.06-12.71-.05-19.03,0-.07,6.32.11,12.71,0,19.03-6.32.06-12.71-.05-19.03,0v19.03s-38.03,0-38.03,0c0-6.32,0-12.7,0-19.02h19.03c.07-6.31-.12-12.7,0-19.02,6.32-.06,12.71.05,19.03,0,.07-6.32-.12-12.71,0-19.03,12.65-.03,25.39.07,38.04,0,.11-6.32-.08-12.71,0-19.03,6.32-.07,12.71.12,19.03,0,.11-6.32-.08-12.71,0-19.03,6.32-.07,12.71.12,19.03,0,.03-6.32-.02-12.7,0-19.02h19.02Z"/>
      <path class="cls-3" d="M121.8,426.12c-.11,6.32.08,12.71,0,19.03-6.32.04-12.71-.07-19.03,0-.11,6.32.08,12.71,0,19.03h-19.03s0-19.04,0-19.04c6.32-.04,12.71.07,19.03,0,.11-6.32-.11-12.7,0-19.02,6.32-.03,12.7.02,19.02,0Z"/>
      <path class="cls-1" d="M464.16,83.76c6.32.1,12.71-.08,19.03,0-.25,18.99.3,38.09,0,57.07h-19.02c-.03,6.32.11,12.7,0,19.02-6.32.11-12.7-.11-19.02,0-.07,6.32.11,12.7,0,19.02-6.32.11-12.7-.07-19.02,0-.11,6.32.11,12.7,0,19.02-6.32.11-12.7-.07-19.02,0,0,6.32.11,12.7,0,19.02-6.32.11-12.7-.07-19.02,0-.07,6.32.11,12.7,0,19.02-6.32.11-12.7-.07-19.02,0-.07,6.32.11,12.7,0,19.02-6.32.11-12.7-.07-19.02,0-.07,6.32.11,12.7,0,19.02-6.32.11-12.7-.07-19.02,0-.07,6.32.11,12.7,0,19.02-6.32.11-12.7-.07-19.02,0-.07,6.32.11,12.7,0,19.02-6.32.11-12.7-.07-19.02,0-.07,6.32.11,12.7,0,19.02-6.32.11-12.7-.07-19.02,0-.03,6.32,0,12.7,0,19.02-6.33.03-12.7-.02-19.02,0,.03-6.32-.11-12.7,0-19.02,6.32-.11,12.7.07,19.02,0,.03-6.32-.11-12.7,0-19.02,6.32-.11,12.7.07,19.02,0,.07-6.32-.11-12.7,0-19.02,6.32-.11,12.7.07,19.02,0,.07-6.32-.11-12.7,0-19.02,6.32-.11,12.7.07,19.02,0,.07-6.32-.11-12.7,0-19.02,6.32-.11,12.7.07,19.02,0,.07-6.32-.11-12.7,0-19.02,6.32-.11,12.7.07,19.02,0,.07-6.32-.11-12.7,0-19.02,6.32-.11,12.7.07,19.02,0,.07-6.32-.11-12.7,0-19.02,6.32-.11,12.7.07,19.02,0v-19.02c6.32-.11,12.7.07,19.02,0,.11-6.32-.08-12.71,0-19.03,6.32-.07,12.71.12,19.03,0,.07-6.32-.11-12.7,0-19.02h19.02c.03-6.32,0-12.7,0-19.02v-38.04Z"/>
      <path class="cls-3" d="M464.16,83.76v19.02h-38.04c.11-6.32-.11-12.7,0-19.02,12.62-.21,25.42-.21,38.04,0Z"/>
      <path class="cls-1" d="M159.84,273.96v19.02c6.32.03,12.7-.02,19.02,0,.03,6.32,0,12.7,0,19.02,6.32.03,12.7.03,19.02,0,.03,6.32-.02,12.7,0,19.02-6.32,0-12.7,0-19.02,0,.03-6.32,0-12.7,0-19.02-6.32-.03-12.7.11-19.02,0-.11-6.32,0-12.7,0-19.02-6.32-.03-12.7.11-19.02,0,0-6.32,0-12.71,0-19.03,6.32-.07,12.71.12,19.03,0Z"/>
      <path class="cls-3" d="M178.86,273.96c.11,6.32-.03,12.7,0,19.02,6.32.02,12.7.02,19.02,0,.11,6.32-.03,12.7,0,19.02-6.32.03-12.7.03-19.02,0,0-6.32.03-12.7,0-19.02-6.32-.02-12.7.03-19.02,0v-19.02c6.31-.11,12.71-.11,19.02,0Z"/>
      <path class="cls-3" d="M426.12,102.78c-.11,6.32.08,12.71,0,19.03-6.32.07-12.71-.12-19.03,0-.11,6.32.08,12.71,0,19.03-6.32.07-12.71-.12-19.03,0-.11,6.32.08,12.71,0,19.03-6.32.07-12.71-.12-19.03,0-.11,6.32.08,12.71,0,19.03-6.32.07-12.71-.12-19.03,0-.11,6.32.08,12.71,0,19.03-6.32.07-12.71-.12-19.03,0-.11,6.32.08,12.71,0,19.03-6.32.07-12.71-.12-19.03,0-.11,6.32.08,12.71,0,19.03-6.32.07-12.71-.12-19.03,0-.11,6.32.08,12.71,0,19.03-6.32.07-12.71-.12-19.03,0-.11,6.32.08,12.71,0,19.03-6.32.07-12.71-.12-19.03,0-.11,6.32.08,12.71,0,19.03-6.32.07-12.71-.12-19.03,0-.11,6.32.08,12.71,0,19.03-6.32.07-12.71-.12-19.03,0,.03-6.32-.11-12.7,0-19.02,6.32-.03,12.7.11,19.02,0,.11-6.32-.11-12.7,0-19.02,6.32-.11,12.7.11,19.02,0,.11-6.32-.11-12.7,0-19.02,6.32-.11,12.7.11,19.02,0,.11-6.32-.11-12.7,0-19.02,6.32-.11,12.7.11,19.02,0,.11-6.32-.11-12.7,0-19.02,6.32-.11,12.7.11,19.02,0,.11-6.32-.11-12.7,0-19.02,6.32-.11,12.7.11,19.02,0,.11-6.32-.11-12.7,0-19.02,6.32-.11,12.7.11,19.02,0,.11-6.32-.11-12.7,0-19.02,6.32-.11,12.7.11,19.02,0,.11-6.32-.11-12.7,0-19.02,6.32-.11,12.7.11,19.02,0,.11-6.32-.11-12.7,0-19.02,6.32-.11,12.7.11,19.02,0,.11-6.32-.11-12.7,0-19.02,6.32-.11,12.7,0,19.02,0Z"/>
      <path class="cls-3" d="M216.9,312c-.07,12.65.03,25.39,0,38.04-6.32.11-12.7-.07-19.02,0,0-6.32.02-12.7,0-19.02s.03-12.7,0-19.02c6.32-.03,12.7.11,19.02,0Z"/>
      <path class="cls-3" d="M197.88,350.04c0,6.32.02,12.7,0,19.02s.03,12.7,0,19.02c-6.32.11-12.71-.08-19.03,0-.07,6.32.12,12.71,0,19.03-6.32.11-12.71-.08-19.03,0-.07,6.32.12,12.71,0,19.03-12.65.07-25.39-.03-38.04,0,.11-6.32-.11-12.7,0-19.02,6.32-.06,12.71.05,19.03,0,.04-6.32-.07-12.71,0-19.03,6.32-.06,12.71.05,19.03,0,.04-6.32-.07-12.71,0-19.03,6.32-.06,12.71.05,19.03,0,.07-6.32-.12-12.71,0-19.03,6.32-.11,12.7.07,19.02,0Z"/>
      <path class="cls-1" d="M254.94,369.06c0,6.33-.03,12.7,0,19.02,6.33.02,12.7-.03,19.02,0s12.7-.11,19.02,0c.21,12.65-.16,25.4,0,38.05-6.32,0-12.71,0-19.03,0-.06-6.32.05-12.71,0-19.03-6.32-.04-12.71.07-19.03,0-.11-6.32.03-12.7,0-19.02-6.32-.02-12.7-.02-19.02,0,0-6.32,0-12.7,0-19.02,6.33,0,12.7-.03,19.02,0Z"/>
      <path class="cls-3" d="M254.94,331.02c-.11,6.32.03,12.7,0,19.02s0,12.7,0,19.02c-6.32-.03-12.7,0-19.02,0-6.32,0-12.7,0-19.02,0,.03-6.33-.02-12.7,0-19.02,6.32-.11,12.71.08,19.03,0l-.02-19.04c6.32-.07,12.71.12,19.03,0Z"/>
      <path class="cls-3" d="M273.96,369.06v19.02c-6.32-.03-12.7.02-19.02,0-.03-6.32,0-12.7,0-19.02,6.32.03,12.7-.11,19.02,0Z"/>
      <path class="cls-4" d="M464.16,102.78v19.02h-19.03c-.07,6.31.12,12.7,0,19.02-.11,6.32.07,12.7,0,19.02-6.32.11-12.71-.08-19.03,0-.07,6.32.12,12.71,0,19.03-6.32.07-12.7-.11-19.02,0-6.32.11-12.71-.08-19.03,0-.07,6.32.12,12.71,0,19.03-6.32.11-12.71-.08-19.03,0-.07,6.32.12,12.71,0,19.03-6.32.11-12.71-.08-19.03,0-.07,6.32.12,12.71,0,19.03-6.32.11-12.71-.08-19.03,0-.07,6.32.12,12.71,0,19.03-6.32.11-12.71-.08-19.03,0-.07,6.32.12,12.71,0,19.03-6.32.11-12.71-.08-19.03,0-.07,6.32.12,12.71,0,19.03-6.32.11-12.71-.08-19.03,0-.07,6.32.12,12.71,0,19.03-6.32.11-12.71-.08-19.03,0-.07,6.32.12,12.71,0,19.03-6.32.11-12.71-.08-19.03,0l.02,19.04c-6.32.07-12.71-.12-19.03,0,.03-12.65-.07-25.39,0-38.04,6.32-.11,12.71.08,19.03,0,.07-6.32-.12-12.71,0-19.03,6.32-.11,12.71.08,19.03,0,.07-6.32-.12-12.71,0-19.03,6.32-.11,12.71.08,19.03,0,.07-6.32-.12-12.71,0-19.03,6.32-.11,12.71.08,19.03,0,.07-6.32-.12-12.71,0-19.03,6.32-.11,12.71.08,19.03,0,.07-6.32-.12-12.71,0-19.03,6.32-.11,12.71.08,19.03,0,.07-6.32-.12-12.71,0-19.03,6.32-.11,12.71.08,19.03,0,.07-6.32-.12-12.71,0-19.03,6.32-.11,12.71.08,19.03,0,.07-6.32-.12-12.71,0-19.03,6.32-.11,12.71.08,19.03,0,.07-6.32-.12-12.71,0-19.03,6.32-.11,12.71.08,19.03,0,.07-6.32-.12-12.71,0-19.03,6.32-.11,12.71.08,19.03,0,.07-6.32-.12-12.71,0-19.03h38.04Z"/>
      <path class="cls-3" d="M464.16,121.8c0,6.33.03,12.7,0,19.02h-19.02c.11-6.32-.08-12.71,0-19.03h19.03Z"/>
      <path class="cls-4" d="M216.9,350.04c-.02,6.33.03,12.7,0,19.02h-19.02c.02-6.32,0-12.7,0-19.02,6.32-.07,12.7.11,19.02,0Z"/>
      <path class="cls-3" d="M407.1,178.86v19.02c-6.32.07-12.7-.11-19.02,0,.11-6.32-.08-12.71,0-19.03,6.32-.07,12.71.12,19.03,0Z"/>
      <path class="cls-3" d="M388.08,197.88c-.11,6.32.07,12.7,0,19.02-6.32.07-12.7-.11-19.02,0-.11,6.32.07,12.7,0,19.02-6.32.07-12.7-.11-19.02,0-.11,6.32.07,12.7,0,19.02-6.32.07-12.7-.11-19.02,0-.11,6.32.07,12.7,0,19.02-6.32.07-12.7-.11-19.02,0-.11,6.32.07,12.7,0,19.02-6.32.07-12.7-.11-19.02,0-.11,6.32.07,12.7,0,19.02-6.32.07-12.7-.11-19.02,0-.11,6.32.03,12.7,0,19.02-6.32.07-12.7-.11-19.02,0,.11-6.32-.08-12.71,0-19.03,6.32-.07,12.71.12,19.03,0,.11-6.32-.08-12.71,0-19.03,6.32-.07,12.71.12,19.03,0,.11-6.32-.08-12.71,0-19.03,6.32-.07,12.71.12,19.03,0,.11-6.32-.08-12.71,0-19.03,6.32-.07,12.71.12,19.03,0,.11-6.32-.08-12.71,0-19.03,6.32-.07,12.71.12,19.03,0,.11-6.32-.08-12.71,0-19.03,6.32-.07,12.71.12,19.03,0,.11-6.32-.08-12.71,0-19.03,6.32-.07,12.71.12,19.03,0Z"/>
    </g>
  </g>
</svg>