<?xml version="1.0" encoding="UTF-8"?>
<svg id="Layer_1" data-name="Layer 1" xmlns="http://www.w3.org/2000/svg" viewBox="0 0 566.93 566.93">
  <defs>
    <style>
      .cls-1 {
        fill: #010101;
      }

      .cls-2 {
        fill: #ef696b;
      }

      .cls-3 {
        fill: #a7deec;
      }

      .cls-4 {
        fill: #e53336;
      }

      .cls-5 {
        fill: #fff;
      }

      .cls-6 {
        fill: #d89d45;
      }
    </style>
  </defs>
  <g id="_5ZzEyO.tif" data-name="5ZzEyO.tif">
    <g>
      <path class="cls-5" d="M306.34,130.45v43.72c-7.24.13-14.55-.09-21.79,0v87.44c7.24.09,14.55-.13,21.79,0,.12,7.26-.09,14.61-.01,21.87,7.24.08,14.56-.14,21.8-.01.04,7.27-.13,14.6,0,21.86,7.24.02,14.54-.04,21.79,0,.04,7.27.04,14.59,0,21.86,7.24.13,14.55-.01,21.79,0,.04,7.27-.02,14.59,0,21.86h21.79c.11,21.82.11,43.76,0,65.58-7.24.03-14.54-.04-21.79,0-.02,7.27.04,14.59,0,21.86-7.24.01-14.55-.13-21.79,0-.13,7.26.08,14.59,0,21.86-7.24.04-14.54-.02-21.79,0,0,7.27,0,14.59,0,21.86-29.01.14-58.14.14-87.15,0-.03-7.27.04-14.59,0-21.86-7.24-.02-14.54.04-21.79,0-.08-7.27.13-14.59,0-21.86-7.24-.13-14.54.07-21.79,0-.04-7.27.02-14.59,0-21.86h21.8c.08,7.25-.14,14.6-.01,21.86,7.24.13,14.56-.1,21.8-.01.02,7.27-.05,14.6-.01,21.87,29.01.07,58.13.07,87.15,0,0-7.27,0-14.6-.01-21.87,7.24-.08,14.56.14,21.8.01.13-7.26-.09-14.61-.01-21.87,7.24-.02,14.55.05,21.8.01.05-21.83.05-43.75,0-65.58h-21.79c.13-7.26-.04-14.59,0-21.86-7.24-.13-14.56.1-21.8.01-.08-7.26.14-14.61.01-21.87-29.01-.07-58.13-.07-87.15,0-.13,7.26.09,14.61.01,21.87-7.24.08-14.56-.14-21.8-.01-.13,7.26.09,14.61.01,21.87h-21.8c.02-7.28-.04-14.6,0-21.87,7.24-.06,14.55.13,21.79,0,.13-7.27-.08-14.59,0-21.86,7.24-.04,14.54.02,21.79,0,.13-7.26-.04-14.59,0-21.86,7.24-.13,14.56.1,21.8.01.08-7.26-.13-14.61-.01-21.87.48-29.1-.36-58.34.01-87.45-7.24-.04-14.56.08-21.8.01.05-14.54-.08-29.18,0-43.72,21.72-.36,43.63-.11,65.36,0Z"/>
      <path class="cls-1" d="M240.98,130.45c-.08,14.54.05,29.18,0,43.72-7.24-.07-14.55.05-21.79,0v-43.72c7.24-.09,14.55.12,21.79,0Z"/>
      <path class="cls-1" d="M306.34,64.87v21.86c-14.45-.24-29.12-.24-43.57,0,.04,7.26-.03,14.6,0,21.86h43.57c1.09,0,0-18.82,0-21.86,7.24.12,14.56-.09,21.8-.01.04,14.55-.09,29.18-.01,43.73,7.24.13,14.55-.09,21.79,0v43.72c-7.24.09-14.55-.13-21.79,0,.1,29.11-.07,58.33,0,87.44,7.24.13,14.56-.1,21.8-.01.08,7.26-.14,14.61-.01,21.87,7.24.13,14.56-.1,21.8-.01.08,7.26-.14,14.61-.01,21.87,7.24.13,14.56-.1,21.8-.01.08,7.26-.14,14.61-.01,21.87-7.25,0-14.54.01-21.79,0-.04-7.27.13-14.6,0-21.86-7.24-.13-14.55.04-21.79,0-.04-7.27.13-14.6,0-21.86-7.24-.13-14.55.13-21.79,0-.04-7.27.02-14.59,0-21.86-7.24-.13-14.55.13-21.79,0-.48-29.08,0-58.35,0-87.44,7.24-.13,14.55.13,21.79,0-.05-14.54.08-29.18,0-43.72-7.24-.13-14.55.04-21.79,0-21.73-.11-43.64-.36-65.36,0,.08-14.54-.05-29.18-.01-43.73,7.24-.08,14.56.13,21.8.01-.04-7.27.03-14.59,0-21.86h43.57Z"/>
      <path class="cls-1" d="M240.98,174.17c7.24.07,14.56-.06,21.8-.01-.37,29.1.47,58.35-.01,87.45-7.25.03-14.54-.04-21.79,0-.02,7.27.04,14.59,0,21.86-7.24.13-14.55-.13-21.79,0-.13,7.27.08,14.59,0,21.86-7.24.04-14.55-.13-21.79,0-.13,7.26.04,14.59,0,21.86-7.24.06-14.55-.14-21.79,0-.59,36.28-.59,73.02,0,109.3,7.24.09,14.54-.07,21.79,0,.04,7.27-.13,14.6,0,21.86,7.24.13,14.55-.04,21.79,0,.08,7.27-.13,14.59,0,21.86,7.24.13,14.55-.04,21.79,0,29.01.14,58.14.14,87.15,0,7.24-.04,14.55.13,21.79,0,.13-7.26-.08-14.59,0-21.86,7.24-.04,14.55.13,21.79,0,.13-7.26-.04-14.59,0-21.86,7.25-.01,14.54,0,21.79,0-.13,7.26.09,14.61.01,21.87-7.24.08-14.56-.14-21.8-.01-.13,7.26.09,14.61.01,21.87-7.24.08-14.56-.14-21.8-.01-.13,7.26.09,14.6,0,21.86h-130.72c-.09-7.26.13-14.6,0-21.86-7.24-.13-14.56.1-21.8.01-.08-7.26.14-14.61.01-21.87-7.24-.13-14.56.1-21.8.01-.08-7.26.13-14.61.01-21.87-7.95-.09-23.97.13-23.97.13v-109.42s15.97.15,23.97,0c.12-7.26-.09-14.61-.01-21.87,7.24-.08,14.56.14,21.8.01.13-7.26-.09-14.61-.01-21.87,7.24-.08,14.56.14,21.8.01.13-7.26-.09-14.61-.01-21.87,7.24-.02,14.55.05,21.8.01.07-29.11-.1-58.33,0-87.44Z"/>
      <path class="cls-1" d="M415.28,327.18v109.3h-21.79c.13-7.26-.04-14.59,0-21.86.11-21.82.11-43.76,0-65.58-.04-7.27.13-14.6,0-21.86h21.79Z"/>
      <path class="cls-3" d="M262.77,261.61c-.12,7.26.09,14.61.01,21.87-7.24.08-14.56-.14-21.8-.01-.04,7.27.13,14.6,0,21.86-7.24.02-14.54-.04-21.79,0-.08,7.27.13,14.59,0,21.86-7.24.13-14.54-.06-21.79,0-.04,7.27.02,14.59,0,21.86-.04,14.54-.05,29.18,0,43.72.02,7.27-.02,14.59,0,21.86.02,7.27-.04,14.59,0,21.86,7.24.07,14.55-.13,21.79,0,.13,7.26-.08,14.59,0,21.86,7.24.04,14.54-.02,21.79,0,.04,7.27-.03,14.59,0,21.86-7.24-.04-14.55.13-21.79,0-.13-7.26.08-14.59,0-21.86-7.24-.04-14.55.13-21.79,0-.13-7.26.04-14.59,0-21.86-7.24-.07-14.54.09-21.79,0-.59-36.28-.59-73.02,0-109.3,7.24-.14,14.55.06,21.79,0,.04-7.27-.13-14.6,0-21.86,7.24-.13,14.55.04,21.79,0,.08-7.27-.13-14.59,0-21.86,7.24-.13,14.55.13,21.79,0,.04-7.27-.02-14.59,0-21.86,7.25-.04,14.54.03,21.79,0Z"/>
      <path class="cls-3" d="M328.13,130.45c.08,14.54-.05,29.18,0,43.72-7.24.13-14.55-.13-21.79,0,0,29.09-.48,58.36,0,87.44,7.24.13,14.55-.13,21.79,0,.02,7.27-.04,14.59,0,21.86,7.24.13,14.55-.13,21.79,0,.13,7.26-.04,14.59,0,21.86,7.24.04,14.55-.13,21.79,0,.13,7.26-.04,14.59,0,21.86,7.25.01,14.54,0,21.79,0,.13,7.26-.04,14.59,0,21.86h-21.79c-.02-7.27.04-14.59,0-21.86-7.24-.01-14.55.13-21.79,0,.04-7.27.04-14.59,0-21.86-7.24-.04-14.54.02-21.79,0-.13-7.26.04-14.59,0-21.86-7.24-.13-14.56.1-21.8.01-.08-7.26.13-14.61.01-21.87-7.24-.13-14.55.09-21.79,0v-87.44c7.24-.09,14.55.13,21.79,0v-43.72c7.24.04,14.55-.13,21.79,0Z"/>
      <path class="cls-3" d="M393.49,414.62c-.04,7.27.13,14.6,0,21.86-7.25,0-14.54-.01-21.79,0-.04,7.27.13,14.6,0,21.86-7.24.13-14.55-.04-21.79,0-.08,7.27.13,14.59,0,21.86-7.24.13-14.55-.04-21.79,0,0-7.27,0-14.59,0-21.86,7.24-.02,14.54.04,21.79,0,.08-7.27-.13-14.59,0-21.86,7.24-.13,14.55.01,21.79,0,.04-7.27-.02-14.59,0-21.86,7.24-.04,14.54.03,21.79,0Z"/>
      <path class="cls-6" d="M306.34,86.73c0,3.04,1.09,21.86,0,21.86h-43.57c-.03-7.26.04-14.59,0-21.86,14.45-.24,29.12-.24,43.57,0Z"/>
      <path class="cls-4" d="M371.7,349.04c.05,21.83.05,43.75,0,65.58-7.24.04-14.56-.03-21.8-.01-.08,7.26.14,14.61.01,21.87-7.24.13-14.56-.1-21.8-.01,0,7.27,0,14.6.01,21.87-29.01.07-58.13.07-87.15,0-.04-7.27.03-14.6.01-21.87-7.24-.08-14.56.14-21.8.01-.13-7.26.09-14.61.01-21.87h-21.8c-.02-7.26.02-14.58,0-21.85h43.59c.04-7.25-.08-14.59-.01-21.86h21.79c29.02,0,58.14,0,87.16.01.08-7.26-.14-14.61-.01-21.87h21.79Z"/>
      <path class="cls-2" d="M328.13,305.32c.13,7.26-.09,14.61-.01,21.87,7.24.08,14.56-.14,21.8-.01-.04,7.27.13,14.6,0,21.86-.13,7.26.09,14.61.01,21.87-29.02-.02-58.14-.01-87.16-.01,0-7.27,0-14.59,0-21.86,7.24-.07,14.56.05,21.8.01v-21.88s-21.81,0-21.81,0c.01,7.27,0,14.6.01,21.87-7.24.07-14.56-.05-21.8-.01-.04,7.27.08,14.6.01,21.87-.07,7.27.05,14.6.01,21.87h-43.59c-.05-14.55-.04-29.19,0-43.73h21.8c.08-7.25-.14-14.59-.01-21.86,7.24-.13,14.56.1,21.8.01.08-7.26-.14-14.61-.01-21.87,29.01-.07,58.13-.07,87.15,0Z"/>
      <path class="cls-5" d="M262.77,349.04c0-7.27,0-14.6-.01-21.87h21.81s0,21.88,0,21.88c-7.24.04-14.55-.08-21.8-.01,0,7.27,0,14.59,0,21.86h-21.79c.07-7.27-.05-14.6-.01-21.87,7.24-.04,14.55.08,21.8.01Z"/>
    </g>
  </g>
</svg>