<?xml version="1.0" encoding="UTF-8"?>
<svg id="Layer_1" data-name="Layer 1" xmlns="http://www.w3.org/2000/svg" viewBox="0 0 566.93 566.93">
  <defs>
    <style>
      .cls-1 {
        fill: #b8c692;
      }

      .cls-2 {
        fill: #010101;
      }

      .cls-3 {
        fill: #7e8b59;
      }

      .cls-4 {
        fill: #989798;
      }

      .cls-5 {
        fill: #8f6226;
      }

      .cls-6 {
        fill: #616f3a;
      }

      .cls-7 {
        fill: #7b6c2b;
      }

      .cls-8 {
        fill: #b4c8c8;
      }

      .cls-9 {
        fill: #ece82f;
      }

      .cls-10 {
        fill: #a3dbde;
      }
    </style>
  </defs>
  <g id="OW9z1S.tif">
    <g>
      <path class="cls-2" d="M513.6,380.84v88.53h-17.7c.39-23.56-.05-47.26,0-70.82.01-5.89,0-11.82,0-17.71h17.7Z"/>
      <path class="cls-2" d="M318.87,44.44v17.71c11.78.06,23.64-.04,35.42,0,.07,5.88-.11,11.83,0,17.71,5.88.1,11.83-.07,17.71,0,.07,5.88-.11,11.83,0,17.71,5.88.11,11.82-.08,17.7,0v35.41h35.41c.08,5.88-.11,11.83,0,17.71,3.1.05,17.45-.86,17.73,1.02l-.02,16.7c-5.88.07-11.83-.11-17.71,0-.05,11.78.03,23.64,0,35.42-5.88.07-11.83-.11-17.71,0,.07,11.78-.05,23.63,0,35.41h70.81c.08,5.88-.11,11.82,0,17.71,5.88.1,11.83-.07,17.71,0,.07,5.88-.11,11.83,0,17.71-5.88,0-11.82,0-17.7,0-.1-5.88.11-11.82,0-17.71-23.56-.39-47.25.12-70.81,0-5.88-.03-11.82.11-17.7,0,.21-17.67-.29-35.45,0-53.12,5.88-.11,11.82.1,17.7,0-.04-5.89,0-11.82,0-17.71v-17.71c5.88-.03,11.82.1,17.7,0,.02-5.88.11-11.83,0-17.71-11.78-.18-23.64.14-35.42,0v17.71c-5.88.01-11.81-.02-17.69,0-.1,5.88.08,11.83,0,17.71-5.88.07-11.83-.11-17.71,0s-11.82,0-17.7,0v17.71c-5.89,0-11.83,0-17.71,0,0-5.89,0-11.83,0-17.71h17.7c0-5.88-.1-11.82,0-17.71,11.77-.19,23.63.03,35.41,0,.1-5.88-.03-11.82,0-17.71.06-11.78.06-23.64,0-35.41-.03-5.89.1-11.82,0-17.71-5.88-.11-11.82.04-17.7,0-.1-5.88.1-11.82,0-17.71-11.77-.19-23.63.03-35.41,0-.1-5.88,0-11.82,0-17.71-29.47-.15-59.05-.15-88.51,0,0,5.88.1,11.82,0,17.71-11.77.03-23.64-.2-35.41,0-.1,5.88.03,11.82,0,17.71-.09,17.68.07,35.44,0,53.13l17.72-.02v17.72c-11.78.03-23.64-.07-35.42,0v-17.71c-17.66.23-35.44-.28-53.11,0-.11,5.87-.1,11.84,0,17.71,5.88.1,11.82-.03,17.7,0,.02,5.89-.03,11.82,0,17.71,5.88.1,11.82-.1,17.7,0,0,5.88-.1,11.82,0,17.71,5.88.1,11.82-.1,17.7,0,.1,5.87.11,11.84,0,17.71,5.88.1,11.82-.1,17.7,0s11.83-.08,17.71,0l.02,16.69-17.74,1.01c-.02,17.68.05,35.44,0,53.13-5.88,0-11.82,0-17.7,0-.1,5.88.08,11.83,0,17.71-5.88.03-11.83-.07-17.71,0-.1,5.88.1,11.82,0,17.71-5.87-.11-11.83-.1-17.7,0-.1,5.88.1,11.82,0,17.71-5.88.1-11.82-.03-17.7,0,.1-5.88-.08-11.83,0-17.71,5.88-.07,11.83.11,17.71,0,.1-5.88-.08-11.83,0-17.71,5.88-.03,11.83.07,17.71,0,.1-5.88-.08-11.83,0-17.71,5.88,0,11.83,0,17.71,0,.1-5.87.1-11.84,0-17.71s.08-11.83,0-17.71c-23.57.3-47.25-.38-70.82,0-.11,5.88.1,11.82,0,17.71-5.88.03-11.82-.1-17.7,0-.1,5.88.1,11.82,0,17.71-5.88.1-11.82-.11-17.7,0-.1,5.88-.03,11.82,0,17.71.05,11.78-.03,23.64,0,35.42,17.68-.08,35.44.08,53.12,0-.1,5.87-.1,11.84,0,17.71-11.77.19-23.64-.14-35.42,0v17.71c-5.86-.1-11.82-.11-17.69,0,.39,23.57-.39,47.25,0,70.82,5.89.06,11.83-.04,17.71,0,.03,5.88-.07,11.83,0,17.71,5.88.1,11.82.03,17.7,0-.1,5.87-.11,11.84,0,17.71,17.67.29,35.45-.22,53.12,0,0-11.78-.03-23.64,0-35.42,3.1-.05,17.45.86,17.73-1.02l-.02-16.7c-5.88,0-11.83,0-17.71,0v-17.71c11.77.19,23.64-.15,35.42,0,.07-35.39-.12-70.86,0-106.24h17.7v53.12h159.33v-17.71s-17.71.02-17.71.02v-17.72s17.72.02,17.72.02l-.02-17.72h17.71v53.13c0,11.78-.03,23.63,0,35.41.05,17.68-.03,35.44,0,53.13,5.88.04,11.83-.07,17.71,0s11.82-.04,17.7,0v35.41c5.88.07,11.82-.1,17.7,0,11.74.2,23.66.19,35.41,0,0-5.89,0-11.82,0-17.71,5.88.1,11.82,0,17.7,0-.1,5.88.07,11.83,0,17.71-5.88.06-11.83-.11-17.71,0,0,5.89,0,11.83,0,17.71h-88.52c.06-5.89-.04-11.84,0-17.72l17.72.02v-17.72s-35.42,0-35.42,0c.19-11.77-.14-23.64,0-35.41h-177.03c.14,11.77-.19,23.64,0,35.41h-17.7v35.41h106.22c.07-5.88-.1-11.82,0-17.71.07-4.03-.83-35.16,1.02-35.44l16.69.02c.13,11.78-.2,23.65,0,35.42.1,5.88-.07,11.83,0,17.71,29.48-.02,59.04,0,88.52,0-.06,5.88.04,11.82,0,17.71h-230.14v-17.71h-53.11c-.08-5.88.11-11.83,0-17.71-5.88-.1-11.83.07-17.71,0-.03-5.88.07-11.83,0-17.71-5.88-.1-11.83.08-17.71,0-.06-5.88.11-11.83,0-17.71-5.88-.06-11.82.04-17.7,0v-70.82c5.88-.08,11.82.11,17.7,0-.1-5.88.07-11.83,0-17.71h-17.71s0-70.81,0-70.81c5.88-.08,11.82.11,17.7,0,.1-5.88-.08-11.83,0-17.71,5.88-.07,11.83.11,17.71,0,.1-5.88-.08-11.83,0-17.71,5.88-.06,11.83.11,17.71,0,.11-5.88-.08-11.83,0-17.71h70.81c.08-5.88-.11-11.83,0-17.71-5.88-.1-11.83.08-17.71,0-.07-5.88.11-11.83,0-17.71-5.88-.1-11.83.08-17.71,0-.02-5.89.04-11.83,0-17.71-5.88-.1-11.83.08-17.71,0-.07-5.88.11-11.83,0-17.71-3.1-.05-17.45.86-17.73-1.02l.02-16.7c5.88-.06,11.83.11,17.71,0,.11-5.88-.08-11.83,0-17.71h53.11v-53.12c5.88-.07,11.82.1,17.7,0,.1-5.88-.08-11.83,0-17.71,11.78-.03,23.64.07,35.42,0v-17.71h88.51ZM248.06,380.84h-35.41v35.41h35.41v-35.41ZM318.87,380.84h-53.11v35.41h53.11v-35.41ZM371.98,380.84h-35.41v35.41h35.41v-35.41Z"/>
      <path class="cls-2" d="M513.6,274.61v88.53h-17.7c-.04-23.58.12-47.24,0-70.82-.03-5.89.1-11.82,0-17.71h17.7Z"/>
      <path class="cls-3" d="M318.87,79.85c.1,5.88-.08,11.83,0,17.71,11.78.05,23.64-.09,35.42,0,.1,5.88-.08,11.83,0,17.71h17.71c.06,11.77.06,23.63,0,35.4h-35.42c-.07,5.87.11,11.82,0,17.71-5.88.1-11.83-.07-17.71,0,0,5.89,0,11.83,0,17.71,0,5.89,0,11.83,0,17.71,5.89,0,11.83,0,17.71,0s11.83,0,17.71,0v-17.71c5.87-.1,11.82.08,17.7,0,.07-5.88-.11-11.83,0-17.71,5.89-.02,11.82.01,17.7,0s11.82.03,17.7,0v17.71h-17.71c-.06,5.87.11,11.82,0,17.71-5.88.11-11.82-.08-17.7,0v53.12c5.88.08,11.82-.11,17.7,0s11.82-.03,17.7,0v17.71s70.81,0,70.81,0c.1,5.88-.08,11.83,0,17.71h17.71c.12,23.57-.04,47.23,0,70.81-5.89,0-11.82,0-17.7,0-11.78.02-23.63,0-35.42,0-.07,5.88.11,11.83,0,17.71s.11,11.82,0,17.71h53.11c-.05,23.57.39,47.26,0,70.82-5.88,0-11.82.1-17.7,0s-11.83.08-17.71,0l.02-17.72h-17.72s0,35.42,0,35.42c-5.88-.1-11.82.07-17.7,0v-35.41c-5.88-.04-11.82.06-17.7,0v-35.41h35.41c.08-5.88-.11-11.82,0-17.71h-53.11c-.03-11.78,0-23.63,0-35.41h17.7v-53.12c-5.88,0-11.82,0-17.7,0h-17.71s.02,17.71.02,17.71l-17.72-.02v17.72l17.72-.02v17.71h-159.34v-53.12h-17.7c.02-5.89-.02-11.82,0-17.71.05-17.68-.03-35.44,0-53.13l17.74-1.01-.02-16.69c-5.88-.07-11.83.11-17.71,0v-17.71c-5.87-.07-11.82.11-17.7,0-.1-5.88.08-11.83,0-17.71-5.88-.07-11.83.11-17.71,0v-17.71c5.89-.01,11.82.03,17.7,0,11.78-.07,23.64.04,35.42,0v-17.72s-17.72.02-17.72.02c.08-17.68-.08-35.44,0-53.13h35.42c.07-5.87-.11-11.82,0-17.71,29.47-.07,59.04-.07,88.51,0ZM230.36,168.38v17.71c5.87.07,11.82-.11,17.7,0v17.71c5.88,0,11.82,0,17.7,0s11.83,0,17.71,0c0-5.89,0-11.83,0-17.71,0-5.89,0-11.83,0-17.71-5.88-.06-11.83.11-17.71,0-.11-5.88.08-11.82,0-17.71h-35.41c0,5.89,0,11.82,0,17.71ZM283.46,239.2c-3.1.05-17.45-.86-17.73,1.02l.02,16.7c5.88.06,11.83-.11,17.71,0-.11-5.87-.11-11.84,0-17.71,11.74-.18,23.66-.19,35.41,0,.11,5.87.11,11.84,0,17.71-11.74.18-23.66.19-35.41,0,.11,5.88-.08,11.82,0,17.71h35.41c.08-5.88-.11-11.82,0-17.71,3.1-.05,17.45.86,17.73-1.02l-.02-16.7c-5.88-.06-11.83.11-17.71,0-.11-5.88.08-11.82,0-17.71h-35.41c-.08,5.88.11,11.82,0,17.71ZM336.57,310.02h-88.51v17.71h88.51v-17.71Z"/>
      <path class="cls-1" d="M478.2,380.84h17.7c0,5.89.01,11.82,0,17.71h-53.11c.11-5.88-.1-11.82,0-17.71h35.41Z"/>
      <path class="cls-1" d="M318.87,62.15c0,5.88-.1,11.82,0,17.71,11.77.03,23.64-.19,35.41,0,.1,5.88-.1,11.82,0,17.71,5.88.04,11.82-.11,17.7,0,.1,5.88-.03,11.82,0,17.71h-17.71c-.07-5.87.11-11.82,0-17.71-11.78-.08-23.64.06-35.42,0-.07-5.88.11-11.83,0-17.71-29.47-.07-59.04-.07-88.51,0-.1,5.88.08,11.83,0,17.71h-35.42c.03-5.89-.1-11.83,0-17.71,11.77-.2,23.64.03,35.41,0,.1-5.88,0-11.82,0-17.71,29.47-.15,59.05-.15,88.51,0Z"/>
      <path class="cls-1" d="M478.2,256.91c.11,5.88-.1,11.82,0,17.71,5.88,0,11.82,0,17.7,0,.1,5.88-.03,11.82,0,17.71h-17.71c-.07-5.87.11-11.82,0-17.71h-70.82s0-17.71,0-17.71c23.57.12,47.25-.39,70.81,0Z"/>
      <path class="cls-2" d="M495.9,363.14c0,5.89,0,11.82,0,17.71h-17.7v-17.71c5.89,0,11.82,0,17.7,0Z"/>
      <path class="cls-5" d="M194.95,469.37c-.19-11.77.14-23.64,0-35.41h177.03c-.14,11.77.19,23.64,0,35.41-.1,5.88.07,11.83,0,17.71h-70.82c-.19-11.78.14-23.65,0-35.43l-16.69-.02c-1.85.28-.95,31.41-1.02,35.44h-88.52c-.06-5.87.11-11.82,0-17.71Z"/>
      <path class="cls-3" d="M159.54,327.73c5.88.11,11.82-.08,17.7,0v53.12h-17.71s.02,17.71.02,17.71c-5.88.06-11.83-.11-17.71,0,.06,5.89-.04,11.83,0,17.71,5.88.06,11.83-.11,17.71,0v17.71c5.89,0,11.83,0,17.71,0l.02,16.7c-.28,1.88-14.63.97-17.73,1.02-.02,11.78,0,23.64,0,35.42-17.67-.23-35.45.28-53.12,0-.11-5.87-.1-11.84,0-17.71,11.78-.05,23.63.03,35.42,0,.03-5.88-.07-11.83,0-17.71,5.88-.04,11.82.1,17.7,0,0-5.89,0-11.82,0-17.71-5.89,0-11.83,0-17.71,0-.03,5.88.07,11.83,0,17.71-11.78.08-23.64-.05-35.42,0-.07,5.88.11,11.83,0,17.71-5.88.03-11.82.1-17.7,0-.06-5.89.04-11.83,0-17.71-5.88-.04-11.83.07-17.71,0-.39-23.57.39-47.25,0-70.82,5.87-.11,11.83-.1,17.7,0s11.83-.08,17.71,0l-.02,17.72c11.78-.16,23.64.18,35.42,0-.06-5.89.04-11.83,0-17.71l-17.72.02c-.07-5.88.11-11.83,0-17.71,5.88-.1,11.83.07,17.71,0,.07-5.88-.11-11.83,0-17.71,5.88-.1,11.83.08,17.71,0,.07-5.88-.11-11.83,0-17.71Z"/>
      <path class="cls-6" d="M194.95,292.32c-.02,5.89.02,11.82,0,17.71-.11,35.39.08,70.86,0,106.24-11.78-.16-23.64.18-35.42,0-5.88-.1-11.83.07-17.71,0-.03-5.88.07-11.83,0-17.71,5.88-.1,11.83.07,17.71,0l-.02-17.72h17.71s0-53.11,0-53.11c-5.88-.08-11.82.11-17.7,0-.1,5.88.08,11.83,0,17.71-5.88.07-11.83-.11-17.71,0-.1,5.88.08,11.83,0,17.71-5.88.06-11.83-.11-17.71,0,.1,5.88-.08,11.83,0,17.71l17.72-.02c.03,5.88-.07,11.83,0,17.71-11.77.19-23.64-.15-35.42,0l.02-17.72c-5.88-.07-11.83.11-17.71,0v-17.71c11.77-.13,23.63.2,35.41,0-.1-5.87-.1-11.84,0-17.71,5.88-.03,11.82.1,17.7,0,.1-5.88-.1-11.82,0-17.71,5.87-.1,11.83-.11,17.7,0,.1-5.88-.1-11.82,0-17.71,5.89-.06,11.83.04,17.71,0,.07-5.88-.11-11.83,0-17.71,5.88,0,11.82,0,17.7,0Z"/>
      <path class="cls-3" d="M371.98,469.37h35.42s0,17.71,0,17.71l-17.72-.02c-.04,5.88.07,11.83,0,17.71-29.48,0-59.04,0-88.52,0-.06-5.88.11-11.83,0-17.71h70.82c.06-5.87-.11-11.82,0-17.71Z"/>
      <path class="cls-3" d="M194.95,469.37c.1,5.88-.07,11.83,0,17.71h88.52c-.1,5.87.07,11.82,0,17.7h-106.22v-35.41h17.7Z"/>
      <rect class="cls-4" x="265.76" y="380.84" width="53.11" height="35.41"/>
      <path class="cls-6" d="M442.79,398.55c-.11,5.88.08,11.83,0,17.71h-35.41v35.41c-5.88-.06-11.83.04-17.71,0-.02-17.68.05-35.44,0-53.13h53.11Z"/>
      <rect class="cls-7" x="336.57" y="380.84" width="35.41" height="35.41"/>
      <rect class="cls-7" x="212.65" y="380.84" width="35.41" height="35.41"/>
      <path class="cls-6" d="M389.68,310.02c5.89,0,11.82,0,17.7,0v53.12h-17.7v-53.12Z"/>
      <path class="cls-6" d="M442.79,487.08v-35.42s17.71,0,17.71,0l-.02,17.72c5.88.07,11.83-.11,17.71,0,0,5.89,0,11.82,0,17.71-11.74.19-23.66.2-35.41,0Z"/>
      <path class="cls-8" d="M177.25,274.61c.1,5.87.1,11.84,0,17.71-5.89,0-11.83,0-17.71,0-.07,5.88.11,11.83,0,17.71-5.89.06-11.83-.04-17.71,0-.07,5.88.11,11.83,0,17.71-5.88.1-11.83-.08-17.71,0-.07,5.88.11,11.83,0,17.71-17.68.09-35.44-.07-53.12,0-.02-11.78.06-23.64,0-35.42h17.71c.07-5.87-.11-11.82,0-17.71,5.88-.1,11.83.08,17.71,0,.07-5.88-.11-11.83,0-17.71,23.58-.12,47.24.09,70.81,0Z"/>
      <path class="cls-10" d="M106.43,256.91c23.57-.39,47.25.29,70.82,0,.07,5.88-.11,11.83,0,17.71-23.58.09-47.24-.12-70.81,0-.1,5.88.08,11.83,0,17.71-5.88.07-11.83-.11-17.71,0-.1,5.88.08,11.83,0,17.71h-17.71c-.03-5.89-.1-11.84,0-17.71,5.88-.11,11.82.1,17.7,0,.1-5.88-.1-11.82,0-17.71,5.88-.1,11.82.03,17.7,0,.1-5.88-.11-11.82,0-17.71Z"/>
      <path class="cls-6" d="M159.54,168.38v17.71c5.88.1,11.83-.08,17.71,0,.07,5.88-.11,11.83,0,17.71,5.88.1,11.83-.08,17.71,0v17.71c-5.89-.1-11.83.1-17.71,0,.11-5.87.1-11.84,0-17.71-5.88-.1-11.82.1-17.7,0-.1-5.88,0-11.82,0-17.71-5.88-.1-11.82.1-17.7,0-.03-5.89.02-11.82,0-17.71,5.89.03,11.82.01,17.7,0Z"/>
      <path class="cls-1" d="M124.14,150.67c17.67-.29,35.45.22,53.12,0v17.71c-5.9.03-11.83-.01-17.71,0s-11.82.03-17.7,0-11.82.1-17.7,0c-.1-5.87-.11-11.84,0-17.71Z"/>
      <path class="cls-6" d="M407.39,186.08c0,5.89-.04,11.82,0,17.71-5.88.1-11.82-.11-17.7,0-.29,17.67.21,35.44,0,53.12-5.88-.11-11.82.08-17.7,0v-53.12c5.88-.08,11.82.11,17.7,0,.1-5.88-.07-11.83,0-17.71h17.71Z"/>
      <path class="cls-1" d="M371.98,150.67c-.03,5.89.1,11.82,0,17.71-11.77.03-23.64-.19-35.41,0-.1,5.88,0,11.82,0,17.71h-17.7c0-5.89,0-11.83,0-17.71,5.88-.06,11.83.11,17.71,0,.1-5.88-.08-11.83,0-17.71h35.42Z"/>
      <path class="cls-1" d="M425.09,150.67c.11,5.88.02,11.82,0,17.71-5.88.1-11.82-.03-17.7,0s-11.82-.01-17.7,0v-17.71c11.77.15,23.63-.18,35.41,0Z"/>
      <path class="cls-6" d="M478.2,363.14v17.71h-35.41c.1-5.88-.08-11.83,0-17.71,11.78,0,23.63.03,35.42,0Z"/>
      <rect class="cls-6" x="248.06" y="310.02" width="88.51" height="17.71"/>
      <path class="cls-6" d="M318.87,256.91c-.11,5.88.08,11.82,0,17.71h-35.41c-.08-5.88.11-11.82,0-17.71,11.74.19,23.66.18,35.41,0Z"/>
      <path class="cls-2" d="M283.46,239.2c-.11,5.87-.11,11.84,0,17.71-5.88-.1-11.83.07-17.71,0l-.02-16.7c.28-1.88,14.63-.97,17.73-1.02Z"/>
      <path class="cls-2" d="M283.46,239.2c.11-5.88-.08-11.82,0-17.71h35.41c.08,5.88-.11,11.82,0,17.71-11.74-.19-23.66-.18-35.41,0Z"/>
      <path class="cls-2" d="M318.87,239.2c5.88.1,11.83-.07,17.71,0l.02,16.7c-.28,1.88-14.63.97-17.73,1.02.11-5.87.11-11.84,0-17.71Z"/>
      <path class="cls-1" d="M230.36,168.38c0-5.89,0-11.82,0-17.71h35.41c.08,5.88-.11,11.82,0,17.71,5.88.1,11.83-.07,17.71,0,0,5.89,0,11.83,0,17.71h-17.7c0-5.88.11-11.82,0-17.71-11.77-.19-23.63.14-35.41,0Z"/>
      <path class="cls-2" d="M265.76,168.38c.11,5.88,0,11.82,0,17.71h17.7c0,5.89,0,11.83,0,17.71-5.89,0-11.83,0-17.71,0v-17.71c-5.88,0-11.82.1-17.7,0s-11.83.08-17.71,0v-17.71c11.78.14,23.64-.19,35.41,0Z"/>
      <path class="cls-9" d="M265.76,186.08v17.71c-5.89,0-11.83,0-17.71,0v-17.71c5.89.1,11.83,0,17.71,0Z"/>
      <path class="cls-9" d="M354.28,186.08v17.71c-5.88,0-11.82,0-17.7,0v-17.71c5.88,0,11.82.1,17.7,0Z"/>
      <path class="cls-6" d="M141.84,451.67c-.06,5.89.04,11.83,0,17.71-11.78.02-23.63-.06-35.42,0,.1-5.88-.08-11.83,0-17.71,11.78-.04,23.64.09,35.42,0Z"/>
      <path class="cls-6" d="M159.54,433.96c0,5.89,0,11.82,0,17.71-5.88.1-11.82-.04-17.7,0,.06-5.89-.04-11.83,0-17.71,5.88,0,11.83,0,17.71,0Z"/>
    </g>
  </g>
</svg>