<?xml version="1.0" encoding="UTF-8"?>
<svg id="Layer_1" data-name="Layer 1" xmlns="http://www.w3.org/2000/svg" viewBox="0 0 566.93 566.93">
  <defs>
    <style>
      .cls-1 {
        fill: #2b3166;
      }

      .cls-2 {
        fill: #010101;
      }

      .cls-3 {
        fill: #ec8228;
      }

      .cls-4 {
        fill: #444989;
      }

      .cls-5 {
        fill: #757aba;
      }

      .cls-6 {
        fill: #eebb42;
      }

      .cls-7 {
        fill: #e3c53f;
      }

      .cls-8 {
        fill: #e14b26;
      }

      .cls-9 {
        fill: #343973;
      }

      .cls-10 {
        fill: #aaabd6;
      }

      .cls-11 {
        fill: #5bc3ef;
      }

      .cls-12 {
        fill: #2f87af;
      }

      .cls-13 {
        fill: #f04e4e;
      }

      .cls-14 {
        fill: #cb6428;
      }
    </style>
  </defs>
  <g id="inOO3L.tif">
    <g>
      <path class="cls-2" d="M274.22,89.35c.09-18.46-.07-37,0-55.46h36.96c.07,6.14-.1,12.35,0,18.49,6.15,0,12.35,0,18.49,0l-.02,18.51c12.29-.16,24.68.19,36.97,0,0-3.43-1.85-36.97,0-36.97h36.96c.07,6.14-.1,12.35,0,18.49,6.15,0,12.35,0,18.49,0v18.5s36.95,0,36.95,0c.08,6.14-.11,12.35,0,18.49,6.14.1,12.35-.07,18.49,0,.07,6.14-.12,12.35,0,18.5,6.14.11,12.35-.08,18.49,0,.07,6.14-.12,12.35,0,18.5,6.14.11,12.34-.08,18.48,0v129.41h-18.48v-36.97c-12.29-.05-24.67.07-36.96,0-.07,12.3.04,24.68,0,36.98-6.14,0-12.35,0-18.49,0-.1,6.14.07,12.35,0,18.5-6.14.07-12.35-.12-18.49,0-6.14.11-12.34-.03-18.48,0-.05-3.24.9-18.23-1.06-18.52l-17.43.02c0,6.15,0,12.35,0,18.5,6.15-.02,12.34.03,18.48,0,.1,6.14,0,12.34,0,18.49h-18.48c0-6.15,0-12.34,0-18.49-6.15.02-12.34-.02-18.48,0-.11-6.14.08-12.35,0-18.5l-17.43-.02c-1.96.29-1.01,15.28-1.06,18.52,6.15-.01,12.34.02,18.48,0,.11,6.14-.03,12.34,0,18.49h-18.48c-.03,6.15.03,12.34,0,18.49-12.3-.03-24.67.03-36.96,0v-18.49c6.15.02,12.34,0,18.48,0s12.34,0,18.48,0c.03-6.15-.1-12.34,0-18.49-6.15.01-12.34.01-18.48,0-6.15-.01-12.34.01-18.48,0v-18.49c-6.14.11-12.34-.03-18.48,0v-18.49c0-6.15,0-12.34,0-18.49-12.29-.2-24.68.14-36.97,0-.07-6.14.11-12.35,0-18.5-.2-12.3.15-24.69,0-36.98h18.5c.04,6.14-.07,12.35,0,18.5s-.04,12.35,0,18.5c6.14.07,12.35-.11,18.49,0,.11,6.14,0,12.34,0,18.49,6.14.1,12.35-.07,18.49,0-.01,12.3,0,24.68,0,36.98,6.14-.11,12.35.08,18.49,0-.16-12.3.19-24.69,0-36.98h36.97s1.05,18.52,1.05,18.52l17.43-.02-.02-18.51c12.3-.04,24.68.08,36.97,0,.07,12.3-.04,24.68,0,36.98,6.14,0,12.35,0,18.49,0,.2-12.29,0-24.68,0-36.97-6.15,0-12.34-.03-18.48,0-.03-6.15.01-12.34,0-18.49,6.14.11,12.34-.03,18.48,0v18.49c6.15,0,12.34-.03,18.48,0,.03-6.15-.01-12.34,0-18.49,12.3-.07,24.68.04,36.97,0,.07-6.14-.11-12.35,0-18.5.2-12.28.06-24.69,0-36.97-.03-6.15.11-12.34,0-18.49-6.14-.11-12.34.07-18.48,0-.03-6.15.11-12.34,0-18.49-6.14-.11-12.34.03-18.48,0-.03-6.14.11-12.34,0-18.49-18.44-.3-37,.06-55.45,0,.02,6.15-.02,12.34,0,18.49-6.15-.01-12.34.02-18.48,0,0-6.15,0-12.34,0-18.49,6.15.01,12.34-.02,18.48,0-.03-12.29.21-24.69,0-36.97-6.15,0-12.35,0-18.49,0l.02,18.51c-6.14.07-12.35-.11-18.49,0v18.49c-18.45,0-36.99-.04-55.45,0-.2-12.29.21-24.68,0-36.97-6.15,0-12.35,0-18.49,0v36.98c-6.13.03-12.33-.11-18.47,0-.06,12.3.04,24.68,0,36.98-6.14.07-12.35-.12-18.49,0-6.14.11-12.34-.03-18.48,0-12.29.06-24.67,0-36.96,0,0-12.29.21-24.69,0-36.97-30.67-.5-61.74-.5-92.41,0-.11,6.14.03,12.34,0,18.49-6.14.03-12.34-.11-18.48,0-.11,6.14.11,12.34,0,18.49h-18.48c-.11,6.14.03,12.34,0,18.49-.15,30.74-.51,61.7,0,92.44.1,6.14-.07,12.35,0,18.5,6.14.07,12.35-.11,18.49,0,.11-6.14-.11-12.34,0-18.49,24.62,0,49.32,0,73.94,0,.21,18.46-.31,37.02,0,55.47,6.14.11,12.35-.08,18.49,0,.07,6.14-.12,12.35,0,18.5,6.14.06,12.35-.04,18.49,0,.07,6.14-.12,12.35,0,18.5,12.29.06,24.68-.2,36.96,0,.11,6.14-.03,12.34,0,18.49,6.14.03,12.34-.11,18.48,0,.2,12.28.07,24.69,0,36.97-6.14.11-12.34.03-18.48,0,.21-12.28.06-24.69,0-36.97-12.29-.06-24.67,0-36.96,0,.09,12.3-.06,24.68,0,36.98,12.3.02,24.67-.06,36.97,0-.1,6.14.07,12.35,0,18.49h-55.45c-.04-18.46.05-37,0-55.46h18.48c-.04-6.15.11-12.34,0-18.49-6.15-.03-12.34.03-18.48,0-.03-6.15.11-12.34,0-18.49-6.14-.06-12.35.04-18.49,0-.07-6.14.11-12.35,0-18.5-6.14-.11-12.34-.03-18.48,0,.04,6.15-.11,12.34,0,18.49-12.29.15-24.67-.2-36.96,0-.06,6.15.04,12.35,0,18.5-6.14.04-12.35-.07-18.49,0-.11,6.14.03,12.34,0,18.49-.15,30.78-.07,61.66,0,92.44.03,12.29-.2,24.69,0,36.97,6.14.06,12.35-.05,18.49,0,.04,6.14-.07,12.35,0,18.5,6.14.06,12.35-.04,18.49,0,0,6.15,0,12.35,0,18.5,18.44.3,37-.06,55.45,0,36.89.12,74.01.61,110.89,0v-36.97c6.15-.03,12.34.03,18.48,0v-18.49c12.29-.06,24.68.2,36.96,0,.11-6.14-.03-12.34,0-18.49.03-6.15-.02-12.34,0-18.49.02-6.15-.02-12.34,0-18.49,6.14.03,12.34-.11,18.48,0-.05,18.46.03,37.01,0,55.47-6.14.07-12.35-.11-18.49,0-.11,6.14.08,12.35,0,18.5-12.3.04-24.68-.08-36.97,0,0,12.3,0,24.68,0,36.98-6.14.07-12.35-.11-18.49,0v18.49H126.37c0-6.15,0-12.34,0-18.49-6.14-.1-12.35.07-18.49,0-.04-6.14.07-12.35,0-18.5-6.14-.06-12.35.04-18.49,0-.07-6.14.11-12.35,0-18.5-6.14-.06-12.34.04-18.48,0v-147.9c6.14-.04,12.34.06,18.48,0,.11-6.14-.08-12.35,0-18.5,6.14-.07,12.35.11,18.49,0,.06-6.15-.04-12.35,0-18.5,12.3-.02,24.67.06,36.97,0-.09-12.3.06-24.68,0-36.98-18.45-.21-37.01.31-55.46,0-.11,6.14.08,12.35,0,18.5l-18.5-.02.02,18.51h-18.49V126.32h18.48c.11-6.14-.08-12.35,0-18.5,6.14-.07,12.35.12,18.49,0,.11-6.14-.08-12.35,0-18.5,6.14-.07,12.35.11,18.49,0,.11-6.14-.08-12.35,0-18.49h92.41c.07,6.14-.1,12.35,0,18.49,6.14.1,12.35-.07,18.49,0v18.5s36.95,0,36.95,0v-18.5c6.13-.07,12.34.12,18.48,0Z"/>
      <path class="cls-2" d="M422.08,107.83c.05,30.78-.07,61.65,0,92.44-6.14-.11-12.35.08-18.49,0-.07-6.14.12-12.35,0-18.5-.11-6.14.03-12.34,0-18.49s.02-12.34,0-18.49c-.02-6.15.02-12.34,0-18.49-.02-6.15.02-12.34,0-18.49,6.15.01,12.34-.02,18.48,0Z"/>
      <path class="cls-2" d="M422.08,422.12c-.07,12.3.04,24.68,0,36.98-6.14.04-12.35-.07-18.49,0,.1,6.14-.07,12.35,0,18.5,12.29-.16,24.68.19,36.97,0,.06-6.15-.05-12.35,0-18.5,6.14-.04,12.35.07,18.49,0,.2-12.29,0-24.68,0-36.97,6.15-.02,12.34.03,18.48,0-.07,12.3.04,24.68,0,36.98-6.14.04-12.35-.07-18.49,0-.1,6.14.07,12.35,0,18.5-6.14.07-12.35-.11-18.49,0-.06,6.14.04,12.35,0,18.49h-73.93v-18.5s18.49.02,18.49.02l-.02-18.51c6.14-.04,12.35.07,18.49,0-.2-12.29,0-24.68,0-36.97,6.13.11,12.35.11,18.48,0Z"/>
      <path class="cls-3" d="M385.11,366.66v18.5c6.13.07,12.34-.12,18.48,0v18.49c0,6.15,0,12.34,0,18.49-6.14-.11-12.35.08-18.49,0l.02-18.51c-6.14-.07-12.35.12-18.49,0,.02-6.15-.02-12.34,0-18.49.02-6.15-.01-12.34,0-18.49h18.48Z"/>
      <path class="cls-2" d="M422.08,292.71h36.97c.07,6.13-.12,12.34,0,18.49,6.14.11,12.35-.08,18.49,0,.04,12.3-.08,24.68,0,36.98h-18.48c-.11-6.14.07-12.34,0-18.49s.11-12.34,0-18.49c-6.14-.11-12.34.03-18.48,0-6.15-.03-12.34.02-18.48,0,0-6.15,0-12.34,0-18.49Z"/>
      <path class="cls-14" d="M496.01,385.14c.2,12.3-.15,24.69,0,36.98-6.14.02-12.35-.04-18.49,0,.07-12.3-.01-24.68,0-36.97h18.48Z"/>
      <path class="cls-8" d="M422.08,274.22v18.49c0,6.15,0,12.34,0,18.49,6.15.02,12.34-.03,18.48,0v18.5s18.48,0,18.48,0c.07,6.15-.11,12.34,0,18.49h18.48c.03,6.15-.02,12.34,0,18.49,6.14.06,12.35-.04,18.49,0,.07,6.14-.11,12.35,0,18.5h-18.48c0-6.15.02-12.34,0-18.49-6.14-.06-12.35.04-18.49,0-.07-6.14.12-12.35,0-18.5-12.3,0-24.67,0-36.97,0-.07-6.14.12-12.35,0-18.5s0-12.34,0-18.49c-6.15-.02-12.34.02-18.48,0,0-6.15,0-12.34,0-18.49s.1-12.34,0-18.49c6.14-.03,12.34.11,18.48,0Z"/>
      <path class="cls-5" d="M440.56,218.76c0,12.29.2,24.69,0,36.97-6.15,0-12.35,0-18.49,0-.03-12.3.08-24.68,0-36.98,6.15-.03,12.34,0,18.48,0Z"/>
      <path class="cls-5" d="M144.85,107.83c12.3.07,24.68-.04,36.97,0,.07,6.14-.12,12.35,0,18.5.11,6.14-.03,12.34,0,18.49-6.14.11-12.34-.08-18.48,0v73.95h-36.96v-92.44c6.14-.11,12.35.08,18.49,0v-18.5Z"/>
      <path class="cls-5" d="M126.37,107.83v18.49c-6.14.11-12.34-.03-18.48,0-.16,30.78.11,61.66,0,92.45l-18.5-.02c-.07,6.14.12,12.35,0,18.5h-18.48c-.51-30.73-.15-61.69,0-92.44h18.49c.07-6.13-.12-12.34,0-18.49,6.15,0,12.34.03,18.48,0,.03-6.15-.03-12.34,0-18.49,6.14-.03,12.34-.01,18.48,0Z"/>
      <path class="cls-5" d="M440.56,107.83v18.5c6.13.07,12.34-.12,18.48,0,.13,24.62.06,49.33,0,73.95-6.14.03-12.34.03-18.48,0-6.14-.03-12.34.11-18.48,0-.07-30.78.05-61.65,0-92.44,6.15.02,12.34-.02,18.48,0Z"/>
      <path class="cls-5" d="M292.71,89.35c6.15-.03,12.34.01,18.48,0,.1,6.14-.07,12.35,0,18.5,24.62.05,49.32-.1,73.94,0,0,6.15,0,12.35,0,18.5h18.49c.02,6.14-.02,12.33,0,18.48h-18.49c0,6.14,0,12.34,0,18.49s0,12.35,0,18.5h18.49c.11,6.13-.08,12.34,0,18.49,6.14.07,12.35-.12,18.49,0,.01,6.15-.03,12.34,0,18.49-12.3.07-24.68-.04-36.97,0l.02,18.51-17.43.02-1.05-18.53h-36.97c-.1-6.13.07-12.34,0-18.49-12.29-.13-24.68.21-36.97,0-.11-6.14.08-12.35,0-18.5h-18.49c-.06-6.14.04-12.34,0-18.49h-18.5c.16,12.3-.19,24.69,0,36.98h-18.49s0,36.97,0,36.97h-18.48c.03,6.15-.11,12.34,0,18.49-6.14-.1-12.35.07-18.49,0-.07-6.14.11-12.35,0-18.5h-18.48c-.16-30.78.15-61.66,0-92.44,6.14-.11,12.34.03,18.48,0s12.34.03,18.48,0v18.49c-6.14.06-12.35-.04-18.49,0,.32,24.62-.4,49.35,0,73.96h18.48c-.12-24.62,0-49.33,0-73.95,6.14-.06,12.35.04,18.49,0,0-6.15,0-12.35,0-18.5,6.14-.11,12.35.08,18.49,0v-18.5c6.13-.11,12.34.08,18.48,0,.03-12.3-.07-24.68,0-36.98,6.14-.11,12.34.03,18.48,0ZM329.67,144.81c-.11-6.14.08-12.35,0-18.5h-18.5s0,18.51,0,18.51c6.14.04,12.35-.07,18.49,0,.11,6.14-.11,12.34,0,18.49.11,6.14-.08,12.35,0,18.5,6.14,0,12.35,0,18.49,0,6.15,0,12.35,0,18.49,0l.02-17.43c-.29-1.92-15.31-1.07-18.51-1.06-.03-6.15.03-12.35,0-18.5-6.14-.04-12.35.07-18.49,0Z"/>
      <path class="cls-10" d="M200.3,89.35c.21,12.29,0,24.68,0,36.97,12.3,0,24.67.06,36.96,0,0,6.15,0,12.34,0,18.49-6.14.11-12.34-.03-18.48,0s-12.34-.03-18.48,0v-18.49h-18.48c-.11-6.14.08-12.35,0-18.5-12.3-.04-24.68.08-36.97,0-6.15-.03-12.34.01-18.48,0-6.15-.01-12.34-.03-18.48,0-.03,6.15.03,12.34,0,18.49-6.15.03-12.34,0-18.48,0-.11,6.14.08,12.35,0,18.5h-18.49c.03-6.15-.11-12.35,0-18.5h18.48c.11-6.14-.11-12.34,0-18.49,6.14-.11,12.34.03,18.48,0,.03-6.14-.11-12.34,0-18.49,30.67-.5,61.74-.5,92.41,0Z"/>
      <path class="cls-1" d="M200.3,126.32v18.49c-6.14.03-12.34-.11-18.48,0-.03-6.14.11-12.34,0-18.49h18.48Z"/>
      <path class="cls-1" d="M126.37,126.32v92.44h36.96v-73.95c6.14-.08,12.34.11,18.48,0,.15,30.78-.16,61.66,0,92.44.06,12.3-.04,24.68,0,36.98l18.5-.02-.02,18.51,18.5-.02-.02,18.51,18.5-.02c.07,6.14-.12,12.35,0,18.5,6.14.1,12.35-.07,18.49,0,.07,6.14-.11,12.35,0,18.5,6.14.11,12.34-.08,18.48,0v36.97c-6.14.08-12.34-.11-18.48,0,.07-12.28.2-24.69,0-36.97-6.14-.11-12.34.03-18.48,0-.03-6.15.11-12.34,0-18.49-12.29-.2-24.67.06-36.96,0-.11-6.14.08-12.35,0-18.5-6.14-.04-12.35.07-18.49,0-.11-6.14.08-12.35,0-18.5-6.14-.07-12.35.12-18.49,0-.3-18.45.22-37.02,0-55.47-24.62.02-49.32,0-73.94,0-.11,6.14.11,12.34,0,18.49-6.14-.1-12.35.07-18.49,0-.07-6.14.11-12.35,0-18.5h18.48c.11-6.14-.08-12.35,0-18.5l18.5.02c.1-30.79-.17-61.66,0-92.45,6.14-.03,12.34.11,18.48,0Z"/>
      <path class="cls-1" d="M144.85,107.83v18.5c-6.13.07-12.34-.12-18.48,0v-18.49c6.15.01,12.34-.03,18.48,0Z"/>
      <path class="cls-1" d="M89.4,440.61h18.49s-.02,18.5-.02,18.5l18.5-.02v18.5s55.44,0,55.44,0c.92,0,0,15.92,0,18.49v18.49c-18.44-.06-37.01.3-55.45,0,0-6.15,0-12.35,0-18.5-6.14-.04-12.35.07-18.49,0-.06-6.15.04-12.35,0-18.5-6.14-.04-12.35.07-18.49,0-.2-12.29.03-24.68,0-36.97Z"/>
      <path class="cls-12" d="M274.22,477.58c6.14-.11,12.34.03,18.48,0v36.97c-36.88.61-74,.12-110.89,0v-18.49h73.94s-.02-18.5-.02-18.5c6.14-.07,12.35.12,18.49,0Z"/>
      <path class="cls-11" d="M311.19,274.22c6.15.01,12.34-.01,18.48,0v18.49c-6.15,0-12.34.02-18.48,0-18.45-.07-37.01.3-55.45,0-6.14-.1-12.35.07-18.49,0v-18.5c24.6.4,49.34-.06,73.94,0Z"/>
      <path class="cls-12" d="M292.71,255.73c6.14-.03,12.34.11,18.48,0v18.49c-24.6-.06-49.34.4-73.93,0-6.14-.1-12.35.07-18.49,0-.07-6.14.12-12.35,0-18.5,24.57.4,49.35.12,73.93,0Z"/>
      <path class="cls-4" d="M274.22,181.78h18.49c.07,6.13-.12,12.34,0,18.49,12.29.2,24.68-.14,36.97,0,.07,6.14-.11,12.35,0,18.5.2,12.3-.15,24.69,0,36.98-6.14.07-12.35-.12-18.49,0,0-12.3,0-24.68,0-36.98-6.14-.07-12.35.11-18.49,0,0-6.14.11-12.35,0-18.49-6.14-.1-12.35.07-18.49,0-.04-6.14.07-12.35,0-18.5Z"/>
      <path class="cls-8" d="M385.11,274.22c0,6.15,0,12.34,0,18.49h-18.48c-.03-6.15.11-12.34,0-18.49,6.15-.02,12.34.02,18.48,0Z"/>
      <path class="cls-14" d="M348.15,274.22c-.1,6.14.03,12.34,0,18.49-6.14,0-12.34,0-18.48,0v-18.49c6.15.01,12.34.01,18.48,0Z"/>
      <path class="cls-4" d="M385.11,274.22c0-6.15,0-12.35,0-18.5l17.43-.02c1.96.29,1.01,15.28,1.06,18.52-6.15.03-12.34-.02-18.48,0Z"/>
      <path class="cls-4" d="M348.15,274.22c.05-3.24-.9-18.23,1.06-18.52l17.43.02c.07,6.14-.12,12.35,0,18.5-6.15.02-12.34-.01-18.48,0Z"/>
      <path class="cls-1" d="M459.04,107.83c.03,6.15-.03,12.34,0,18.49,6.14.11,12.34-.07,18.48,0,.03,6.15-.03,12.34,0,18.49.07,12.3-.04,24.68,0,36.98h18.49c-.1,6.13.07,12.34,0,18.49-12.3.04-24.68-.08-36.97,0-.01,6.15.03,12.34,0,18.49-6.15-.03-12.34,0-18.48,0v-18.49c6.14.03,12.34.03,18.48,0,.06-24.62.13-49.33,0-73.95-6.14-.11-12.35.08-18.49,0v-18.5c6.16.02,12.35-.03,18.49,0Z"/>
      <path class="cls-5" d="M496.01,144.81c.06,12.28.2,24.69,0,36.97h-18.49c-.04-12.29.08-24.67,0-36.97h18.48Z"/>
      <path class="cls-10" d="M459.04,89.35c.11,6.14-.03,12.34,0,18.49,6.14.03,12.34-.11,18.48,0,.11,6.14-.03,12.34,0,18.49,6.14.07,12.34-.11,18.48,0,.11,6.14-.03,12.34,0,18.49h-18.48c-.03-6.15.03-12.34,0-18.49-6.14-.07-12.34.11-18.48,0-.03-6.15.03-12.34,0-18.49-6.15-.03-12.34.02-18.48,0-6.15-.02-12.34.02-18.48,0s-12.34.01-18.48,0c-.02-6.15.02-12.34,0-18.49,18.44.06,37.01-.3,55.45,0Z"/>
      <path class="cls-10" d="M366.63,89.35c6.15,0,12.34-.01,18.48,0,0,6.15,0,12.34,0,18.49,6.15.02,12.34-.01,18.48,0,.02,6.15-.02,12.34,0,18.49h-18.49c0-6.14,0-12.34,0-18.49-24.62-.09-49.32.06-73.94,0-.07-6.14.11-12.35,0-18.5,18.45-.04,36.99,0,55.45,0Z"/>
      <path class="cls-1" d="M218.78,163.3c0,24.62-.12,49.33,0,73.95h-18.48c-.4-24.61.31-49.34,0-73.96,6.14-.04,12.35.07,18.49,0Z"/>
      <path class="cls-1" d="M255.74,126.32v18.5c-6.13.07-12.34-.12-18.48,0,0,6.15,0,12.35,0,18.5-6.14.04-12.35-.07-18.49,0v-18.49c6.14-.03,12.34.11,18.48,0,0-6.15,0-12.34,0-18.49,6.14-.03,12.34.11,18.48,0Z"/>
      <path class="cls-1" d="M459.04,385.14v36.97c0,12.29.2,24.69,0,36.97-6.14.06-12.35-.04-18.49,0-.04,6.14.07,12.35,0,18.5-12.29.2-24.68-.15-36.97,0-.07-6.14.11-12.35,0-18.5,6.14-.06,12.35.04,18.49,0,.04-12.3-.08-24.68,0-36.98,6.14-.11,12.35.08,18.49,0-.16-12.3.19-24.69,0-36.98,6.15,0,12.34,0,18.48,0Z"/>
      <path class="cls-7" d="M311.19,52.37c.21,12.29-.2,24.68,0,36.97-6.15.01-12.34-.03-18.48,0v-36.98c6.13,0,12.34,0,18.48,0Z"/>
      <path class="cls-2" d="M403.6,366.66c6.14,0,12.34-.11,18.48,0v18.49c-6.14-.03-12.34.11-18.48,0-6.14-.11-12.35.08-18.49,0v-18.5c6.15,0,12.35,0,18.49,0Z"/>
      <path class="cls-4" d="M366.63,348.17c12.3.07,24.68-.04,36.97,0v18.5c-6.15,0-12.35,0-18.49,0h-18.48c.01-6.15.01-12.34,0-18.49Z"/>
      <path class="cls-2" d="M366.63,348.17c.01,6.15.01,12.34,0,18.49s.02,12.34,0,18.49h-18.48c.03-12.3-.03-24.67,0-36.97,6.15,0,12.34-.03,18.48,0Z"/>
      <path class="cls-6" d="M366.63,311.2c.03,12.3-.03,24.67,0,36.97-6.15-.03-12.34,0-18.48,0-.03,12.3.03,24.67,0,36.97h18.48c-.02,6.15.02,12.34,0,18.49-6.14-.11-12.34.03-18.48,0-.02,6.15.02,12.34,0,18.49h-18.49c-.07-6.13.12-12.34,0-18.49,6.15,0,12.34-.03,18.48,0,.02-6.15-.01-12.34,0-18.49h-18.48v-36.97c6.15,0,12.34,0,18.48,0,.01-6.15-.02-12.34,0-18.49.02-6.15-.03-12.34,0-18.49,6.15.01,12.34-.01,18.48,0Z"/>
      <path class="cls-14" d="M422.08,385.14c0,6.15,0,12.34,0,18.49h-18.48v-18.49c6.14.11,12.34-.03,18.48,0Z"/>
      <path class="cls-6" d="M422.08,403.63c0,6.15.03,12.34,0,18.49-6.13.11-12.35.11-18.48,0,0-6.15,0-12.34,0-18.49h18.48Z"/>
      <path class="cls-7" d="M403.6,52.37c.21,12.29-.03,24.68,0,36.97-6.15-.02-12.34.01-18.48,0-6.15-.01-12.34,0-18.48,0v-18.49c6.14-.1,12.35.07,18.49,0l-.02-18.51c6.14,0,12.35,0,18.49,0Z"/>
      <path class="cls-11" d="M329.67,403.63c.11,6.14-.08,12.35,0,18.5h18.49c-.02,6.14.03,12.33,0,18.48h-55.45v-36.97h36.96Z"/>
      <path class="cls-12" d="M348.15,440.61c-.03,6.15.11,12.34,0,18.49-12.29.2-24.67-.06-36.96,0-6.14.03-12.34-.11-18.48,0v-18.49h55.45Z"/>
      <path class="cls-11" d="M292.71,459.09c6.14-.11,12.34.03,18.48,0v18.49c-6.15.03-12.34-.03-18.48,0-6.14.03-12.34-.11-18.48,0v-18.5c6.13-.07,12.34.12,18.48,0Z"/>
      <path class="cls-4" d="M459.04,311.2c.11,6.14-.07,12.34,0,18.49h-18.49s0-18.49,0-18.49c6.14.03,12.34-.11,18.48,0Z"/>
      <path class="cls-6" d="M477.52,385.14c-.01,12.3.07,24.68,0,36.97-6.15.03-12.34-.02-18.48,0v-36.97h18.48Z"/>
      <path class="cls-1" d="M385.11,292.71h18.48c0,6.15,0,12.34,0,18.49-6.15-.02-12.34.01-18.48,0-6.15-.01-12.34.01-18.48,0-.02-6.15.03-12.34,0-18.49h18.48Z"/>
      <path class="cls-4" d="M422.08,311.2c0,6.14-.11,12.35,0,18.49-6.15-.02-12.34.03-18.48,0v-18.49c6.15.02,12.34-.02,18.48,0Z"/>
      <path class="cls-3" d="M366.63,292.71c.03,6.15-.02,12.34,0,18.49,6.15.01,12.34-.01,18.48,0v18.5c6.14.02,12.34-.04,18.48,0,6.15.03,12.34-.02,18.48,0,.11,6.14-.08,12.35,0,18.5,12.3-.01,24.67,0,36.97,0,.11,6.14-.08,12.35,0,18.5,6.14.04,12.35-.07,18.49,0,.02,6.15,0,12.34,0,18.49h-18.48c-6.15,0-12.34,0-18.48,0-.1-6.14.07-12.35,0-18.5-6.14-.07-12.35.12-18.49,0-6.14-.11-12.34,0-18.48,0v-18.5c-12.29-.04-24.67.08-36.96,0-.03-12.3.03-24.67,0-36.97-6.15-.01-12.34.01-18.48,0,.03-6.15-.03-12.34,0-18.49h18.48Z"/>
      <path class="cls-4" d="M200.3,237.25c.1,6.14-.07,12.35,0,18.5,6.14.07,12.35-.11,18.49,0,.11,6.14-.08,12.35,0,18.5,6.14.07,12.35-.11,18.49,0v18.5c6.13.07,12.34-.11,18.48,0v18.5c6.13.07,12.34-.11,18.48,0v18.5c6.13.07,12.34-.11,18.48,0v129.41c-6.14.11-12.35-.08-18.49,0v18.5c-6.13.11-12.34-.08-18.48,0l.02,18.51h-73.94c0-2.58.92-18.5,0-18.5h-55.45v-18.5s-18.49.02-18.49.02l.02-18.51h-18.49c-.07-30.77-.15-61.65,0-92.43h36.97s-.02,18.5-.02,18.5h18.49s0,36.97,0,36.97h18.49s-.02,18.5-.02,18.5l18.5-.02v18.5s55.44,0,55.44,0v-18.5s18.49.02,18.49.02c.03-12.3-.08-24.68,0-36.98,6.14-.11,12.34.08,18.48,0v-36.97c-6.14-.08-12.34.11-18.48,0-.1-6.14.07-12.35,0-18.5-6.14-.07-12.35.11-18.49,0-.11-6.14.08-12.35,0-18.5l-18.5.02.02-18.51-18.5.02.02-18.51-18.5.02c-.03-12.3.07-24.68,0-36.98h18.48Z"/>
      <path class="cls-5" d="M144.85,311.2c.11,6.14-.08,12.35,0,18.5,12.3.03,24.68-.08,36.97,0,.03,6.15-.02,12.34,0,18.49.05,18.46-.04,37,0,55.46h55.45c.07-6.14-.1-12.35,0-18.49,6.14.03,12.34.11,18.48,0-.07,12.3.04,24.68,0,36.98l-18.5-.02v18.5s-55.44,0-55.44,0v-18.5s-18.49.02-18.49.02l.02-18.51h-18.49s0-36.97,0-36.97h-18.49s.02-18.5.02-18.5h-36.97c.03-6.14-.11-12.33,0-18.48,6.14-.06,12.35.05,18.49,0,.04-6.14-.07-12.35,0-18.5,12.29-.2,24.67.15,36.96,0Z"/>
      <path class="cls-9" d="M163.33,292.71c.1,6.14-.07,12.35,0,18.5,6.14.04,12.35-.07,18.49,0,.11,6.14-.03,12.34,0,18.49,6.15.03,12.34-.03,18.48,0,.11,6.14-.04,12.34,0,18.49h-18.48c-.02-6.15.03-12.34,0-18.49-12.3-.07-24.68.04-36.97,0-.07-6.14.12-12.35,0-18.5-.11-6.14.04-12.34,0-18.49,6.14-.03,12.34-.11,18.48,0Z"/>
      <path class="cls-11" d="M237.26,237.25h55.45v18.49c-24.58.12-49.35.4-73.93,0-.11-6.14.03-12.34,0-18.49h18.48Z"/>
      <path class="cls-12" d="M255.74,200.27c.1,6.14-.07,12.35,0,18.5,12.29.13,24.68-.21,36.97,0,0,6.15,0,12.34,0,18.49h-55.45v-36.98s18.48,0,18.48,0Z"/>
      <path class="cls-1" d="M329.67,144.81c-6.14-.06-12.35.04-18.49,0v-18.51s18.5,0,18.5,0c.07,6.14-.12,12.35,0,18.5,6.14.06,12.35-.04,18.49,0,.02,6.15-.04,12.35,0,18.5,3.2,0,18.23-.86,18.51,1.06l-.02,17.43c-6.14,0-12.35,0-18.49,0-.02-6.15.03-12.34,0-18.49-6.14,0-12.34,0-18.48,0-.11-6.14.11-12.34,0-18.49Z"/>
      <path class="cls-13" d="M403.6,163.3c.03,6.15-.11,12.34,0,18.49h-18.49c0-6.14,0-12.34,0-18.49h18.48Z"/>
      <path class="cls-13" d="M348.15,163.3c.03,6.15-.02,12.34,0,18.49-6.15,0-12.35,0-18.49,0-.07-6.14.12-12.35,0-18.5,6.14,0,12.34,0,18.48,0Z"/>
      <path class="cls-1" d="M403.6,144.81c.02,6.15-.03,12.34,0,18.49h-18.48c0-6.15,0-12.35,0-18.5h18.49Z"/>
      <path class="cls-12" d="M311.19,292.71v18.49c-12.29-.03-24.68.2-36.96,0-6.14-.1-12.35.07-18.49,0v-18.5c18.45.3,37.01-.07,55.46,0Z"/>
      <path class="cls-8" d="M440.56,385.14c.2,12.3-.15,24.69,0,36.98-6.14.07-12.35-.12-18.49,0,.03-6.15,0-12.34,0-18.49,0-6.15,0-12.34,0-18.49,6.15.03,12.34,0,18.48,0Z"/>
      <path class="cls-6" d="M422.08,366.66c6.14.11,12.35-.08,18.49,0,.07,6.14-.11,12.35,0,18.5-6.15,0-12.34.03-18.48,0v-18.49Z"/>
      <path class="cls-8" d="M348.15,385.14c-.01,6.15.02,12.34,0,18.49-6.15-.03-12.34,0-18.48,0-.11-6.14,0-12.34,0-18.49h18.48Z"/>
      <path class="cls-12" d="M329.67,385.14c0,6.14-.11,12.35,0,18.49h-36.96v-18.49h36.96Z"/>
      <path class="cls-6" d="M403.6,311.2v18.49c-6.15-.03-12.35.03-18.49,0v-18.5c6.16.01,12.35-.02,18.49,0Z"/>
      <path class="cls-11" d="M311.19,311.2c12.3.03,24.67-.03,36.96,0-.03,6.15.02,12.34,0,18.49-18.45-.22-37,.3-55.45,0-6.14-.1-12.35.07-18.49,0v-18.5c12.3.2,24.68-.03,36.97,0Z"/>
      <path class="cls-11" d="M329.67,348.17v36.97h-36.96v-36.97h36.96Z"/>
      <path class="cls-12" d="M348.15,329.68c-.02,6.15.01,12.34,0,18.49-6.15,0-12.34,0-18.48,0h-36.96v-18.49c18.44.3,37-.22,55.45,0Z"/>
    </g>
  </g>
</svg>