<?xml version="1.0" encoding="UTF-8"?>
<svg id="Layer_1" data-name="Layer 1" xmlns="http://www.w3.org/2000/svg" viewBox="0 0 566.93 566.93">
  <defs>
    <style>
      .cls-1 {
        fill: #8b2d86;
      }

      .cls-2 {
        fill: #010101;
      }

      .cls-3 {
        fill: #be3990;
      }

      .cls-4 {
        fill: #f3ec5c;
      }

      .cls-5 {
        fill: #ef5ca1;
      }
    </style>
  </defs>
  <g id="sMdajP.tif">
    <g>
      <path class="cls-2" d="M484.06,210.64c.3,18.15.09,36.46,0,54.62-6.06,0-12.18,0-18.24,0-.03-12.11.08-24.31,0-36.42-.03-6.05-.03-12.15,0-18.21,6.06,0,12.17,0,18.23,0Z"/>
      <path class="cls-2" d="M101.21,119.61v18.21c6.06,0,12.18,0,18.24,0l-.02,18.22,18.25-.02c.07,6.05-.12,12.17,0,18.22,12.13.06,24.34-.04,36.47,0,.07,6.05-.12,12.16,0,18.22,12.13.06,24.34-.04,36.47,0,.06,6.05-.11,12.16,0,18.22,6.06.1,12.18-.07,18.24,0,.03,12.11-.07,24.31,0,36.42,18.2.3,36.5-.21,54.7,0,.03,6.05-.07,12.16,0,18.22,6.06.1,12.18-.07,18.24,0,.04,6.05-.07,12.16,0,18.22,12.12.2,24.34,0,36.46,0,.03-6.05-.03-12.16,0-18.22,6.06-.06,12.18.11,18.24,0,.11-6.05-.08-12.17,0-18.22,18.21-.05,36.5.1,54.7,0,.11-6.05-.08-12.17,0-18.22,6.06-.07,12.18.12,18.24,0,.11-6.05-.08-12.16,0-18.22,6.06-.07,12.18.12,18.24,0,.11-6.05-.08-12.17,0-18.22,6.06,0,12.18,0,18.24,0-.11,6.05.03,12.15,0,18.21-6.06,0-12.17-.11-18.23,0-.11,6.05.11,12.16,0,18.21-6.06,0-12.17-.11-18.23,0-.11,6.05.11,12.15,0,18.21-6.06.11-12.17-.03-18.23,0-.11,6.05.04,12.15,0,18.21-.08,12.11.06,24.31,0,36.42-6.06.03-12.18-.07-18.24,0-.1,6.05.07,12.16,0,18.22-6.06.03-12.18-.07-18.24,0,.11-6.05-.08-12.17,0-18.22,6.06-.03,12.18.07,18.24,0,.2-12.11-.15-24.31,0-36.42-12.13.16-24.35-.19-36.47,0-.11,6.05.11,12.16,0,18.21h-18.23c-.03,6.05.02,12.15,0,18.21-12.13.2-24.34-.15-36.47,0-.03-6.05.07-12.16,0-18.22-6.06-.1-12.18.07-18.24,0-.04-6.05.07-12.16,0-18.22-12.13-.2-24.34.15-36.47,0-.06,6.05.11,12.16,0,18.22-.2,12.1.03,24.31,0,36.41,6.06.03,12.18-.03,18.24,0,.07,6.05-.12,12.16,0,18.22h-18.23c.02-6.05-.02-12.15,0-18.21-6.06-.03-12.17.02-18.23,0-.01-6.05.02-12.15,0-18.21-.06-18.18.09-36.44,0-54.62-6.06-.1-12.18.07-18.24,0-.13-12.11.21-24.31,0-36.42-12.12-.2-24.34.06-36.46,0-.11-6.05.11-12.15,0-18.21-12.13-.06-24.33,0-36.46,0-.11-6.05.11-12.16,0-18.21-12.13-.06-24.33.04-36.46,0v-36.41c-6.06,0-12.18,0-18.24,0,.01,12.12,0,24.3,0,36.42,6.06.07,12.17-.02,18.23,0v18.21c0,6.05,0,12.15,0,18.21,6.06.06,12.17-.04,18.23,0v54.62c-6.06.04-12.17-.06-18.23,0,.03,6.05-.11,12.16,0,18.21,18.2.28,36.5-.2,54.7,0,.28,24.24-.41,48.6,0,72.83,6.06.11,12.17-.03,18.23,0,.05-6.05-.04-12.16,0-18.22h54.7c.03,6.06-.11,12.17,0,18.22,6.06-.01,12.17.03,18.23,0,.02,6.05-.02,12.15,0,18.21,6.06.11,12.17-.03,18.23,0,.03,12.11-.06,24.3,0,36.41.03,6.05-.11,12.16,0,18.21,18.15.3,36.55.3,54.69,0,.11-6.05-.11-12.15,0-18.21,6.06-.03,12.17.11,18.23,0,.11-6.05,0-12.16,0-18.21,6.06-.11,12.17.11,18.23,0,.11-6.05-.11-12.16,0-18.21,6.06-.03,12.17.11,18.23,0,.11-6.05-.03-12.15,0-18.21,6.06-.11,12.17.03,18.23,0,.06-6.05-.04-12.16,0-18.21h36.46c.04,6.05-.05,12.16,0,18.21,6.06-.03,12.17.11,18.23,0,.3-18.17-.21-36.45,0-54.63,6.06-.03,12.18.07,18.24,0,.1-6.05-.07-12.17,0-18.22,6.06,0,12.18,0,18.24,0-.11,6.05.08,12.17,0,18.22-6.06.03-12.18-.07-18.24,0-.3,18.17.21,36.45,0,54.63-6.06.07-12.18-.12-18.24,0-.1,6.05.07,12.17,0,18.22l-17.19.02c-1.92-.29-1.02-15.06-1.05-18.24-12.13.06-24.33-.06-36.46,0-.06,6.05.05,12.16,0,18.22-6.06.07-12.18-.12-18.24,0-.11,6.05.08,12.17,0,18.22-6.06.07-12.18-.12-18.24,0-.11,6.05.08,12.17,0,18.22-6.06.07-12.18-.12-18.24,0-.11,6.05.08,12.17,0,18.22-6.06.06-12.18-.11-18.24,0-.11,6.05.08,12.16,0,18.21h-54.69c-.08-6.05.11-12.16,0-18.21-6.06-.1-12.18.07-18.24,0-.02-18.18.06-36.44,0-54.63-6.06-.11-12.18.08-18.24,0-.07-6.05.12-12.17,0-18.22-18.2.04-36.49.09-54.69,0-.03,3.17.87,17.95-1.05,18.24l-17.19-.02c-.06-6.05.11-12.16,0-18.22-6.06-.11-12.18.08-18.23,0v-54.62h-36.46c-.08-6.05.11-12.16,0-18.21-3.19-.05-17.97.88-18.26-1.05l.02-17.17c6.06-.04,12.18.07,18.24,0-.09-18.18.02-36.44,0-54.62-6.06-.06-12.18.05-18.24,0,.01-12.12,0-24.3,0-36.42-6.65-.07-17.76-.22-17.69-.4l-.45.03c0-.24-.1-8.98-.02-11.33.5-14.27-.52-28.68-.08-42.93h36.46Z"/>
      <path class="cls-2" d="M502.3,156.02v54.62h-18.23c-.1-6.05.07-12.17,0-18.22-6.06,0-12.18,0-18.24,0,.11-6.05-.08-12.17,0-18.22l18.25.02-.02-18.22h18.24Z"/>
      <path class="cls-2" d="M502.3,265.26v18.21c-6.06,0-12.17,0-18.23,0,.11-6.05-.03-12.15,0-18.21,6.06,0,12.17,0,18.23,0Z"/>
      <path class="cls-5" d="M101.21,137.82v36.41c12.13.04,24.33-.06,36.46,0,.11,6.05-.11,12.16,0,18.21,12.13,0,24.33-.06,36.46,0,.11,6.05-.11,12.15,0,18.21,12.12.06,24.34-.2,36.46,0,.2,12.11-.14,24.31,0,36.42,6.06.06,12.18-.11,18.24,0,.09,18.18-.06,36.44,0,54.62h-18.23v-36.41h-18.23v-36.41h-18.24c-.07-6.04.12-12.16,0-18.21-12.13-.06-24.34.04-36.47,0-.07-6.05.12-12.17,0-18.22h-36.46v-18.21c-6.06-.02-12.17.07-18.23,0,0-12.12,0-24.3,0-36.42,6.06,0,12.18,0,18.24,0Z"/>
      <path class="cls-5" d="M465.83,192.43c6.06,0,12.18,0,18.24,0,.06,6.05-.11,12.16,0,18.22-6.06,0-12.17,0-18.23,0,.03-6.05-.11-12.16,0-18.21Z"/>
      <path class="cls-5" d="M465.83,210.64c-.03,6.05-.03,12.15,0,18.21h-18.23c-.11,6.05.08,12.17,0,18.22-6.06.07-12.18-.12-18.24,0-.11,6.05.08,12.16,0,18.22h-18.24c.04-6.06-.11-12.17,0-18.22,6.06-.03,12.17.11,18.23,0,.11-6.05-.11-12.15,0-18.21,6.06-.11,12.17,0,18.23,0,.11-6.05-.11-12.16,0-18.21,6.06-.11,12.17,0,18.23,0Z"/>
      <path class="cls-1" d="M465.83,228.85c.07,12.11-.04,24.31,0,36.42,6.06,0,12.18,0,18.24,0-.03,6.05.11,12.16,0,18.21-6.06,0-12.18,0-18.24,0-.06,6.05.11,12.16,0,18.22-6.06.06-12.18-.04-18.24,0-.2,18.17.31,36.46,0,54.63-6.06.11-12.17-.03-18.23,0-.05-6.05.04-12.16,0-18.21h-36.46c-.04,6.05.06,12.16,0,18.21-6.06.03-12.17-.11-18.23,0-.03,6.05.11,12.16,0,18.21-6.06.11-12.17-.03-18.23,0-.11,6.05.11,12.16,0,18.21-6.06.11-12.17-.11-18.23,0,0,6.05.11,12.16,0,18.21-6.06.11-12.17-.03-18.23,0-.11,6.05.11,12.16,0,18.21-18.15.3-36.55.3-54.69,0-.11-6.05.03-12.15,0-18.21,18.2-.07,36.49.09,54.69,0,.11-6.05-.08-12.17,0-18.22,6.06-.07,12.18.12,18.24,0v-18.21c6.06-.01,12.17.03,18.23,0,.11-6.05-.08-12.17,0-18.22,6.06-.07,12.18.12,18.24,0,.03-6.05-.03-12.15,0-18.21s-.11-12.16,0-18.21c6.06-.06,12.18.04,18.24,0,.06-6.05-.11-12.16,0-18.22,6.06-.06,12.18.04,18.24,0,.05-12.11-.09-24.31,0-36.42h18.24c.07-6.04-.12-12.16,0-18.21,6.06-.11,12.18.08,18.24,0,.07-6.05-.12-12.17,0-18.22h18.23Z"/>
      <path class="cls-3" d="M247.06,283.46h18.24s-.02,18.22-.02,18.22h18.24s0,54.61,0,54.61c-6.05.08-12.18-.11-18.23,0-.03-6.05.11-12.16,0-18.21s.08-12.17,0-18.22c-6.06-.02-12.18.04-18.24,0,.03-12.11-.2-24.31,0-36.41Z"/>
      <path class="cls-3" d="M137.67,192.43c.11,6.05-.08,12.17,0,18.22,12.13.03,24.34-.07,36.47,0,.11,6.05-.08,12.17,0,18.22h18.24s0,36.4,0,36.4h18.23v36.41h18.23c.02,6.05-.01,12.15,0,18.21s-.03,12.15,0,18.21c6.06,0,12.17,0,18.23,0-.02,6.05-.02,12.15,0,18.21,6.06-.03,12.17.11,18.23,0,.03,6.05-.02,12.15,0,18.21,24.28.12,48.65.06,72.92,0v18.21c-6.06.11-12.18-.08-18.24,0-.07,6.05.12,12.16,0,18.22-18.2.09-36.49-.07-54.69,0-.06-12.11.03-24.3,0-36.41-6.06-.03-12.17.11-18.23,0-.02-6.05.02-12.15,0-18.21-6.06.03-12.17-.01-18.23,0-.11-6.05.03-12.15,0-18.21h-54.7c-.03,6.04.06,12.15,0,18.21-6.06-.03-12.17.11-18.23,0-.4-24.24.29-48.59,0-72.83-18.2-.19-36.5.29-54.7,0-.11-6.05.03-12.15,0-18.21,6.06-.06,12.17.04,18.23,0v-54.62c-6.06-.04-12.17.06-18.23,0,0-6.05,0-12.15,0-18.21h36.46Z"/>
      <path class="cls-5" d="M283.52,265.26c.06,6.05-.04,12.16,0,18.22,6.06.06,12.18-.11,18.24,0,.06,6.05-.04,12.16,0,18.22,12.13-.16,24.35.19,36.47,0,6.06-.1,12.18.07,18.24,0,.07-6.05-.12-12.17,0-18.22s-.11-12.16,0-18.21c12.13-.2,24.34.15,36.47,0-.16,12.11.19,24.31,0,36.42-6.06.06-12.18-.04-18.24,0-.07,6.05.12,12.16,0,18.22-6.06.06-12.18-.04-18.24,0l-.02,17.17,18.26,1.05c-.03,6.05.03,12.15,0,18.21-6.06.11-12.18-.08-18.24,0-.07,6.05.12,12.17,0,18.22-6.06.03-12.17-.01-18.23,0-24.28.06-48.65.12-72.92,0-.02-6.05.03-12.15,0-18.21,6.06-.11,12.18.08,18.23,0v-54.62h-18.24s.02-18.22.02-18.22h-18.24c.1-6.04-.07-12.16,0-18.21,12.13.16,24.35-.19,36.47,0ZM319.99,319.87h-18.25v18.22h18.25v-18.22Z"/>
      <path class="cls-5" d="M247.06,319.88c-.02,6.05.02,12.15,0,18.21h18.23c.11,6.05-.03,12.15,0,18.21-6.06.11-12.17-.03-18.23,0-.02-6.05-.02-12.15,0-18.21-6.06,0-12.17,0-18.23,0-.03-6.05.01-12.15,0-18.21,6.06.02,12.17-.03,18.23,0Z"/>
      <path class="cls-3" d="M356.45,283.46c-.11,6.05.08,12.17,0,18.22-6.06.06-12.18-.11-18.24,0,.02-6.05-.03-12.15,0-18.21h18.23Z"/>
      <path class="cls-4" d="M374.68,319.88c-.11,6.05.03,12.15,0,18.21l-18.26-1.05.02-17.17c6.06-.03,12.18.07,18.24,0Z"/>
      <rect class="cls-4" x="301.74" y="319.87" width="18.25" height="18.22"/>
    </g>
  </g>
</svg>