<?xml version="1.0" encoding="UTF-8"?>
<svg id="Layer_1" data-name="Layer 1" xmlns="http://www.w3.org/2000/svg" viewBox="0 0 566.93 566.93">
  <defs>
    <style>
      .cls-1 {
        fill: #010101;
      }

      .cls-2 {
        fill: #6dac43;
      }

      .cls-3 {
        fill: #507b39;
      }

      .cls-4 {
        fill: #8f6226;
      }

      .cls-5 {
        fill: #a9d160;
      }

      .cls-6 {
        fill: #ece82f;
      }
    </style>
  </defs>
  <g id="T18WmT.tif">
    <g>
      <path class="cls-1" d="M222.88,82.4c.11-5.84-.08-11.74,0-17.57h87.81c.08,5.84-.11,11.74,0,17.57,11.69.06,23.45-.04,35.13,0,.07,5.84-.11,11.74,0,17.58,5.84.1,11.73-.07,17.57,0,.07,5.84-.11,11.74,0,17.58,5.83.11,11.73-.08,17.56,0v35.15h35.12c.08,5.84-.11,11.74,0,17.57,5.84.1,11.73-.07,17.57,0l.02,16.57c-.28,1.85-14.53.99-17.59,1.01-.05,11.7.03,23.46,0,35.16-5.84.07-11.73-.11-17.57,0,.05,11.7-.03,23.46,0,35.16l17.58-.02c.03,5.84-.07,11.74,0,17.58,5.84.1,11.73-.07,17.57,0,.06,5.84-.1,11.74,0,17.58,5.84.06,11.73-.04,17.57,0-.1,35.12.1,70.33,0,105.46-5.84-.03-11.73.02-17.57,0-.41-35.11.59-70.35,0-105.46-5.84-.06-11.73.04-17.57,0-.03-5.84.07-11.74,0-17.58-11.68-.19-23.45.2-35.12,0,.21-17.54-.29-35.18,0-52.72,5.84-.11,11.73.1,17.56,0-.03-5.84-.1-11.74,0-17.57s-.08-11.74,0-17.58c5.84-.03,11.73.06,17.57,0,.02-5.84.11-11.74,0-17.57-11.68-.19-23.45.15-35.13,0l.02,17.59c-5.84.06-11.73-.11-17.57,0-.1,5.84.08,11.74,0,17.58-5.84.07-11.73-.11-17.57,0s-11.73,0-17.56,0v17.57c-5.84,0-11.73,0-17.57,0,0-5.84,0-11.74,0-17.58h17.56c0-5.84-.1-11.74,0-17.57,11.68-.19,23.45.19,35.12,0,.1-5.84-.03-11.73,0-17.57.06-11.69.06-23.46,0-35.15-.03-5.84.1-11.74,0-17.57-5.84-.11-11.72.04-17.56,0-.1-5.84.1-11.73,0-17.57-11.67-.19-23.45.03-35.12,0-.1-5.84.11-11.73,0-17.57-29.23-.15-58.58-.15-87.81,0-.11,5.84.1,11.73,0,17.57-11.68.03-23.45-.2-35.12,0-.1,5.84.03,11.73,0,17.57-.09,17.55.07,35.18,0,52.73l17.58-.02v17.59c-11.69.03-23.45-.07-35.13,0v-17.58c-17.52.23-35.16-.28-52.68,0-.11,5.83-.1,11.75,0,17.57,5.84.1,11.72-.03,17.56,0,.02,5.84-.03,11.73,0,17.57,5.84.1,11.72-.1,17.56,0,0,5.84-.1,11.74,0,17.57,5.84.1,11.72-.1,17.56,0,.1,5.84-.03,11.73,0,17.57,5.84.1,11.72-.1,17.56,0,3.08.05,17.31-.86,17.59,1.01l-.02,16.57c-5.84.07-11.73-.11-17.57,0s-11.72-.1-17.56,0c-.03,5.84.1,11.74,0,17.57-5.84.1-11.72-.1-17.56,0-.1,5.84.1,11.73,0,17.57-5.84.1-11.72-.1-17.56,0-.1,5.84.1,11.73,0,17.57-5.83.1-11.73,0-17.56,0-.1,5.84.03,11.73,0,17.57-.17,35.08-.58,70.38,0,105.45,5.84.06,11.73-.04,17.57,0,.03,5.84-.07,11.74,0,17.58,5.83.1,11.73.02,17.56,0,3.96-.02,34.88.78,35.15-1.01l-.02-16.57h-35.13c0-11.69,0-23.45,0-35.15,5.84-.07,11.73.11,17.57,0,.1,5.84-.07,11.74,0,17.58,11.69.03,23.45-.07,35.13,0v-17.57c5.84-.01,11.72.02,17.56,0,46.77-.14,93.73.77,140.49,0,5.84-.1,11.73.07,17.57,0,.06-5.84-.1-11.74,0-17.58.29-17.49.29-35.23,0-52.72-5.84-.06-11.73.04-17.57,0v-17.59s17.58,0,17.58,0c.06,5.84-.11,11.74,0,17.58,5.84.06,11.73-.04,17.57,0,.41,35.11-.59,70.35,0,105.46.1,5.84-.07,11.74,0,17.58,17.54-.02,35.15,0,52.69,0-.11,5.84.08,11.74,0,17.57h-35.12v17.58c-5.83.06-11.73-.11-17.56,0-.03-5.84.02-11.74,0-17.58-5.84-.06-11.73.11-17.57,0v-52.73c-58.5-.21-117.11.31-175.61,0v52.72c-11.69.06-23.45-.04-35.13,0,0,5.84,0,11.74,0,17.58,40.93.67,82-.51,122.94,0,.06-5.84-.11-11.74,0-17.58.07-4-.82-34.9,1.01-35.18l16.56.02c.13,11.69-.2,23.47,0,35.16.1,5.84-.07,11.74,0,17.58,29.23-.37,58.59.47,87.82,0,.03,5.84-.02,11.73,0,17.57h-228.3c0-5.84,0-11.73,0-17.57-5.84-.1-11.73.07-17.57,0l.02-17.59-17.58.02c-.03-5.84.07-11.74,0-17.58-5.84-.1-11.73.08-17.57,0-.06-5.84.1-11.74,0-17.58-5.84-.06-11.73.04-17.57.01l-1.75-10.56v-112.48h19.32c.1-5.84-.08-11.74,0-17.58,5.84-.07,11.73.11,17.57,0,.1-5.84-.08-11.74,0-17.58,5.84-.07,11.73.11,17.57,0,.1-5.84-.08-11.74,0-17.58,5.84-.07,11.73.11,17.57,0,.03-5.84.03-11.73,0-17.57-5.84-.1-11.73.08-17.57,0-.07-5.84.11-11.74,0-17.58-5.84-.1-11.73.08-17.57,0-.02-5.84.04-11.74,0-17.58-5.84-.1-11.73.08-17.57,0-.07-5.84.11-11.74,0-17.58-3.08-.05-17.31.86-17.59-1.01l.02-16.57c5.84-.06,11.73.11,17.57,0,.11-5.84-.08-11.74,0-17.57h52.68v-52.72c5.83-.07,11.73.1,17.56,0,.1-5.84-.08-11.74,0-17.58,11.69-.03,23.45.07,35.13,0Z"/>
      <path class="cls-1" d="M187.75,328.44c.1-5.84-.08-11.74,0-17.58h17.58s0,17.59,0,17.59c-5.84.03-11.73-.07-17.57,0-.1,5.84.03,11.73,0,17.57-.09,17.55.06,35.18,0,52.72-5.84.03-11.73-.1-17.56,0-.39-23.4.29-46.91,0-70.31,5.84-.03,11.73.07,17.57,0Z"/>
      <path class="cls-1" d="M468.74,398.74v52.72h-17.56c.11-5.84-.03-11.73,0-17.57.06-11.69-.04-23.46,0-35.15,5.84.03,11.72-.02,17.56,0Z"/>
      <path class="cls-4" d="M205.32,416.32c58.51.3,117.11-.22,175.62,0v52.73c-23.38-.38-46.88.28-70.26,0-.19-11.69.14-23.47,0-35.16l-16.56-.02c-1.83.28-.95,31.18-1.01,35.18-29.24.11-58.57-.15-87.81,0v-52.72Z"/>
      <path class="cls-2" d="M205.32,469.04c29.24-.15,58.57.11,87.81,0-.1,5.84.07,11.74,0,17.58-40.94-.52-82.01.66-122.94,0,0-5.84,0-11.74,0-17.58,11.69-.03,23.45.07,35.13,0Z"/>
      <path class="cls-2" d="M380.93,469.04c5.84.1,11.73-.07,17.57,0,.02,5.84-.04,11.74,0,17.58-29.23.48-58.58-.36-87.82,0-.06-5.84.11-11.74,0-17.58,23.38.28,46.87-.38,70.25,0Z"/>
      <path class="cls-2" d="M187.75,398.74c5.84-.03,11.72.01,17.56,0v17.57c-11.69-.06-23.45.04-35.13,0-.06-5.84.11-11.74,0-17.58,5.84-.1,11.72.03,17.56,0Z"/>
      <path class="cls-2" d="M310.68,99.97c.1,5.84-.08,11.74,0,17.58,11.68.05,23.45-.09,35.13,0,.1,5.84-.08,11.74,0,17.58h17.57c.06,11.68.06,23.45,0,35.14h-35.13c-.07,5.83.11,11.73,0,17.57-5.84.1-11.73-.07-17.57,0,0,5.84,0,11.74,0,17.58,0,5.84,0,11.74,0,17.58,5.84,0,11.73,0,17.57,0,5.84,0,11.73,0,17.57,0v-17.58c5.83-.1,11.73.08,17.56,0,.07-5.84-.11-11.74,0-17.58,5.84-.1,11.73.07,17.57,0l-.02-17.59c11.68.15,23.45-.18,35.13,0,.11,5.84.02,11.74,0,17.57-5.84.05-11.73-.04-17.57,0-.07,5.84.11,11.74,0,17.58h-17.57c-.06,5.83.1,11.73,0,17.57-5.83.11-11.73-.08-17.56,0v52.72c5.83.07,11.73-.1,17.56,0,11.68.2,23.45-.19,35.12,0,.06,5.84-.04,11.74,0,17.58,5.84.03,11.73-.07,17.57,0,.58,35.11-.42,70.35,0,105.46,5.84.02,11.73-.04,17.57,0-.04,11.69.06,23.46,0,35.15h-52.68c-.58-35.11.42-70.35,0-105.46-5.84-.03-11.73.07-17.57,0-.1-5.84.07-11.74,0-17.58h-17.58s0,17.59,0,17.59c5.84.03,11.73-.07,17.57,0,.29,17.49.29,35.23,0,52.72h-17.57s0,17.57,0,17.57c-46.76.77-93.72-.14-140.49,0v-17.58s-17.56,0-17.56,0v-35.15h-17.56c.03-5.84-.1-11.74,0-17.57,5.84-.06,11.73.04,17.57,0v-17.59s-17.58,0-17.58,0c-.07,5.84.11,11.74,0,17.58-5.84.06-11.73-.04-17.57,0,.3,23.4-.38,46.91,0,70.31-5.84.1-11.74-.08-17.57,0,.01,11.7,0,23.46,0,35.16v17.57c-5.83.02-11.73.1-17.56,0-.06-5.84.04-11.74,0-17.58-5.84-.03-11.73.07-17.57,0-.58-35.06-.17-70.37,0-105.45h17.57c.07-5.83-.11-11.73,0-17.57,5.84-.1,11.73.08,17.57,0,.07-5.84-.11-11.74,0-17.58,5.84-.1,11.73.08,17.57,0,.07-5.84-.11-11.74,0-17.58,5.84-.1,11.73.08,17.57,0v-17.58c5.83-.1,11.73.08,17.56,0l.02-16.57c-.28-1.87-14.52-.96-17.59-1.01v-17.58c-5.83-.07-11.72.11-17.56,0-.1-5.84.08-11.74,0-17.58-5.84-.07-11.73.11-17.57,0v-17.57c5.84-.01,11.72.03,17.56,0,11.69-.07,23.45.04,35.13,0v-17.59s-17.58.02-17.58.02c.08-17.55-.08-35.18,0-52.73h35.13c.07-5.83-.11-11.73,0-17.57,29.24-.07,58.57-.07,87.81,0ZM222.88,187.85v17.58c5.83.07,11.73-.11,17.56,0v17.58c5.83,0,11.72,0,17.56,0,5.84,0,11.73,0,17.57,0,0-5.84,0-11.74,0-17.58,0-5.84,0-11.74,0-17.58-5.84-.06-11.73.1-17.57,0-.11-5.84.08-11.74,0-17.57h-35.12c0,5.84,0,11.73,0,17.57ZM275.56,258.14c-5.84.1-11.73-.07-17.57,0v17.59s17.58,0,17.58,0c.04-5.84-.07-11.74,0-17.58,11.65-.19,23.47-.19,35.12,0,.06,5.84-.04,11.74,0,17.58h17.58s0-17.59,0-17.59c-5.84-.06-11.73.11-17.57,0-.06-5.84.04-11.74,0-17.57h-35.12c-.04,5.84.06,11.73,0,17.57ZM328.25,293.29h-70.25v17.57h70.25v-17.57ZM293.12,346.02h-70.25v17.57h70.25v-17.57ZM363.37,346.02h-52.68v17.57h52.68v-17.57Z"/>
      <path class="cls-5" d="M187.75,258.14v17.58c-5.83.07-11.72-.11-17.56,0-.1,5.84.08,11.74,0,17.58-5.84.07-11.73-.11-17.57,0-.1,5.84.08,11.74,0,17.58-5.84.07-11.73-.11-17.57,0-.1,5.84.08,11.74,0,17.58h-17.57c.03-5.85-.1-11.74,0-17.58,5.84,0,11.73.1,17.56,0,.1-5.84-.1-11.73,0-17.57,5.84-.1,11.72.1,17.56,0,.1-5.84-.1-11.73,0-17.57,5.84-.1,11.72.1,17.56,0,.1-5.84-.03-11.73,0-17.57,5.84-.1,11.72.1,17.56,0Z"/>
      <path class="cls-3" d="M451.18,433.89c-.03,5.84.11,11.74,0,17.57-17.54,0-35.15,0-52.69,0-.06-5.84.11-11.74,0-17.58h52.68Z"/>
      <path class="cls-5" d="M117.51,170.27c17.53-.29,35.16.22,52.69,0v17.58c-5.85.03-11.73-.01-17.57,0-5.84.01-11.72.03-17.56,0-5.84-.03-11.73.1-17.56,0-.1-5.83-.11-11.75,0-17.57Z"/>
      <path class="cls-5" d="M310.68,82.4c.11,5.84-.1,11.73,0,17.57,11.68.03,23.45-.19,35.12,0,.1,5.84-.1,11.73,0,17.57,5.84.04,11.73-.11,17.56,0,.1,5.84-.03,11.73,0,17.57h-17.57c-.07-5.83.11-11.73,0-17.57-11.68-.08-23.45.06-35.13,0-.07-5.84.11-11.74,0-17.58-29.24-.07-58.57-.07-87.81,0-.1,5.84.08,11.74,0,17.58h-35.13c.03-5.85-.1-11.74,0-17.58,11.67-.2,23.45.03,35.12,0,.1-5.84-.11-11.73,0-17.57,29.23-.15,58.58-.15,87.81,0Z"/>
      <path class="cls-5" d="M363.37,170.27c-.03,5.84.1,11.74,0,17.57-11.68.19-23.45-.19-35.12,0-.1,5.84,0,11.73,0,17.57h-17.56c0-5.84,0-11.74,0-17.58,5.84-.06,11.73.1,17.57,0,.1-5.84-.08-11.74,0-17.58h35.13Z"/>
      <path class="cls-3" d="M398.49,205.42c-.1,5.84-.03,11.74,0,17.57-5.84.1-11.73-.11-17.56,0-.29,17.54.21,35.18,0,52.72-5.83-.1-11.73.07-17.56,0v-52.72c5.83-.08,11.73.11,17.56,0,.1-5.84-.07-11.74,0-17.58h17.57Z"/>
      <path class="cls-3" d="M152.63,187.85v17.57c5.84.1,11.73-.08,17.57,0,.07,5.84-.11,11.74,0,17.58,5.84.1,11.73-.08,17.57,0v17.58c-5.85-.1-11.73.1-17.57,0-.03-5.84.1-11.74,0-17.57-5.84-.1-11.72.1-17.56,0-.1-5.84,0-11.73,0-17.57-5.84-.1-11.72.1-17.56,0-.03-5.84.02-11.73,0-17.57,5.84.03,11.72.01,17.56,0Z"/>
      <path class="cls-3" d="M152.63,433.89h35.13s.02,16.56.02,16.56c-.27,1.79-31.19,1-35.15,1.01v-17.57Z"/>
      <path class="cls-3" d="M187.75,346.02h17.56v35.15h17.57s0,17.57,0,17.57c-5.84.02-11.72-.01-17.56,0-5.84.01-11.72-.03-17.56,0,.06-17.55-.09-35.18,0-52.72Z"/>
      <path class="cls-3" d="M380.93,381.17c-.1,5.84.07,11.74,0,17.58-5.84.06-11.73-.11-17.57,0v-17.58s17.56,0,17.56,0Z"/>
      <rect class="cls-3" x="222.88" y="346.02" width="70.25" height="17.57"/>
      <rect class="cls-3" x="258" y="293.29" width="70.25" height="17.57"/>
      <rect class="cls-3" x="310.68" y="346.02" width="52.68" height="17.57"/>
      <path class="cls-1" d="M275.56,258.14c.06-5.84-.04-11.74,0-17.57h35.12c.04,5.84-.06,11.73,0,17.57,5.84.1,11.73-.07,17.57,0v17.59s-17.58,0-17.58,0c-.04-5.84.07-11.74,0-17.58-11.65-.19-23.47-.19-35.12,0-.06,5.84.04,11.74,0,17.58h-17.58s0-17.59,0-17.59c5.84-.06,11.73.11,17.57,0Z"/>
      <path class="cls-5" d="M222.88,187.85c0-5.84,0-11.73,0-17.57h35.12c.08,5.84-.11,11.74,0,17.57,5.84.1,11.73-.07,17.57,0,0,5.84,0,11.74,0,17.58h-17.56c0-5.84.11-11.74,0-17.57-11.68-.19-23.44.14-35.12,0Z"/>
      <path class="cls-1" d="M258,187.85c.11,5.84,0,11.73,0,17.57h17.56c0,5.84,0,11.74,0,17.58-5.84,0-11.73,0-17.57,0v-17.57c-5.84,0-11.73.1-17.56,0s-11.73.08-17.57,0v-17.58c11.69.14,23.45-.19,35.13,0Z"/>
      <path class="cls-6" d="M258,205.42v17.57c-5.84,0-11.73,0-17.57,0v-17.58c5.84.1,11.73,0,17.57,0Z"/>
      <path class="cls-6" d="M345.81,205.42v17.58c-5.83,0-11.72,0-17.56,0v-17.57c5.84,0,11.73.1,17.56,0Z"/>
    </g>
  </g>
</svg>