<?xml version="1.0" encoding="UTF-8"?>
<svg id="Layer_1" data-name="Layer 1" xmlns="http://www.w3.org/2000/svg" viewBox="0 0 566.93 566.93">
  <defs>
    <style>
      .cls-1 {
        fill: #010101;
      }

      .cls-2 {
        fill: #fff;
      }

      .cls-3 {
        fill: #a64f8b;
      }

      .cls-4 {
        fill: #d981b5;
      }

      .cls-5 {
        fill: #b994c4;
      }

      .cls-6 {
        fill: #c35da3;
      }
    </style>
  </defs>
  <g id="G17YTV.tif">
    <g>
      <path class="cls-1" d="M222.83,64.77v19.88c6.61.11,13.28-.08,19.89-.01.08,6.61-.13,13.28-.01,19.89,26.48-.06,53.05-.06,79.52,0,.12-6.61-.09-13.29-.01-19.89,6.61-.07,13.28.12,19.89.01v-19.88h39.76v19.88c6.61.11,13.28-.08,19.89-.01.08,6.61-.13,13.28-.01,19.89,6.61.12,13.29-.09,19.89-.01.05,26.48-.1,53.05-.01,79.53,6.6.12,13.28-.09,19.88,0v79.52c-6.6.05-13.28-.07-19.88,0,.05,19.86-.03,39.8-.01,59.65l19.9-.02c.08,6.61-.13,13.28-.01,19.89,13.22-.22,26.55.16,39.77-.01.08,6.61-.13,13.28-.01,19.89,6.61.11,13.28-.08,19.89-.01l1.98,51.7v3.98c-3.2,6.72-14.58,3.84-21.87,3.98-.11,6.61.08,13.28.01,19.89l-19.9-.02c-.04,6.61.08,13.28.01,19.89-13.21-.22-26.54.04-39.76,0v-19.88c6.61-.12,13.28.09,19.89.01l-.02-19.9c13.22-.16,26.55.25,39.77.01.22-13.21.07-26.55,0-39.76-.03-6.61.12-13.27,0-19.88-13.21-.22-26.54,0-39.76,0-.12-6.61.12-13.27,0-19.88-6.61.11-13.28-.08-19.89-.01-.07,6.61.12,13.28.01,19.89-.44,26.45,0,53.07,0,79.52-6.61.12-13.27-.12-19.88,0,0-59.61,0-119.32-.01-178.94,6.61-.04,13.28.08,19.89.01-.05-19.85.04-39.79,0-59.64-.01-6.61.02-13.27,0-19.88-6.61-.12-13.27.03-19.88,0,.1-19.85.1-39.8,0-59.64-.03-6.61.12-13.28,0-19.88-6.61-.12-13.27.03-19.88,0v-19.88c-13.19-.22-26.58-.22-39.76,0v19.88c-6.61-.02-13.27.01-19.88,0-.12,6.61.03,13.27,0,19.88h-79.52c-.03-6.61.12-13.28,0-19.88-6.61.01-13.27-.02-19.88,0v-19.88c-13.19-.22-26.58-.22-39.76,0v19.88c-6.61.03-13.28-.12-19.88,0-.12,6.61.03,13.27,0,19.88-.1,19.85-.1,39.8,0,59.64-6.61.03-13.28-.12-19.88,0-.02,6.61.01,13.27,0,19.88-.04,19.85.05,39.79,0,59.64,6.61.07,13.28-.05,19.89-.01-.02,59.61-.01,119.32-.01,178.94-6.61-.12-13.27.12-19.88,0,0-26.46.44-53.08,0-79.52-.11-6.61.08-13.28.01-19.89-6.61-.07-13.28.12-19.89.01-.12,6.61.12,13.27,0,19.88h-39.76c-.12,6.61.03,13.27,0,19.88-.07,13.21-.22,26.55,0,39.76,13.23,0,26.54,0,39.77-.01l-.02,19.9c6.61.08,13.28-.13,19.89-.01v19.88c-13.22.04-26.55-.22-39.76,0,.07,6.61-.05,13.28,0,19.88h79.52c0-6.61,0-13.27,0-19.88-6.61,0-13.27,0-19.88,0v-19.88c6.61.12,13.28-.09,19.89-.01v19.89s19.87,0,19.87,0v19.88h39.76c.09-6.6-.12-13.28,0-19.88s.12-13.29,0-19.88c-13.22-.22-26.55.16-39.77.01l.02-19.9-19.9.02c-.05-26.48.1-53.05.01-79.53h19.88v59.64h19.89s-.02,19.89-.02,19.89l19.9-.02c.08,6.61-.13,13.28-.01,19.89,6.6.11,13.28-.08,19.88,0v39.76h39.76v-39.76c6.6-.08,13.28.11,19.88,0,.12-6.61-.09-13.28-.01-19.89l19.9.02-.02-19.9h19.89s0-59.63,0-59.63h19.88c-.09,26.48.06,53.05.01,79.53l-19.9-.02.02,19.9c-13.22.15-26.55-.23-39.77-.01-.12,6.59-.12,13.29,0,19.88s-.09,13.28,0,19.88h39.76v-19.88h19.88v-19.89c6.6-.08,13.27.13,19.88.01v19.88h-19.88c0,6.61,0,13.27,0,19.88h79.52c.05-6.6-.07-13.28,0-19.88,6.6.11,13.28-.08,19.88,0v39.76H83.66v-39.76c6.6-.08,13.28.11,19.88,0-.07-6.61.05-13.28.01-19.89l-19.9.02c-.07-6.61.12-13.28.01-19.89h-19.88v-59.64h19.88c.12-6.61-.09-13.28-.01-19.89,13.22.17,26.55-.21,39.77.01.12-6.61-.09-13.29-.01-19.89l19.9.02c.02-19.86-.06-39.8-.01-59.65-6.61-.07-13.28.05-19.88,0v-79.52c6.6-.09,13.28.12,19.88,0,.09-26.48-.06-53.05-.01-79.53,6.61-.08,13.28.13,19.89.01.12-6.61-.09-13.29-.01-19.89,6.61-.07,13.28.12,19.89.01v-19.88h39.76Z"/>
      <path class="cls-6" d="M441.52,362.99c.12,6.61-.09,13.29-.01,19.89h39.77c.07,13.2.22,26.54,0,39.75-13.22.24-26.55-.17-39.77-.01l.02,19.9c-6.61.08-13.28-.13-19.89-.01v19.88c-6.61-.02-13.27,0-19.88,0v-19.88c6.61-.12,13.27.12,19.88,0,0-26.46-.44-53.08,0-79.52h19.88Z"/>
      <path class="cls-6" d="M322.23,124.42c-.1,19.85.08,39.8-.01,59.65,26.48.08,53.06-.14,79.53-.01-.03,6.61.12,13.28,0,19.88,6.61-.03,13.27.02,19.88,0,.04,19.85-.05,39.79,0,59.64-6.61.07-13.28-.05-19.89-.01.02,59.61.01,119.32.01,178.94-6.61.12-13.28-.09-19.89-.01v19.89s-19.87,0-19.87,0h-39.76c-.12-6.59-.12-13.29,0-19.88,13.22-.22,26.55.16,39.77.01l-.02-19.9,19.9.02c.05-26.48-.1-53.05-.01-79.53.11-33.1-.16-66.3,0-99.4.03-6.61-.12-13.28,0-19.88,6.61-.06,13.28.05,19.89.01.08-6.61-.13-13.28-.01-19.89-6.61.03-13.28-.03-19.89-.01-.08,6.61.13,13.28.01,19.89-6.61.06-13.28-.05-19.89-.01-.04,6.61.08,13.28.01,19.89h-159.05c-.07-6.61.05-13.28.01-19.89-6.61-.04-13.28.07-19.89.01-.12-6.61.09-13.29.01-19.89-6.61,0-13.28,0-19.89.01.12,6.61-.09,13.29-.01,19.89,6.61.04,13.28-.07,19.89-.01.12,6.61-.03,13.27,0,19.88.16,33.1-.11,66.3,0,99.4.09,26.48-.06,53.05-.01,79.53l19.9-.02-.02,19.9c13.22.15,26.55-.23,39.77-.01.12,6.59.12,13.29,0,19.88h-59.64v-19.89c-6.6-.08-13.27.13-19.88.01,0-59.61,0-119.32.01-178.94-6.61-.04-13.28.08-19.89.01.05-19.85-.04-39.79,0-59.64,6.61,0,13.27,0,19.88,0-.12-6.61.03-13.27,0-19.88,26.48-.13,53.05.09,79.53.01-.09-19.85.09-39.8-.01-59.65h79.52Z"/>
      <path class="cls-6" d="M143.3,362.99c.44,26.45,0,53.07,0,79.52,6.61.12,13.27-.12,19.88,0v19.88c-6.61,0-13.27-.02-19.88,0v-19.88c-6.61-.12-13.28.09-19.89.01l.02-19.9c-13.23.02-26.54.01-39.77.01-.22-13.21-.07-26.55,0-39.76h39.77c.08-6.6-.13-13.27-.01-19.88h19.88Z"/>
      <path class="cls-4" d="M441.52,343.11c.12,6.61-.12,13.27,0,19.88,13.22,0,26.55-.22,39.76,0,.12,6.61-.03,13.27,0,19.88h-39.77c-.08-6.6.13-13.27.01-19.88h-19.88c.11-6.61-.08-13.28-.01-19.89,6.61-.07,13.28.12,19.89.01Z"/>
      <path class="cls-4" d="M123.42,343.11c6.61.11,13.28-.08,19.89-.01.07,6.61-.12,13.28-.01,19.89h-19.88c-.12,6.61.09,13.29.01,19.89h-39.77c.03-6.62-.12-13.29,0-19.89h39.76c.12-6.61-.12-13.27,0-19.88Z"/>
      <path class="cls-4" d="M381.88,84.65v19.88c6.61.03,13.28-.12,19.88,0,.12,6.61-.03,13.27,0,19.88h-19.88c.04-6.61,0-13.27,0-19.88-13.23-.07-26.54.04-39.76,0,0,6.61-.04,13.27,0,19.88h-19.88c.03-6.61-.12-13.28,0-19.88,6.61.01,13.27-.02,19.88,0v-19.88c13.19-.22,26.58-.22,39.76,0Z"/>
      <path class="cls-4" d="M222.83,84.65v19.88c6.61-.02,13.27.01,19.88,0,.12,6.61-.03,13.27,0,19.88h-19.88c.04-6.61,0-13.27,0-19.88-13.23.04-26.54-.07-39.76,0,0,6.61-.04,13.27,0,19.88h-19.88c.03-6.61-.12-13.28,0-19.88,6.61-.12,13.27.03,19.88,0v-19.88c13.19-.22,26.58-.22,39.76,0Z"/>
      <path class="cls-2" d="M381.88,104.54c0,6.61.04,13.27,0,19.88h-39.76c.08,13.23-.05,26.54,0,39.76h39.76c.05-13.23-.08-26.54,0-39.76h19.88c.1,19.85.1,39.8,0,59.64-26.48-.13-53.05.09-79.53.01.09-19.85-.09-39.8.01-59.65h19.88c-.04-6.61,0-13.27,0-19.88,13.23.04,26.54-.07,39.76,0Z"/>
      <path class="cls-4" d="M421.64,184.06c.02,6.61-.01,13.27,0,19.88-6.61.02-13.27-.03-19.88,0,.12-6.61-.03-13.27,0-19.88,6.61.03,13.28-.12,19.88,0Z"/>
      <path class="cls-4" d="M163.18,184.06c.03,6.61-.12,13.28,0,19.88-6.61,0-13.27,0-19.88,0,.01-6.61-.02-13.27,0-19.88,6.61-.12,13.27.03,19.88,0Z"/>
      <path class="cls-2" d="M222.83,104.54c0,6.61.04,13.27,0,19.88h-39.76c.08,13.23-.05,26.54,0,39.76h39.76c.05-13.23-.08-26.54,0-39.76h19.88c.1,19.85-.08,39.8.01,59.65-26.48.08-53.06-.14-79.53-.01-.1-19.85-.1-39.8,0-59.64h19.88c-.04-6.61,0-13.27,0-19.88,13.23-.07,26.54.04,39.76,0Z"/>
      <path class="cls-5" d="M202.95,243.7c.07,6.61-.05,13.28,0,19.88h159.05c.05-6.6-.07-13.28,0-19.88h19.88c-.16,33.1.11,66.3,0,99.4h-19.88v59.64h-19.89s.02,19.89.02,19.89l-19.9-.02c-.08,6.61.13,13.28.01,19.89-6.6.11-13.28-.08-19.88,0v39.76h-39.76v-39.76c-6.6-.08-13.28.11-19.88,0-.12-6.61.09-13.28.01-19.89l-19.9.02.02-19.9h-19.89s0-59.63,0-59.63h-19.88c-.11-33.1.16-66.3,0-99.4h19.88Z"/>
      <path class="cls-3" d="M143.3,462.39c6.61-.02,13.27,0,19.88,0s13.27,0,19.88,0c0,6.61,0,13.27,0,19.88h-79.52c-.05-6.6.07-13.28,0-19.88,13.21-.22,26.54.04,39.76,0Z"/>
      <path class="cls-3" d="M401.76,462.39c6.61,0,13.27-.02,19.88,0,13.22.04,26.55-.22,39.76,0-.07,6.61.05,13.28,0,19.88h-79.52c0-6.61,0-13.27,0-19.88h19.88Z"/>
      <path class="cls-3" d="M242.71,462.39c-.12,6.6.09,13.28,0,19.88h-39.76v-19.88h39.76Z"/>
      <path class="cls-3" d="M361.99,462.39v19.88h-39.76c-.09-6.6.12-13.28,0-19.88h39.76Z"/>
      <path class="cls-1" d="M163.18,203.94c6.61,0,13.28,0,19.89-.01.08,6.61-.13,13.28-.01,19.89,6.61.06,13.28-.05,19.89-.01.04,6.61-.08,13.28-.01,19.89h159.05c.07-6.61-.05-13.28-.01-19.89,6.61-.04,13.28.07,19.89.01.12-6.61-.09-13.29-.01-19.89,6.61-.02,13.28.05,19.89.01-.12,6.61.09,13.29.01,19.89-6.61.04-13.28-.07-19.89-.01-.12,6.61.03,13.27,0,19.88h-19.88c-.07,6.61.05,13.28,0,19.88h-159.05c-.05-6.6.07-13.28,0-19.88h-19.88c-.03-6.61.12-13.28,0-19.88-6.61-.06-13.28.05-19.89.01-.08-6.61.13-13.28.01-19.89Z"/>
      <path class="cls-1" d="M381.88,124.42c-.08,13.23.05,26.54,0,39.76h-39.76c-.05-13.23.08-26.54,0-39.76h39.76Z"/>
      <path class="cls-1" d="M222.83,124.42c-.08,13.23.05,26.54,0,39.76h-39.76c-.05-13.23.08-26.54,0-39.76h39.76Z"/>
    </g>
  </g>
</svg>