<?xml version="1.0" encoding="UTF-8"?>
<svg id="Layer_1" data-name="Layer 1" xmlns="http://www.w3.org/2000/svg" viewBox="0 0 566.93 566.93">
  <defs>
    <style>
      .cls-1 {
        fill: #010101;
      }

      .cls-2 {
        fill: #96daf8;
      }

      .cls-3 {
        fill: #72a2d6;
      }

      .cls-4 {
        fill: #edbfd9;
      }
    </style>
  </defs>
  <g id="_0AqUQb.tif" data-name="0AqUQb.tif">
    <g>
      <path class="cls-1" d="M197.12,75.86v21.85c7.26.12,14.61-.09,21.87-.01v21.86s131.14,0,131.14,0v-21.86c7.25-.08,14.59.13,21.86.01v-21.85h65.58v21.85c7.26.12,14.61-.09,21.87-.01-.1,21.82.1,43.75-.01,65.57,7.26.13,14.61-.1,21.87-.01.08,7.26-.13,14.6-.01,21.86h-21.86c.13-7.26-.04-14.59,0-21.85-7.26-.13-14.59.08-21.86,0v-65.56c-21.76-.36-43.82-.36-65.58,0,0,4.05,2.19,43.71,0,43.71h-174.87c-2.19,0,0-39.66,0-43.71-21.76-.36-43.82-.36-65.58,0v65.56c-7.27.08-14.59-.13-21.86,0,.04,7.26-.13,14.59,0,21.85-7.27.03-14.59-.04-21.86,0-1.19,72.56-1.19,145.97,0,218.53,7.26.23,14.61-.17,21.87-.01.04,7.26-.08,14.6-.01,21.86,14.54.24,29.19-.17,43.73-.01.16,14.54-.25,29.18-.01,43.72,14.53.24,29.18-.03,43.72,0,.13-7.24.13-14.61,0-21.85h174.87c-.13,7.24-.13,14.61,0,21.85,14.54-.03,29.19.24,43.72,0,.24-14.53-.17-29.18-.01-43.72,14.54-.16,29.19.25,43.73.01.07-7.27-.05-14.6-.01-21.86,7.27,0,14.6,0,21.87.01-.12,7.26.09,14.6.01,21.86-7.26.08-14.61-.13-21.87-.01-.07,7.27.05,14.6.01,21.86l-21.88-.02.02,21.88c-7.26.08-14.61-.13-21.87-.01-.12,7.26.09,14.6,0,21.85h-43.72c-.09-7.26.13-14.6,0-21.85-58.25.14-116.62.14-174.87,0-.13,7.26.09,14.6,0,21.85h-43.72c-.09-7.26.12-14.6,0-21.85-7.26-.12-14.61.09-21.87.01l.02-21.88-21.88.02c-.04-7.26.08-14.6.01-21.86-7.26-.12-14.61.09-21.87.01-.08-7.26.13-14.6.01-21.86-8-.25-16.83,1.58-24.05-2.19v-209.79c2.17-10.33,14.45-6.5,24.05-6.56.12-7.26-.09-14.6-.01-21.86,7.26-.08,14.61.14,21.87.01-.11-21.82.09-43.75-.01-65.57,7.26-.08,14.61.13,21.87.01v-21.85h65.58Z"/>
      <path class="cls-1" d="M503.15,185.12v218.53c-7.27,0-14.59,0-21.86,0,1.19-72.56,1.19-145.97,0-218.53h21.86Z"/>
      <path class="cls-3" d="M197.12,97.71c0,4.05-2.19,43.71,0,43.71h174.87c2.19,0,0-39.66,0-43.71,21.76-.36,43.82-.36,65.58,0v65.56c-7.27-.08-14.59.13-21.86,0-.16-14.54.11-29.18.01-43.72h-21.87v43.72c7.26.09,14.6-.13,21.86,0,.16,14.53-.12,29.17,0,43.71h43.72c.09-7.26-.13-14.6,0-21.85h21.86c1.19,72.56,1.19,145.97,0,218.53-7.27,0-14.6,0-21.87-.01-.04,7.26.08,14.6.01,21.86-14.54.24-29.19-.17-43.73-.01-.16,14.54.25,29.18.01,43.72-14.53.24-29.18-.03-43.72,0-.13-7.24-.13-14.61,0-21.85.13-7.26-.09-14.6-.01-21.86l21.88.02-.02-21.88,21.88.02-.02-21.88h21.87s0-109.26,0-109.26h-21.87s.01-21.85.01-21.85H153.4v21.86s-21.86-.01-21.86-.01v109.27h21.87s-.02,21.86-.02,21.86l21.88-.02-.02,21.88,21.88-.02c.08,7.26-.14,14.6-.01,21.86.13,7.24.13,14.61,0,21.85-14.54-.03-29.19.24-43.72,0-.24-14.53.17-29.18.01-43.72-14.54-.16-29.19.25-43.73.01-.07-7.27.05-14.6.01-21.86-7.26-.15-14.62.24-21.87.01-1.19-72.56-1.19-145.97,0-218.53,7.27-.04,14.59.03,21.86,0,.13,7.26-.09,14.6,0,21.85h43.72c.12-14.53-.16-29.17,0-43.71,7.26-.13,14.6.09,21.86,0v-43.71h-21.87c-.1,14.53.17,29.17.01,43.71-7.26.13-14.59-.08-21.86,0v-65.56c21.76-.36,43.82-.36,65.58,0ZM350.14,206.98h-131.16v21.85h131.16v-21.85Z"/>
      <path class="cls-2" d="M197.12,447.37c-.13-7.26.09-14.6.01-21.86l-21.88.02.02-21.88-21.88.02.02-21.88h-21.87s0-109.26,0-109.26h21.87s-.01-21.85-.01-21.85h262.31v21.86s21.86-.01,21.86-.01v109.27h-21.87s.02,21.86.02,21.86l-21.88-.02.02,21.88-21.88-.02c-.08,7.26.14,14.6.01,21.86h-174.87Z"/>
      <path class="cls-4" d="M131.54,163.27c7.27-.08,14.59.13,21.86,0-.16,14.53.12,29.17,0,43.71h-43.72c-.09-7.26.13-14.6,0-21.85s.04-14.59,0-21.85c7.26-.13,14.59.08,21.86,0Z"/>
      <rect class="cls-1" x="218.98" y="206.98" width="131.16" height="21.85"/>
      <path class="cls-4" d="M437.57,163.27c7.27.08,14.59-.13,21.86,0-.04,7.26.13,14.59,0,21.85s.09,14.6,0,21.85h-43.72c-.12-14.53.16-29.17,0-43.71,7.26.13,14.59-.08,21.86,0Z"/>
      <path class="cls-1" d="M153.4,163.27c.16-14.54-.11-29.18-.01-43.72h21.87v43.72c-7.26.09-14.6-.13-21.86,0Z"/>
      <path class="cls-1" d="M415.71,163.27c-7.26-.13-14.6.09-21.86,0v-43.71h21.87c.1,14.53-.17,29.17-.01,43.71Z"/>
    </g>
  </g>
</svg>