<?xml version="1.0" encoding="UTF-8"?>
<svg id="Layer_1" data-name="Layer 1" xmlns="http://www.w3.org/2000/svg" viewBox="0 0 566.93 566.93">
  <defs>
    <style>
      .cls-1 {
        fill: #049892;
      }

      .cls-2 {
        fill: #78cab7;
      }

      .cls-3 {
        fill: #010101;
      }

      .cls-4 {
        fill: #acc9ce;
      }

      .cls-5 {
        fill: #b1cfd4;
      }

      .cls-6 {
        fill: #fff;
      }

      .cls-7 {
        fill: #00a099;
      }
    </style>
  </defs>
  <g id="yhSqhT.tif">
    <g>
      <path class="cls-3" d="M462.56,263.53c6.64.04,13.32-.03,19.95,0v19.94h19.96s.99,5.98.99,5.98v106.67l-.99,6.98c-6.64.02-13.32-.04-19.96,0,.17-33.21-.13-66.48,0-99.69h-39.91c-.04-6.63.02-13.3,0-19.93h19.96c0-6.63,0-13.3,0-19.94Z"/>
      <path class="cls-3" d="M103.37,143.9c0,6.63,0,13.31,0,19.94s.04,13.31,0,19.94h-19.95c0,6.63-.04,13.31,0,19.94s-.03,13.31,0,19.94h19.95c.03,6.63-.04,13.31,0,19.94,46.54-.24,93.14,0,139.68,0,.07-6.63-.05-13.31,0-19.94h39.91c.03,6.63-.03,13.31,0,19.94h-39.91c-.07,6.63.05,13.31,0,19.94-39.89,0-79.84,0-119.73,0h-19.95c-.04-6.63.04-13.31,0-19.94-6.64.03-13.32-.02-19.96,0-.02,6.63.04,13.31,0,19.94h19.95c.04,6.63-.02,13.31,0,19.94,6.64.04,13.32-.08,19.96,0,0,6.63,0,13.3,0,19.94,6.64-.04,13.32-.04,19.95,0,.1,19.92-.1,39.89,0,59.81,6.64.04,13.32-.02,19.95,0v19.94c-6.64-.04-13.32.02-19.96,0-.02-6.63.04-13.31,0-19.94-6.64-.04-13.32.02-19.96,0-.02-13.28.05-26.6,0-39.88-.02-6.63,0-13.31,0-19.94-6.64.04-13.32-.02-19.96,0-.02,6.63.04,13.31,0,19.94s.04,13.31,0,19.94h-19.95c0,6.63-.01,13.31,0,19.94.02,13.28-.07,26.6,0,39.88h-19.95v-59.81h19.95c-.02-26.56-.14-53.19,0-79.75h-19.95v-79.75h19.95c.02-13.28,0-26.6,0-39.88,6.64-.02,13.32.04,19.96,0Z"/>
      <path class="cls-3" d="M282.97,123.96v19.94c-33.24-.05-66.53-.03-99.77,0v-19.94h99.77Z"/>
      <path class="cls-3" d="M163.24,123.96v19.94c-19.94.02-39.93-.1-59.86,0v-19.94h59.86Z"/>
      <path class="cls-3" d="M282.97,143.9c19.94.03,39.93-.02,59.87,0,.02,6.63-.04,13.31,0,19.94-13.29-.04-26.62.01-39.91,0-6.64,0-13.32,0-19.95,0v-19.94Z"/>
      <path class="cls-3" d="M342.83,163.84c13.29.04,26.63-.03,39.91,0,.02,6.63-.04,13.31,0,19.94-13.29-.07-26.62.04-39.91,0-.04-6.63.04-13.31,0-19.94Z"/>
      <path class="cls-3" d="M402.69,203.71c6.64.04,13.32-.02,19.96,0,.02,6.63-.04,13.31,0,19.94,6.64.04,13.32-.02,19.96,0,.02,6.63-.04,13.31,0,19.94,6.64.04,13.32-.02,19.96,0,0,6.63,0,13.31,0,19.94-6.64-.04-13.32.04-19.95,0-.02-6.63.04-13.31,0-19.94-6.64-.04-13.32.04-19.95,0-.04-6.63.04-13.31,0-19.94-6.64-.04-13.32.04-19.95,0-.04-6.63.04-13.31,0-19.94Z"/>
      <path class="cls-3" d="M382.74,183.78c6.64.03,13.32-.02,19.96,0,.02,6.63-.04,13.31,0,19.94-6.64-.04-13.32.01-19.95,0-.04-6.63.04-13.31,0-19.94Z"/>
      <path class="cls-3" d="M362.78,303.4c-.07,13.27-.04,26.6,0,39.88.02,6.63-.04,13.31,0,19.94-6.64.04-13.32-.03-19.95,0v59.81c26.59-.03,53.23.04,79.82,0-.07,6.63.05,13.31,0,19.94H103.37c-.05-6.63.07-13.31,0-19.94,19.94.1,39.93-.08,59.87,0,0-13.28,0-26.6,0-39.88,6.64.04,13.32-.02,19.95,0v39.88h19.95v-39.88c6.64,0,13.32,0,19.95,0v39.88h99.77c.02-19.92-.03-39.89,0-59.81.02-13.28.04-26.6,0-39.88,6.64,0,13.32,0,19.96,0v-19.94c6.63-.02,13.31.04,19.95,0Z"/>
      <path class="cls-3" d="M482.51,403.09c-.03,6.63.02,13.31,0,19.94-19.94.01-39.93-.04-59.87,0,.07-6.63-.05-13.31,0-19.94,19.94-.07,39.93.11,59.87,0Z"/>
      <path class="cls-3" d="M83.42,403.09c6.64,0,13.32,0,19.96,0,.04,6.63-.08,13.31,0,19.94-6.64-.03-13.32.02-19.96,0-.02-6.63.04-13.31,0-19.94Z"/>
      <path class="cls-2" d="M282.97,163.84c6.64,0,13.32,0,19.95,0v19.94c13.28.02,26.62-.05,39.91,0,.04,6.63-.02,13.31,0,19.94,13.29,0,26.63-.03,39.91,0,.04,6.63-.02,13.31,0,19.94,6.64.02,13.32-.04,19.96,0,.04,6.63-.02,13.31,0,19.94,6.64.02,13.32-.04,19.96,0,.04,6.63-.02,13.31,0,19.94,6.64.02,13.32-.04,19.96,0,.02,6.63-.02,13.31,0,19.94.02,6.63-.04,13.31,0,19.94.04,6.63-.03,13.31,0,19.94h19.95v19.94h-39.91v19.94c-13.29-.04-26.62-.04-39.91,0,0-6.63,0-13.31,0-19.94h-19.96c-.04-13.27-.07-26.6,0-39.87,6.64-.04,13.32.03,19.95,0v-19.94h-19.95c-.03,6.63.03,13.31,0,19.94-6.64.04-13.32-.02-19.95,0-6.64.02-13.32.02-19.95,0-.04-6.63.02-13.31,0-19.94-6.64-.02-13.32.04-19.96,0-6.64-.04-13.32,0-19.95,0,.03,6.63-.02,13.31,0,19.94,6.64.02,13.32-.04,19.96,0,0,6.63,0,13.31,0,19.94,6.64,0,13.32,0,19.96,0,.04,13.27.02,26.6,0,39.88h-19.95v19.94h-19.95v19.94h-19.95c-.03-6.63.04-13.31,0-19.94-.04-6.63.02-13.31,0-19.94,6.64-.03,13.32.02,19.96,0,0-6.63,0-13.31,0-19.94s0-13.31,0-19.94c-6.64-.04-13.32.08-19.96,0v-39.88c6.64-.04,13.32,0,19.95,0-.07-13.28.07-26.6,0-39.88-.03-6.63.03-13.31,0-19.94h-39.91c-.05,6.63.07,13.31,0,19.94-46.54,0-93.14-.24-139.68,0-.04-6.63.03-13.31,0-19.94h-19.95c-.03-6.63.04-13.31,0-19.94h19.96c.02-6.63-.04-13.3,0-19.94.04-6.63,0-13.31,0-19.94,59.85.05,119.75-.06,179.59,0ZM143.28,183.78h-19.95v19.94h19.95v-19.94ZM223.1,183.78h-19.95v19.94h19.95v-19.94Z"/>
      <path class="cls-7" d="M442.6,303.4h39.91c-.14,33.21.17,66.48,0,99.69-19.94.1-39.93-.07-59.87,0-.04,6.63.08,13.31,0,19.94-26.59.04-53.23-.03-79.82,0v-59.81c6.64-.03,13.32.04,19.95,0-.04-6.63.02-13.31,0-19.94h19.96c0,6.63,0,13.3,0,19.94-6.64.02-13.32-.04-19.95,0,.04,6.63-.03,13.31,0,19.94h19.95v-19.94c13.29-.04,26.62-.04,39.91,0,0,1.85-1,19.94,0,19.94h39.91v-19.94c-13.29-.03-26.62.04-39.91,0v-19.94h39.91v-19.94h-19.95c-.03-6.63.04-13.31,0-19.94Z"/>
      <path class="cls-7" d="M342.83,163.84c.04,6.63-.04,13.31,0,19.94,13.29.04,26.62-.07,39.91,0,.04,6.63-.04,13.31,0,19.94,6.64.01,13.32-.04,19.95,0,.04,6.63-.04,13.31,0,19.94,6.64.04,13.32-.04,19.95,0,.04,6.63-.04,13.31,0,19.94,6.64.04,13.32-.04,19.95,0,.04,6.63-.02,13.31,0,19.94,6.64.04,13.32-.04,19.95,0,0,6.63,0,13.31,0,19.94h-19.96c-.02-6.64.02-13.31,0-19.94-6.64-.04-13.32.02-19.96,0-.02-6.63.04-13.31,0-19.94-6.64-.04-13.32.02-19.96,0-.02-6.63.04-13.31,0-19.94-6.64-.04-13.32.02-19.96,0-.02-6.63.04-13.31,0-19.94-13.29-.02-26.63.01-39.91,0-.02-6.63.04-13.31,0-19.94-13.29-.04-26.63.03-39.91,0v-19.94c13.29.01,26.63-.04,39.91,0Z"/>
      <path class="cls-4" d="M103.37,243.59c.04,6.63-.04,13.31,0,19.94h19.95v19.94c6.64.07,13.32-.05,19.96,0,.02,6.63-.04,13.31,0,19.94-6.64-.04-13.32-.04-19.95,0,0-6.63,0-13.3,0-19.94-6.64-.07-13.32.05-19.96,0-.02-6.63.04-13.31,0-19.94h-19.95c.03-6.63-.02-13.31,0-19.94,6.64-.02,13.32.04,19.96,0Z"/>
      <path class="cls-7" d="M103.37,183.78c-.04,6.63.02,13.31,0,19.94h-19.96c-.04-6.64,0-13.31,0-19.94h19.95Z"/>
      <path class="cls-7" d="M163.24,143.9c6.64,0,13.32,0,19.95,0,33.24-.03,66.53-.05,99.77,0v19.94c-59.85-.06-119.75.05-179.59,0,0-6.63,0-13.31,0-19.94,19.94-.1,39.93.02,59.86,0Z"/>
      <path class="cls-7" d="M123.33,323.34c.05,13.28-.03,26.6,0,39.88,6.64.02,13.32-.04,19.96,0,.03,6.63-.02,13.31,0,19.94,6.64.02,13.32-.04,19.96,0,0,13.28,0,26.6,0,39.88-19.94-.09-39.93.1-59.87,0-.07-6.63.05-13.31,0-19.94-6.64,0-13.32,0-19.96,0-.07-13.27.02-26.6,0-39.88h19.96c.02-6.63-.04-13.3,0-19.94s-.04-13.31,0-19.94h19.95Z"/>
      <path class="cls-2" d="M103.37,343.28c-.04,6.63.02,13.31,0,19.94h-19.96c-.01-6.64,0-13.31,0-19.94h19.95Z"/>
      <path class="cls-7" d="M322.87,363.22c-.03,19.92.02,39.89,0,59.81h-99.77v-39.88h39.91c.04,6.63-.03,13.31,0,19.94h19.95v-19.94h19.95v-19.94h19.95Z"/>
      <path class="cls-5" d="M223.1,363.22v19.94c-6.64,0-13.32,0-19.95,0s-13.32.02-19.95,0-13.32.04-19.95,0v-19.94c19.94.06,39.93.03,59.86,0Z"/>
      <path class="cls-7" d="M203.15,383.15v39.88h-19.95v-39.88c6.64.02,13.32,0,19.95,0Z"/>
      <path class="cls-1" d="M302.92,283.46c6.64.04,13.32-.02,19.96,0,.02,6.63-.04,13.31,0,19.94,6.64.02,13.32.02,19.95,0v19.94c-6.64,0-13.31,0-19.95,0-.02-6.63.04-13.31,0-19.94-6.64-.02-13.32.04-19.95,0v-19.94Z"/>
      <path class="cls-6" d="M282.97,243.59c.07,13.28-.07,26.6,0,39.88-6.64,0-13.32-.04-19.95,0-6.64.04-13.32-.02-19.96,0,0,6.63,0,13.31,0,19.94h-39.91v19.94h-39.91v-19.94c-6.64-.03-13.32.04-19.95,0-.03-6.63.02-13.31,0-19.94-6.64-.04-13.32.08-19.96,0v-19.94c39.89,0,79.84,0,119.73,0,.04-6.63-.08-13.31,0-19.94h39.91Z"/>
      <path class="cls-3" d="M302.92,283.46v19.94c6.64.04,13.32-.02,19.95,0,.04,6.63-.02,13.31,0,19.94-6.64,0-13.32,0-19.96,0,0-6.63,0-13.31,0-19.94-6.64-.04-13.32.02-19.96,0-.02-6.63.04-13.31,0-19.94,6.64,0,13.32-.04,19.95,0Z"/>
      <rect class="cls-3" x="203.15" y="183.78" width="19.95" height="19.94"/>
      <rect class="cls-3" x="123.33" y="183.78" width="19.95" height="19.94"/>
      <path class="cls-3" d="M362.78,303.4c.03-6.63-.03-13.31,0-19.94h19.95v19.94c-6.64.03-13.32-.04-19.95,0Z"/>
      <path class="cls-3" d="M422.65,363.22c13.29.04,26.62-.03,39.91,0v19.94h-39.91c-1,0,0-18.09,0-19.94Z"/>
      <path class="cls-3" d="M382.74,363.22v19.94h-19.95c-.03-6.63.04-13.31,0-19.94,6.64-.04,13.32.02,19.95,0Z"/>
      <path class="cls-2" d="M123.33,303.4c0,6.63-.02,13.31,0,19.94h-19.95c.04-6.63-.02-13.31,0-19.94,6.64-.02,13.32.04,19.96,0Z"/>
      <path class="cls-3" d="M282.97,343.28c0,6.63,0,13.31,0,19.94-6.64.02-13.32-.04-19.96,0,.02,6.63-.04,13.31,0,19.94h-39.91v-19.94c13.29-.02,26.62.07,39.91,0-.02-6.63,0-13.31,0-19.94h19.95Z"/>
      <path class="cls-4" d="M263.01,283.46v19.94h-19.95c0-6.63,0-13.31,0-19.94,6.64-.02,13.32.04,19.96,0Z"/>
      <path class="cls-1" d="M263.01,303.4v19.94c6.64.07,13.32-.05,19.96,0,0,6.63,0,13.31,0,19.94h-19.95v-19.94c-6.64-.07-13.32.05-19.96,0,0-6.63,0-13.31,0-19.94h19.95Z"/>
      <path class="cls-4" d="M143.28,303.4c6.64.04,13.32-.03,19.95,0v19.94h39.91v-19.94h39.91c0,6.63,0,13.31,0,19.94,6.64.04,13.32-.08,19.96,0v19.94c0,6.63-.02,13.31,0,19.94-13.29.07-26.62-.02-39.91,0-19.94.03-39.93.06-59.86,0-6.64-.02-13.32.04-19.95,0-.1-19.92.1-39.89,0-59.81Z"/>
    </g>
  </g>
</svg>