<?xml version="1.0" encoding="UTF-8"?>
<svg id="Layer_1" data-name="Layer 1" xmlns="http://www.w3.org/2000/svg" viewBox="0 0 566.93 566.93">
  <defs>
    <style>
      .cls-1 {
        fill: #daacd0;
      }

      .cls-2 {
        fill: #010101;
      }

      .cls-3 {
        fill: #fff;
      }

      .cls-4 {
        fill: #3b9444;
      }

      .cls-5 {
        fill: #48b749;
      }
    </style>
  </defs>
  <g id="_2Uw1QW.tif" data-name="2Uw1QW.tif">
    <g>
      <path class="cls-2" d="M240.84,63.78c.03,7.27-.04,14.59,0,21.86,7.26.12,14.61-.09,21.87-.01.04,7.27-.08,14.6-.01,21.87,14.5.24,29.22.24,43.72,0,.07-7.27-.06-14.6-.01-21.87,7.26-.08,14.61.13,21.87.01,0-7.27,0-14.59,0-21.86h65.58c.03,7.27-.04,14.59,0,21.86,7.26.12,14.61-.09,21.87-.01.08,7.26-.13,14.61-.01,21.87,7.27.07,14.6-.05,21.87-.01.16,14.54-.25,29.19-.01,43.73,7.27.07,14.6-.05,21.87-.01.08,7.26-.13,14.61-.01,21.87,7.26.07,14.6-.05,21.86,0v109.3c-7.26.09-14.6-.13-21.86,0,.02,7.27-.04,14.59,0,21.86,7.27.07,14.6-.05,21.87-.01.04,14.55-.09,29.18-.01,43.73-7.27-.04-14.6.03-21.87.01-.08-7.26.14-14.61.01-21.87s.04-14.59,0-21.86c-7.27-.07-14.6.05-21.87.01v-21.87c7.28-.13,14.61.13,21.87,0-.08-36.38.6-72.93,0-109.3-7.27-.07-14.6.06-21.87.01-.08-7.26.13-14.61.01-21.87-7.27-.07-14.6.05-21.87.01-.16-14.54.25-29.19.01-43.73-7.27-.07-14.6.05-21.87.01-.02-7.27.05-14.6.01-21.87-21.76-.36-43.82-.36-65.58,0,0,7.27,0,14.6.01,21.87-7.26.08-14.61-.13-21.87-.01-.07,7.26.05,14.6,0,21.86h-43.72c-.05-7.26.07-14.6,0-21.86-7.27-.12-14.61.09-21.87.01-.02-7.27.05-14.6.01-21.87-21.76-.36-43.82-.36-65.58,0-.04,7.27.03,14.6.01,21.87-7.27.04-14.6-.08-21.87-.01-.24,14.54.17,29.19.01,43.73-7.27.04-14.6-.08-21.87-.01-.12,7.26.09,14.61.01,21.87-7.27.04-14.6-.08-21.87-.01-.48,29.09.09,58.34,0,87.44,7.27.07,14.6-.06,21.87-.01,0,7.27-.01,14.6-.01,21.87,0,7.27,0,14.6.01,21.87-7.27.04-14.6-.08-21.87-.01-.04,7.27.13,14.6,0,21.86s.1,14.61.01,21.87c-7.26.16-14.62-.24-21.87-.01-.11,21.82-.06,43.75,0,65.58,7.26.23,14.61-.17,21.87-.01.06,14.55-.11,29.18-.01,43.73.05,7.27-.13,14.6,0,21.86,29.02.48,58.42.48,87.44,0,7.26-.12,14.61.09,21.87.01,0-7.27-.01-14.6-.01-21.87-7.27-.13-14.59.13-21.86,0,0-7.27.04-14.59,0-21.86-7.26-.13-14.6-.03-21.86,0-.24-14.54.18-29.19-.01-43.73l20.61-.03c2.24.34,1.23,38.82,1.26,43.76,7.26.13,14.61-.1,21.87-.01,0,7.27-.01,14.6-.01,21.87,7.26.13,14.61-.09,21.87-.01v21.87s87.43,0,87.43,0v-21.87c7.25-.08,14.59.14,21.86.01.12,7.26-.09,14.61-.01,21.87,7.26.08,14.61-.13,21.87-.01,29.02.48,58.42.48,87.44,0,.13-7.26-.05-14.59,0-21.86.1-14.54-.07-29.18-.01-43.73,7.27.01,14.6,0,21.87.01-.06,21.83.03,43.76.01,65.59-7.26.08-14.61-.13-21.87-.01-.13,7.26.1,14.61.01,21.87l-61.22,2.17H122.8l-13.13-2.17c-.08-7.26.15-14.61.01-21.87-7.26-.12-14.61.09-21.87.01-.02-21.83.07-43.76.01-65.59-8-.25-16.82,1.58-24.05-2.19v-4.37c3.65-15.65,3.65-36.81,0-52.46v-4.37c7.22-3.76,16.05-1.93,24.05-2.19.07-14.55-.05-29.18-.01-43.73,7.27-.04,14.6.08,21.87.01.07-14.54-.05-29.18,0-43.72-7.26-.07-14.6.05-21.86,0v-87.44c7.26-.05,14.6.07,21.86,0,.12-7.26-.09-14.61-.01-21.87,7.27-.04,14.6.08,21.87.01.24-14.54-.17-29.19-.01-43.73,7.27-.04,14.6.08,21.87.01.12-7.26-.09-14.61-.01-21.87,7.26-.08,14.61.13,21.87.01.04-7.27-.03-14.59,0-21.86h65.58Z"/>
      <path class="cls-2" d="M371.99,413.53c.12-7.26-.09-14.61-.01-21.87h21.88s0,21.88,0,21.88c-7.27.04-14.6-.08-21.87-.01-.24,14.53,0,29.19,0,43.72-7.27.13-14.59-.13-21.86,0-.24-14.54.18-29.19-.01-43.73,7.27-.04,14.6.08,21.87.01Z"/>
      <path class="cls-2" d="M503.15,347.95v65.58c-7.27,0-14.59,0-21.86,0,.06-21.82.11-43.76,0-65.58,7.27.04,14.59-.03,21.86,0Z"/>
      <path class="cls-5" d="M240.84,85.64c.04,7.27-.03,14.6-.01,21.87,7.26.08,14.61-.13,21.87-.01.07,7.26-.05,14.6,0,21.86h43.72c.05-7.26-.07-14.6,0-21.86,7.27-.12,14.61.09,21.87.01,0-7.27,0-14.6-.01-21.87,21.76-.36,43.82-.36,65.58,0,.04,7.27-.03,14.6-.01,21.87,7.27.04,14.6-.08,21.87-.01.24,14.54-.17,29.19-.01,43.73,7.27.04,14.6-.08,21.87-.01.12,7.26-.09,14.61-.01,21.87,7.27.04,14.6-.08,21.87-.01.6,36.36-.08,72.92,0,109.3-7.26.13-14.59-.13-21.86,0-7.26.13-14.61-.09-21.87-.01l.02,21.88-21.88-.02v21.87s-43.71,0-43.71,0v21.86h65.58v-21.87s43.72.01,43.72.01c.13,7.26-.1,14.61-.01,21.87,7.27.02,14.6-.05,21.87-.01.11,21.82.06,43.75,0,65.58-7.27,0-14.6,0-21.87-.01-.06,14.54.11,29.19.01,43.73h-21.87s.01-21.86.01-21.86h-43.72v21.87c-7.25.08-14.59-.14-21.86-.01v21.86c-7.26-.12-14.61.09-21.87.01-.08-7.26.13-14.61.01-21.87,7.27-.13,14.59.13,21.86,0,0-14.53-.24-29.19,0-43.72,7.27-.07,14.6.05,21.87.01v-21.88s-21.88,0-21.88,0c-.08,7.26.13,14.61.01,21.87-7.27.07-14.6-.05-21.87-.01.19,14.54-.23,29.19.01,43.73-7.26.13-14.61-.09-21.87-.01v21.87s-87.43,0-87.43,0v-21.87c-7.25-.08-14.59.14-21.86.01,0-7.27,0-14.6.01-21.87-7.26-.08-14.61.14-21.87.01-.03-4.93.98-43.42-1.26-43.76l-20.61.03c.19,14.54-.23,29.19.01,43.73,7.26-.03,14.6-.13,21.86,0,.04,7.27,0,14.59,0,21.86,7.27.13,14.59-.13,21.86,0,0,7.27,0,14.6.01,21.87-7.26.08-14.61-.13-21.87-.01v-21.86c-7.26-.13-14.61.1-21.87.01-.08-7.26.13-14.61.01-21.87-14.55.06-29.18-.04-43.73-.01l.02,21.88h-21.87c-.1-14.56.07-29.2.01-43.74-7.26-.15-14.61.24-21.87.01-.06-21.82-.11-43.76,0-65.58,7.26-.23,14.61.17,21.87.01.08-7.26-.14-14.61-.01-21.87h43.73s-.01,21.86-.01,21.86h65.58v-21.86h-43.72v-21.87s-21.87.02-21.87.02l.02-21.88h-21.87c0-7.26,0-14.59.01-21.86-7.27-.04-14.6.08-21.87.01.09-29.1-.48-58.35,0-87.44,7.27-.07,14.6.06,21.87.01.08-7.26-.13-14.61-.01-21.87,7.27-.07,14.6.05,21.87.01.16-14.54-.25-29.19-.01-43.73,7.27-.07,14.6.05,21.87.01.02-7.27-.05-14.6-.01-21.87,21.76-.36,43.82-.36,65.58,0ZM175.26,194.93c-7.26.13-14.61-.09-21.87-.01v21.87h65.59c.09-7.26-.12-14.6,0-21.86.24-14.5.24-29.22,0-43.72-.12-7.26.09-14.6,0-21.86h-43.72v65.58ZM350.14,151.22c-.24,14.5-.24,29.22,0,43.72.12,7.26-.09,14.6,0,21.86h65.58v-21.87c-7.25-.08-14.6.14-21.86.01v-65.58h-43.72c-.09,7.26.12,14.6,0,21.86ZM218.98,260.51c-.13-7.26.1-14.61.01-21.87h-21.88s0,21.88,0,21.88c7.26.08,14.61-.13,21.87-.01.13,7.26-.13,14.59,0,21.86s-.09,14.6,0,21.86h131.16c.09-7.26-.13-14.6,0-21.86s-.13-14.59,0-21.86c7.26-.12,14.61.09,21.87.01v-21.88s-21.88,0-21.88,0c-.08,7.26.14,14.61.01,21.87-43.54.72-87.62.72-131.16,0Z"/>
      <path class="cls-4" d="M371.99,457.25c7.26-.13,14.61.09,21.87.01v-21.87s43.71,0,43.71,0v21.87s21.86-.01,21.86-.01c-.05,7.27.13,14.6,0,21.86-29.02.48-58.42.48-87.44,0v-21.86Z"/>
      <path class="cls-4" d="M175.26,435.39c.12,7.26-.09,14.61-.01,21.87,7.26.08,14.61-.14,21.87-.01v21.86c-29.02.48-58.42.48-87.44,0-.13-7.26.05-14.59,0-21.86h21.87s-.02-21.87-.02-21.87c14.55-.03,29.18.07,43.73.01Z"/>
      <path class="cls-4" d="M131.54,282.37h21.87s-.02,21.87-.02,21.87l21.88-.02v21.87s43.71,0,43.71,0v21.86h-65.58v-21.87s-43.72.01-43.72.01c.13-7.26-.04-14.59,0-21.86,7.27-.07,14.6.05,21.87.01,0-7.27-.01-14.6-.01-21.87Z"/>
      <path class="cls-4" d="M437.57,282.37v21.87c7.25.04,14.59-.08,21.86-.01.04,7.27-.13,14.6,0,21.86h-43.73s.01,21.86.01,21.86h-65.58v-21.86h43.72v-21.87s21.87.02,21.87.02l-.02-21.88c7.26-.08,14.61.14,21.87.01Z"/>
      <path class="cls-2" d="M218.98,260.51c-7.26-.12-14.61.09-21.87.01v-21.88s21.88,0,21.88,0c.08,7.26-.14,14.61-.01,21.87,43.54.72,87.62.72,131.16,0,.13-7.26-.1-14.61-.01-21.87h21.88s0,21.88,0,21.88c-7.26.08-14.61-.13-21.87-.01-.13,7.26.13,14.59,0,21.86h-131.16c-.13-7.26.13-14.59,0-21.86Z"/>
      <path class="cls-4" d="M350.14,282.37c-.13,7.26.09,14.6,0,21.86h-131.16c-.09-7.26.13-14.6,0-21.86h131.16Z"/>
      <path class="cls-3" d="M175.26,194.93v-65.58h43.72c.09,7.26-.12,14.6,0,21.86h-21.87s.01,43.72.01,43.72c-7.26,0-14.6-.13-21.86,0Z"/>
      <path class="cls-3" d="M350.14,151.22c.12-7.26-.09-14.6,0-21.86h43.72v65.58c-7.26-.13-14.6,0-21.86,0v-43.73s-21.86.01-21.86.01Z"/>
      <path class="cls-1" d="M175.26,194.93c7.26-.13,14.6,0,21.86,0h21.86c-.12,7.26.09,14.6,0,21.86h-65.58v-21.87c7.25-.08,14.6.14,21.86.01Z"/>
      <path class="cls-1" d="M371.99,194.93c7.26,0,14.6-.13,21.86,0s14.61-.09,21.87-.01v21.87h-65.59c-.09-7.26.12-14.6,0-21.86h21.86Z"/>
      <path class="cls-2" d="M218.98,151.22c.24,14.5.24,29.22,0,43.72h-21.86v-43.73s21.86.01,21.86.01Z"/>
      <path class="cls-2" d="M350.14,151.22h21.87s-.01,43.72-.01,43.72h-21.86c-.24-14.5-.24-29.22,0-43.72Z"/>
    </g>
  </g>
</svg>